<?xml version="1.0" standalone="no"?> <!DOCTYPE svg PUBLIC "-//W3C//DTD SVG 1.0//EN" "http://www.w3.org/TR/2001/REC-SVG-20010904/DTD/svg10.dtd" > <svg xmlns="http://www.w3.org/2000/svg" width="100%" height="100%">
<defs >
<font id="adobevagroundedstdbold" horiz-adv-x="1050" ><font-face
    font-family="VAG Rounded Std Thin"
    units-per-em="2048"
    panose-1="2 15 8 2 2 2 4 2 2 4"
    ascent="1577"
    descent="-471"
    alphabetic="0" />
<missing-glyph horiz-adv-x="1024" d="M0 0V1434H1024V0H0ZM512 809L860 1331H164L512 809ZM573 717L922 195V1239L573 717ZM164 102H860L512 625L164 102ZM102 1239V195L451 717L102 1239Z" />
<glyph unicode=" " glyph-name="space" horiz-adv-x="548" />
<glyph unicode="!" glyph-name="exclam" horiz-adv-x="684" d="M195 555V1343Q195 1407 236 1445T342 1483Q405 1483 447 1444T489 1343V555Q489 493 447 455T342 416Q278 416 237 454T195 555ZM408 -25T342 -25T229 22T182 135T229 248T342 295T455 248T502 135T455 22Z" />
<glyph unicode="&quot;" glyph-name="quotedbl" horiz-adv-x="909" d="M518 1012V1360Q518 1416 551 1449T641 1483T731 1450T764 1360V1012Q764 956 731 923T641 889T551 922T518 1012ZM145 1012V1360Q145 1416 178 1449T268 1483Q325 1483 358 1450T391 1360V1012Q391
956 358 923T268 889Q212 889 179 922T145 1012Z" />
<glyph unicode="#" glyph-name="numbersign" horiz-adv-x="1228" d="M303 612L336 846H160Q112 846 87 875T61 944T86 1013T160 1042H365L410 1372Q417 1426 441 1448T512 1470Q550 1470 578 1448T606 1389Q606 1372 602 1339L561 1042H758L803 1372Q810 1426
834 1448T905 1470Q943 1470 971 1448T999 1389Q999 1372 995 1339L954 1042H1130Q1178 1042 1203 1013T1229 944T1204 875T1130 846H926L893 612H1069Q1117 612 1142 583T1167 514T1142 445T1069 416H864L819 86Q812 32 788 10T717 -12Q679 -12 651 11T623 70Q623
86 627 119L668 416H471L426 86Q419 32 395 10T324 -12Q285 -12 257 11T229 70Q229 86 233 119L274 416H98Q51 416 26 445T0 514T25 583T98 612H303ZM535 846L502 612H696L729 846H535Z" />
<glyph unicode="$" glyph-name="dollar" horiz-adv-x="1099" d="M596 580V281Q659 296 694 340T729 446Q729 534 596 580ZM485 946V1180Q437 1167 407 1135T377 1055Q377 1017 404 992T485 946ZM485 272V614Q331 660 284 680Q120 749 70 875Q45 938 45 1018Q45
1145 104 1246T263 1406T485 1479V1483V1542Q485 1569 486 1581T492 1609T509 1631T541 1638T572 1632T589 1610T595 1582T596 1542V1479Q636 1478 680 1471T775 1449T864 1411T928 1355T954 1278Q954 1216 916 1171T817 1126Q780 1126 710 1151T596 1182V909Q763
861 838 822Q1039 717 1059 503Q1061 478 1061 451Q1061 318 998 214T830 51T596 -18V-25V-84Q596 -103 596 -112T593 -137T585 -160T568 -174T541 -180Q521 -180 509 -173T492 -149T486 -120T485 -84V-20Q414 -18 344 -7T202 27T84 97T39 205T76 308T176 350Q221
350 324 314T485 272Z" />
<glyph unicode="%" glyph-name="percent" horiz-adv-x="1478" d="M330 1030T379 1030T456 1065T485 1151Q485 1203 457 1238T379 1274T301 1239T272 1151Q272 1100 301 1065ZM379 821Q244 821 154 918T63 1151T154 1385T379 1483T603 1385T694 1151T604 918T379
821ZM1100 -25Q965 -25 875 72T784 305T875 539T1100 637T1324 539T1415 305T1325 72T1100 -25ZM1051 184T1100 184T1177 219T1206 305Q1206 357 1178 392T1100 428T1022 393T993 305Q993 254 1022 219ZM305 152L983 1430Q1003 1468 1022 1481T1077 1495Q1126 1495
1162 1461T1198 1380Q1198 1350 1182 1319L494 31Q491 27 483 16T473 2T465 -9T455 -19T445 -26T432 -32T418 -35T401 -37Q359 -37 322 -3T285 76Q285 110 305 152Z" />
<glyph unicode="&amp;" glyph-name="ampersand" horiz-adv-x="1441" d="M817 365L520 694Q438 641 391 584T344 446Q344 351 402 299T557 246Q635 246 694 275T817 365ZM811 803L1026 565L1106 657Q1150 708 1183 730T1262 752T1341 716T1374 623Q1374 556 1262
428L1210 373L1350 215Q1375 186 1385 166T1395 113Q1395 60 1352 18T1251 -25Q1188 -25 1143 23L1001 170Q892 74 786 25T551 -25Q411 -25 299 25T118 177T49 418Q49 561 134 673T358 862Q292 929 258 994T223 1139Q223 1207 247 1264T313 1361T410 1429T527 1470T653
1483Q725 1483 797 1463T931 1404T1032 1303T1071 1161Q1071 1046 996 953T811 803ZM788 1130Q788 1173 765 1201T713 1239T653 1249Q610 1249 570 1220T530 1147Q530 1103 552 1068T639 971Q788 1044 788 1130Z" />
<glyph unicode="&apos;" glyph-name="quotesingle" horiz-adv-x="491" d="M123 1012V1360Q123 1416 156 1449T246 1483T336 1450T369 1360V1012Q369 956 336 923T246 889T156 922T123 1012Z" />
<glyph unicode="(" glyph-name="parenleft" horiz-adv-x="493" d="M352 1483Q405 1483 444 1450T483 1364Q483 1346 469 1300T444 1229Q338 898 338 584Q338 250 432 -23Q483 -156 483 -184Q483 -242 447 -278T352 -315Q289 -315 246 -238Q171 -108 126 144T80
584Q80 663 93 783T129 1036T194 1288T285 1456Q308 1483 352 1483Z" />
<glyph unicode=")" glyph-name="parenright" horiz-adv-x="493" d="M141 -315Q89 -315 50 -282T10 -197Q10 -166 49 -61Q156 266 156 584Q156 918 61 1190Q10 1328 10 1352Q10 1410 46 1446T141 1483Q203 1483 248 1405Q323 1275 368 1023T414 584Q414 473 393
305T323 -43T209 -289Q186 -315 141 -315Z" />
<glyph unicode="*" glyph-name="asterisk" horiz-adv-x="796" d="M397 1470Q443 1470 472 1447T502 1376Q502 1358 495 1311T485 1247Q499 1257 524 1276T563 1305T595 1322T631 1331Q675 1331 706 1295T737 1212Q737 1185 719 1164T681 1133T624 1108T573 1085Q587
1079 614 1069T659 1050T697 1030T727 1000T737 961Q737 914 706 877T631 840Q614 840 596 848T563 867T525 896T485 926Q487 908 494 862T502 797Q502 749 473 726T397 702Q352 702 323 725T293 797Q293 815 300 862T309 926Q294 915 269 896T229 867T197 849T162
840Q116 840 88 876T59 961Q59 983 69 1000T99 1029T137 1050T181 1068T221 1085Q206 1093 171 1107T116 1132T77 1164T59 1212Q59 1260 87 1295T162 1331Q178 1331 197 1323T229 1305T268 1277T309 1247Q307 1263 300 1310T293 1376Q293 1424 322 1447T397 1470Z"
/>
<glyph unicode="+" glyph-name="plus" horiz-adv-x="1228" d="M492 641V938Q492 994 525 1027T614 1061Q671 1061 704 1028T737 938V641H1034Q1091 641 1124 608T1157 518T1124 429T1034 395H737V98Q737 43 704 9T614 -25T525 9T492 98V395H195Q138 395 105 428T72
518T105 607T195 641H492Z" />
<glyph unicode="," glyph-name="comma" horiz-adv-x="548" d="M408 102L236 -205Q219 -237 184 -255T119 -274Q63 -274 22 -234T-20 -139Q-20 -111 4 -57L174 250Q193 282 228 300T293 319Q349 319 391 279T434 184Q434 160 408 102Z" />
<glyph unicode="-" glyph-name="hyphen" horiz-adv-x="796" d="M180 723H616Q672 719 702 684T733 592Q733 538 703 504T616 465H180Q124 469 94 503T63 592Q63 648 93 683T180 723Z" />
<glyph unicode="." glyph-name="period" horiz-adv-x="548" d="M115 69T115 135T161 248T274 295T387 248T434 135T387 22T274 -25T162 22Z" />
<glyph unicode="/" glyph-name="slash" horiz-adv-x="833" d="M35 145L582 1407Q612 1483 696 1483Q747 1483 782 1451T817 1370Q817 1355 799 1313L254 51Q236 13 211 -6T139 -25Q88 -25 52 8T16 88Q16 101 35 145Z" />
<glyph unicode="0" glyph-name="zero" horiz-adv-x="1175" d="M545 254T588 254T666 273T723 322T763 396T789 481T803 572T809 656T811 729Q811 1204 588 1204T365 729Q365 691 366 657T373 572T387 481T413 396T452 322T510 273ZM707 -25T588 -25T374 22T218
144T117 320T61 522T45 729T61 936T117 1138T217 1314T373 1436T588 1483T802 1436T958 1314T1058 1138T1114 936T1130 729T1114 522T1058 320T958 144T803 22Z" />
<glyph unicode="1" glyph-name="one" horiz-adv-x="757" d="M311 147V1176H190Q121 1176 86 1217T51 1317Q51 1374 89 1416T190 1458H481Q545 1458 581 1418T618 1313V147Q618 72 576 30T465 -12T354 30T311 147Z" />
<glyph unicode="2" glyph-name="two" horiz-adv-x="1175" d="M549 270H924Q995 270 1039 236T1083 135T1041 34T936 0H252Q180 0 136 34T92 135Q92 181 139 240Q192 303 302 426T496 650T649 852Q721 955 721 1042Q721 1106 678 1153T573 1200Q525 1200 492 1182T442
1134T412 1070T388 999T363 934T321 887T254 868Q184 868 144 911T104 1018Q104 1112 144 1199T250 1347T404 1446T586 1483Q712 1483 815 1432T979 1282T1040 1057Q1040 989 1015 914T953 776T859 638T755 509T645 384T549 270Z" />
<glyph unicode="3" glyph-name="three" horiz-adv-x="1175" d="M555 1483Q640 1483 713 1460T836 1398T922 1310T974 1209T991 1108Q991 901 823 795Q936 743 1004 645T1073 428Q1073 242 923 109T557 -25Q449 -25 354 12T197 107T101 231T66 360Q66 417 115 457T223
498Q255 498 280 480T321 436T357 378T401 321T465 276T561 258Q642 258 698 313T754 449Q754 507 735 543T685 595T617 617T543 630T475 647T425 687T406 766Q406 825 436 856T508 899T593 921T666 967T696 1063Q696 1123 657 1161T549 1200Q503 1200 468 1185T414
1148T375 1100T340 1051T300 1014T242 999Q182 999 146 1044T109 1151Q109 1230 172 1307T340 1433T555 1483Z" />
<glyph unicode="4" glyph-name="four" horiz-adv-x="1175" d="M670 322H176Q107 322 70 359T33 442Q33 485 61 532L520 1364Q554 1427 602 1455T729 1483Q828 1483 896 1417T965 1221V592H999Q1060 592 1101 555T1143 457T1102 360T999 322H965V147Q965 65 930
27T817 -12Q740 -12 705 26T670 147V322ZM670 592V1163H666L389 592H670Z" />
<glyph unicode="5" glyph-name="five" horiz-adv-x="1175" d="M512 1176L481 958Q575 979 635 979Q818 979 938 852T1059 543Q1059 281 918 128T516 -25Q458 -25 384 -7T238 44T116 131T66 250Q66 307 107 348T205 389Q232 389 270 369T342 324T426 279T522 258Q623
258 681 339T739 526Q739 620 688 676T543 733Q482 733 417 700T301 666Q246 666 213 698T180 762Q180 765 186 831L238 1264Q254 1380 287 1419T397 1458H891Q960 1458 1000 1422T1040 1329Q1040 1289 1029 1259T1001 1214T963 1190T927 1178T897 1176H512Z" />
<glyph unicode="6" glyph-name="six" horiz-adv-x="1175" d="M588 -25Q435 -25 316 45T136 231T74 483Q74 593 125 731T257 997T425 1233T594 1419Q608 1434 659 1468Q682 1483 721 1483Q766 1483 816 1435T866 1333Q866 1302 823 1249Q796 1216 688 1097T541
922L545 918Q600 942 674 942Q794 942 893 878T1047 709T1102 483Q1102 384 1064 292T960 129T796 17T588 -25ZM588 696Q501 696 447 636T393 483Q393 394 446 332T588 270Q674 270 728 331T782 483Q782 571 731 633T588 696Z" />
<glyph unicode="7" glyph-name="seven" horiz-adv-x="1101" d="M195 205L707 1176H182Q105 1176 68 1217T31 1317Q31 1377 67 1417T182 1458H924Q994 1458 1032 1410T1071 1311Q1071 1272 1024 1176L516 143Q469 49 439 19T344 -12Q266 -12 220 35T174 133Q174
164 195 205Z" />
<glyph unicode="8" glyph-name="eight" horiz-adv-x="1175" d="M588 668Q501 668 451 610T401 463Q401 378 450 318T588 258Q672 258 723 319T774 463Q774 559 724 613T588 668ZM588 -25Q373 -25 228 107T82 442Q82 561 141 651T301 797Q145 909 145 1090Q145
1265 272 1374T588 1483Q772 1483 902 1374T1032 1090Q1032 1002 990 923T874 797Q979 744 1036 652T1094 442Q1094 304 1025 196T840 32T588 -25ZM658 1212T588 1212T479 1169T440 1057Q440 987 479 944T588 901T697 944T737 1057Q737 1125 698 1168Z" />
<glyph unicode="9" glyph-name="nine" horiz-adv-x="1175" d="M588 1483Q703 1483 800 1442T963 1331T1065 1169T1102 975Q1102 865 1051 727T919 462T751 225T582 39Q560 18 516 -10Q494 -25 455 -25Q409 -25 359 23T309 125Q309 139 315 154T329 179T352 209Q380
243 488 362T635 537L631 541Q577 516 502 516Q382 516 283 580T129 749T74 975Q74 1074 112 1166T216 1329T380 1441T588 1483ZM588 762Q675 762 728 822T782 975Q782 1065 730 1126T588 1188Q502 1188 448 1127T393 975Q393 887 444 825T588 762Z" />
<glyph unicode=":" glyph-name="colon" horiz-adv-x="548" d="M115 727T115 793T161 905T274 952T387 906T434 793T387 680T274 633T162 680ZM115 69T115 135T161 248T274 295T387 248T434 135T387 22T274 -25T162 22Z" />
<glyph unicode=";" glyph-name="semicolon" horiz-adv-x="548" d="M293 319Q349 319 391 279T434 184Q434 160 408 102L236 -205Q219 -237 184 -255T119 -274Q63 -274 22 -234T-20 -139Q-20 -111 4 -57L174 250Q193 282 228 300T293 319ZM115 727T115 793T161
905T274 952T387 906T434 793T387 680T274 633T162 680Z" />
<glyph unicode="&lt;" glyph-name="less" horiz-adv-x="1228" d="M401 518L1083 233Q1157 202 1157 129Q1157 68 1129 34T1059 0Q1020 0 956 29L147 401Q72 434 72 518T147 635L956 1006Q1020 1036 1059 1036Q1100 1036 1128 1002T1157 907Q1157 834 1083 803L401 518Z" />
<glyph unicode="=" glyph-name="equal" horiz-adv-x="1228" d="M195 870H1034Q1091 870 1124 837T1157 748Q1157 692 1124 659T1034 625H195Q138 625 105 658T72 748Q72 803 105 836T195 870ZM195 412H1034Q1090 412 1123 378T1157 289Q1157 233 1124 200T1034
166H195Q138 166 105 199T72 289Q72 344 105 378T195 412Z" />
<glyph unicode="&gt;" glyph-name="greater" horiz-adv-x="1228" d="M145 233L827 518L145 803Q72 834 72 907Q72 968 100 1002T170 1036Q209 1036 272 1006L1081 635Q1157 601 1157 518T1081 401L272 29Q209 0 170 0Q129 0 101 34T72 129Q72 202 145 233Z" />
<glyph unicode="?" glyph-name="question" horiz-adv-x="985" d="M301 557V762Q301 774 303 784T312 803T325 817T343 830T363 840T387 849T412 856T439 863T467 870Q504 880 528 891T579 921T618 971T631 1044Q631 1110 580 1155T461 1200Q413 1200 374 1179T308
1128T255 1069T199 1018T131 997Q75 997 41 1037T6 1145Q6 1222 51 1288T164 1395T311 1460T461 1483Q594 1483 704 1432T882 1279T950 1044Q950 880 856 777T596 631V557Q596 495 555 456T449 416Q380 416 341 455T301 557ZM449 -25Q382 -25 336 22T289 135T335
248T449 295Q515 295 561 248T608 135T562 22T449 -25Z" />
<glyph unicode="@" glyph-name="at" horiz-adv-x="1638" d="M735 516Q823 516 881 582T940 737Q940 809 898 860T784 911Q706 911 649 842T592 692Q592 621 629 569T735 516ZM819 1483Q933 1483 1044 1452T1250 1360T1417 1221T1531 1039T1573 825Q1573 743 1549
671T1487 548T1398 454T1296 385T1195 340T1108 315T1047 307Q973 307 939 334T905 408H901Q861 360 805 334T686 307Q602 307 531 359T422 493T383 664Q383 782 431 885T572 1054T782 1120Q943 1120 1022 997H1026V1022Q1026 1120 1141 1120Q1181 1120 1208 1105T1235
1063Q1235 1039 1227 997L1145 625Q1137 591 1137 557Q1137 514 1184 514Q1209 514 1241 532T1308 586T1365 684T1389 825Q1389 966 1308 1076T1098 1242T819 1298Q664 1298 533 1222T326 1015T250 729T326 443T533 236T819 160Q1065 160 1245 256Q1257 262 1308
303T1382 344Q1458 344 1458 268Q1458 241 1446 218T1403 158Q1202 -25 819 -25Q666 -25 527 35T286 196T126 436T66 729T125 1021T286 1262T526 1423T819 1483Z" />
<glyph unicode="A" glyph-name="A" horiz-adv-x="1290" d="M18 199L430 1313Q458 1387 516 1435T649 1483Q728 1483 784 1437T868 1313L1270 199Q1286 155 1286 123Q1286 64 1245 26T1145 -12Q1031 -12 995 94L934 287H365L303 96Q269 -12 156 -12Q94 -12 49 29T4
131Q4 160 18 199ZM647 1163L453 569H842L651 1163H647Z" />
<glyph unicode="B" glyph-name="B" horiz-adv-x="1175" d="M92 156V1305Q92 1377 137 1417T254 1458H647Q810 1458 921 1358T1032 1098Q1032 990 986 917T842 797V793Q974 774 1063 676T1153 444Q1153 232 1024 116T678 0H256Q184 0 138 42T92 156ZM399 1188V881H559Q635
881 680 923T725 1042Q725 1112 678 1150T559 1188H399ZM399 610V270H641Q727 270 780 317T834 449Q834 523 778 566T616 610H399Z" />
<glyph unicode="C" glyph-name="C" horiz-adv-x="1251" d="M35 729Q35 887 87 1026T230 1266T454 1425T739 1483Q803 1483 872 1472T1014 1437T1133 1365T1180 1253Q1180 1197 1144 1157T1053 1116Q1020 1116 977 1134T874 1170T739 1188Q646 1188 572 1151T451
1049T379 902T354 723Q354 630 379 549T451 406T573 307T739 270Q813 270 876 291T986 334T1065 356Q1127 356 1163 309T1200 217Q1200 161 1166 117T1082 47T967 4T846 -19T739 -25Q536 -25 374 75T124 346T35 729Z" />
<glyph unicode="D" glyph-name="D" horiz-adv-x="1366" d="M92 154V1300Q92 1371 136 1414T250 1458H590Q930 1458 1120 1256T1311 709Q1311 387 1119 194T610 0H254Q192 0 142 37T92 154ZM399 1176V283H606Q702 283 777 317T898 411T967 550T991 723Q991 930
890 1053T586 1176H399Z" />
<glyph unicode="E" glyph-name="E" horiz-adv-x="948" d="M92 154V1280Q92 1360 132 1409T252 1458H760Q829 1458 867 1417T905 1317Q905 1260 867 1218T760 1176H399V877H735Q807 877 846 835T885 735Q885 679 845 637T735 594H399V283H778Q848 283 886 242T924
141Q924 85 885 43T778 0H250Q182 0 137 42T92 154Z" />
<glyph unicode="F" glyph-name="F" horiz-adv-x="909" d="M92 147V1298Q92 1364 135 1411T252 1458H776Q840 1458 876 1417T913 1317Q913 1260 877 1218T776 1176H399V877H717Q786 877 825 836T864 737Q864 679 825 637T717 594H399V147Q399 72 357 30T246 -12T135
30T92 147Z" />
<glyph unicode="G" glyph-name="G" horiz-adv-x="1441" d="M879 864H1227Q1322 864 1364 816T1407 668Q1407 520 1360 393T1228 173T1016 28T739 -25Q536 -25 374 75T124 346T35 729Q35 887 87 1026T230 1266T454 1425T739 1483Q889 1483 1021 1441T1228 1332T1303
1194Q1303 1129 1267 1090T1176 1051Q1138 1051 1104 1066T1038 1104T970 1147T874 1184T739 1200Q646 1200 572 1162T450 1057T379 907T354 729Q354 600 395 496T525 325T739 258Q803 258 862 276T973 332T1056 433T1087 582H879Q816 582 776 622T735 725T776
826T879 864Z" />
<glyph unicode="H" glyph-name="H" horiz-adv-x="1441" d="M92 147V1311Q92 1386 135 1428T246 1470T356 1428T399 1311V877H1042V1311Q1042 1386 1085 1428T1196 1470T1307 1428T1350 1311V147Q1350 72 1307 30T1196 -12T1085 30T1042 147V594H399V147Q399 72
357 30T246 -12T135 30T92 147Z" />
<glyph unicode="I" glyph-name="I" horiz-adv-x="491" d="M92 147V1311Q92 1386 135 1428T246 1470T356 1428T399 1311V147Q399 72 357 30T246 -12T135 30T92 147Z" />
<glyph unicode="J" glyph-name="J" horiz-adv-x="833" d="M754 1311V410Q754 311 730 233T666 108T572 30T463 -13T348 -25Q303 -25 255 -18T155 6T63 49T-3 116T-29 209Q-29 254 4 294T86 334Q126 334 205 296T332 258Q365 258 387 270T421 299T438 342T445 386T446
430V1311Q446 1386 489 1428T600 1470T711 1428T754 1311Z" />
<glyph unicode="K" glyph-name="K" horiz-adv-x="1251" d="M92 135V1319Q92 1383 135 1426T246 1470Q313 1470 356 1429T399 1319V877L903 1413Q955 1470 1022 1470Q1083 1470 1128 1429T1174 1323Q1174 1285 1151 1250T1073 1159L686 778L1159 285Q1201 243 1223
207T1245 129Q1245 61 1199 25T1085 -12Q1044 -12 1011 10T930 84L399 657V135Q399 74 357 31T246 -12Q179 -12 136 28T92 135Z" />
<glyph unicode="L" glyph-name="L" horiz-adv-x="872" d="M92 168V1311Q92 1386 135 1428T246 1470T356 1428T399 1311V283H764Q837 283 875 239T911 135Q908 81 868 41T764 0H252Q178 0 135 45T92 168Z" />
<glyph unicode="M" glyph-name="M" horiz-adv-x="1781" d="M51 170L242 1313Q252 1372 308 1421T442 1470Q516 1470 572 1426T647 1323L889 512H893L1135 1323Q1153 1382 1209 1426T1339 1470Q1416 1470 1473 1421T1540 1313L1731 170Q1733 158 1733 135Q1733
69 1691 29T1585 -12Q1509 -12 1473 22T1425 131L1305 965H1300L1055 106Q1019 -12 891 -12Q761 -12 727 106L481 965H477L356 131Q345 57 309 23T197 -12Q134 -12 92 28T49 135Q49 158 51 170Z" />
<glyph unicode="N" glyph-name="N" horiz-adv-x="1402" d="M80 147V1311Q80 1386 122 1428T233 1470Q263 1470 303 1450T362 1403L1012 537H1016V1311Q1016 1386 1058 1428T1169 1470T1280 1428T1323 1311V147Q1323 72 1280 30T1169 -12Q1139 -12 1100 8T1040
55L391 911H387V147Q387 72 345 30T233 -12Q165 -12 123 30T80 147Z" />
<glyph unicode="O" glyph-name="O" horiz-adv-x="1478" d="M614 258T739 258T953 324T1083 495T1124 729Q1124 823 1100 907T1028 1057T907 1161T739 1200T572 1162T450 1057T379 907T354 729Q354 600 395 496T525 325ZM739 -25Q536 -25 374 75T124 346T35 729Q35
887 87 1026T230 1266T454 1425T739 1483Q941 1483 1103 1382T1354 1108T1444 729Q1444 571 1393 433T1250 193T1026 34T739 -25Z" />
<glyph unicode="P" glyph-name="P" horiz-adv-x="1138" d="M92 147V1298Q92 1372 134 1415T252 1458H614Q842 1458 990 1323T1139 969Q1139 824 1069 712T884 541T627 483H399V147Q399 72 357 30T246 -12T135 30T92 147ZM399 1188V754H608Q703 754 761 815T819
971T761 1126T608 1188H399Z" />
<glyph unicode="Q" glyph-name="Q" horiz-adv-x="1478" d="M1217 -33L1100 66Q942 -25 739 -25T374 75T124 346T35 729Q35 887 87 1026T230 1266T454 1425T739 1483Q941 1483 1103 1382T1354 1108T1444 729Q1444 452 1307 256L1423 156Q1459 124 1477 97T1495
31Q1495 -22 1451 -60T1354 -98Q1293 -98 1217 -33ZM975 547L1075 467Q1124 576 1124 729Q1124 822 1100 906T1028 1056T907 1161T739 1200T572 1162T450 1057T379 907T354 729Q354 600 395 496T525 325T739 258Q798 258 870 272L797 344Q758 380 758 426Q758 488
796 530T897 573Q934 573 975 547Z" />
<glyph unicode="R" glyph-name="R" horiz-adv-x="1138" d="M92 147V1298Q92 1373 133 1415T250 1458H610Q854 1458 987 1344T1120 995Q1120 834 1014 734T741 608L1090 236Q1130 192 1130 145Q1130 83 1086 36T977 -12Q903 -12 858 41L403 592H399V147Q399 72
357 30T246 -12T135 30T92 147ZM399 1176V813H610Q696 813 748 862T801 995Q801 1081 749 1128T610 1176H399Z" />
<glyph unicode="S" glyph-name="S" horiz-adv-x="1099" d="M553 1483Q592 1483 639 1478T744 1457T846 1420T923 1361T954 1278Q954 1216 916 1171T817 1126Q780 1126 696 1157T545 1188Q475 1188 426 1153T377 1055Q377 1022 400 997T463 954T554 922T662 890T775
851T883 795T974 717T1037 604T1061 451Q1061 309 989 199T798 32T537 -25Q493 -25 445 -21T338 -9T228 17T134 59T65 121T39 205Q39 267 76 308T176 350Q219 350 334 310T520 270Q618 270 673 319T729 446Q729 484 706 513T643 561T552 596T444 628T331 663T223
713T132 782T69 881T45 1018Q45 1157 115 1264T301 1427T553 1483Z" />
<glyph unicode="T" glyph-name="T" horiz-adv-x="983" d="M338 147V1176H115Q46 1176 11 1217T-25 1317Q-25 1374 13 1416T115 1458H868Q931 1458 969 1416T1008 1317Q1008 1259 973 1218T868 1176H645V147Q645 72 603 30T492 -12Q423 -12 381 30T338 147Z" />
<glyph unicode="U" glyph-name="U" horiz-adv-x="1402" d="M80 580V1311Q80 1386 122 1428T233 1470Q302 1470 344 1428T387 1311V596Q387 451 473 355T702 258Q839 258 927 357T1016 596V1311Q1016 1386 1058 1428T1169 1470T1280 1428T1323 1311V580Q1323 412
1239 272T1012 54T702 -25Q532 -25 390 52T164 269T80 580Z" />
<glyph unicode="V" glyph-name="V" horiz-adv-x="1212" d="M455 106L6 1247Q-8 1285 -8 1323Q-8 1386 39 1428T150 1470Q240 1470 289 1370L606 518L924 1370Q971 1470 1063 1470Q1126 1470 1173 1428T1221 1323Q1221 1284 1206 1247L758 106Q734 49 701 19T606
-12T511 18T455 106Z" />
<glyph unicode="W" glyph-name="W" horiz-adv-x="1859" d="M285 147L25 1266Q16 1299 16 1335Q16 1388 57 1429T162 1470Q295 1470 326 1323L500 453H504L770 1350Q787 1405 830 1437T930 1470T1030 1438T1090 1350L1356 453H1360L1534 1323Q1563 1470 1698 1470Q1762
1470 1802 1429T1843 1335Q1843 1301 1835 1266L1575 147Q1558 78 1506 33T1372 -12Q1299 -12 1244 30T1169 137L932 928H928L690 137Q671 72 616 30T487 -12Q406 -12 354 33T285 147Z" />
<glyph unicode="X" glyph-name="X" horiz-adv-x="1253" d="M43 236L449 780L117 1231Q84 1272 84 1321Q84 1387 128 1428T240 1470Q277 1470 313 1449T373 1395L627 1034L881 1395Q903 1427 940 1448T1014 1470Q1081 1470 1125 1429T1169 1321Q1169 1273 1137
1231L805 780L1210 236Q1245 189 1245 131Q1245 67 1202 28T1090 -12Q1010 -12 963 55L627 522L291 55Q243 -12 164 -12Q96 -12 52 27T8 131Q8 186 43 236Z" />
<glyph unicode="Y" glyph-name="Y" horiz-adv-x="1097" d="M395 137V684L8 1229Q-20 1269 -20 1321Q-20 1383 21 1426T127 1470Q212 1470 254 1409L549 981L844 1409Q885 1470 971 1470Q1035 1470 1076 1427T1118 1321Q1118 1269 1090 1229L702 684V137Q702 74
664 31T549 -12Q472 -12 434 31T395 137Z" />
<glyph unicode="Z" glyph-name="Z" horiz-adv-x="1214" d="M428 270H1022Q1088 270 1128 235T1169 135Q1169 78 1124 39T1022 0H217Q137 0 91 40T45 147Q45 210 86 266L745 1188H207Q144 1188 104 1223T63 1319Q63 1377 105 1417T207 1458H956Q1039 1458 1083
1414T1128 1311Q1128 1237 1083 1180L428 270Z" />
<glyph unicode="[" glyph-name="bracketleft" horiz-adv-x="569" d="M90 -168V1335Q90 1402 131 1442T240 1483H444Q493 1483 523 1455T553 1366T523 1278T444 1249H348V-82H444Q493 -82 523 -110T553 -199T523 -287T444 -315H240Q172 -315 131 -275T90 -168Z" />
<glyph unicode="\" glyph-name="backslash" horiz-adv-x="833" d="M252 1407L799 145Q817 103 817 88Q817 41 781 8T694 -25Q612 -25 582 51L33 1313Q16 1361 16 1370Q16 1418 51 1450T137 1483Q220 1483 252 1407Z" />
<glyph unicode="]" glyph-name="bracketright" horiz-adv-x="569" d="M479 1335V-168Q479 -235 439 -275T330 -315H125Q77 -315 47 -287T16 -199T46 -111T125 -82H221V1249H125Q77 1249 47 1278T16 1366T46 1454T125 1483H330Q398 1483 438 1443T479 1335Z" />
<glyph unicode="^" glyph-name="asciicircum" horiz-adv-x="1228" d="M614 1163L358 690Q327 645 254 645Q209 645 180 666T150 727Q150 759 176 809L506 1409Q536 1470 614 1470T723 1409L1053 809Q1079 759 1079 727Q1079 687 1050 666T975 645Q902 645 870
690L614 1163Z" />
<glyph unicode="_" glyph-name="underscore" horiz-adv-x="1024" d="M1024 -256H0Q-26 -256 -42 -243T-59 -205T-43 -168T0 -154H1024Q1050 -154 1066 -167T1083 -205T1067 -242T1024 -256Z" />
<glyph unicode="`" glyph-name="grave" horiz-adv-x="454" d="M164 1563L406 1464L422 1456Q448 1443 463 1420T479 1374Q479 1318 447 1272T371 1225Q357 1225 353 1225T342 1226T332 1229T317 1235T289 1245L59 1335Q-25 1366 -25 1456Q-25 1500 8 1541T86 1583Q112
1583 164 1563Z" />
<glyph unicode="a" glyph-name="a" horiz-adv-x="1175" d="M1092 909V180Q1092 148 1091 130T1083 81T1062 33T1020 2T950 -12Q889 -12 857 19T809 113Q692 -25 528 -25Q319 -25 180 135T41 543Q41 784 183 949T528 1114Q613 1114 687 1080T809 979Q815 1032 855
1067T950 1102Q991 1102 1019 1088T1061 1057T1082 1009T1091 960T1092 909ZM336 543Q336 425 397 336T569 246Q642 246 695 291T773 403T797 543T774 683T697 797T569 844Q493 844 438 797T360 684T336 543Z" />
<glyph unicode="b" glyph-name="b" horiz-adv-x="1175" d="M84 152V1413Q84 1486 125 1531T231 1577T337 1532T379 1413V1012Q498 1114 659 1114Q751 1114 830 1081T964 992T1059 860T1116 701T1135 530Q1135 425 1100 326T1004 148T850 23T649 -25Q569 -25 494
10T379 111Q349 -12 231 -12Q166 -12 125 33T84 152ZM379 553Q379 477 402 410T479 294T610 246Q683 246 737 292T815 405T840 543Q840 616 816 683T737 797T610 844Q535 844 481 800T403 692T379 553Z" />
<glyph unicode="c" glyph-name="c" horiz-adv-x="948" d="M930 928Q930 877 898 832T817 786Q782 786 708 815T584 844Q504 844 446 800T362 689T336 543Q336 468 364 402T450 291T584 246Q625 246 707 276T803 307Q855 307 892 269T930 178Q930 135 903 99T834
41T743 4T648 -18T569 -25Q415 -25 293 53T106 260T41 543Q41 654 80 758T188 940T355 1066T569 1114Q619 1114 676 1105T792 1075T891 1017T930 928Z" />
<glyph unicode="d" glyph-name="d" horiz-adv-x="1175" d="M1092 1413V152Q1092 78 1051 33T944 -12Q825 -12 797 111Q757 46 682 11T526 -25Q383 -25 270 56T99 263T41 530Q41 640 71 742T159 929T309 1063T516 1114Q678 1114 797 1012V1413Q797 1486 838 1531T944
1577T1050 1532T1092 1413ZM797 553Q797 628 773 692T695 800T565 844Q493 844 439 797T361 683T336 543Q336 471 360 405T439 293T565 246Q623 246 669 273T742 346T783 444T797 553Z" />
<glyph unicode="e" glyph-name="e" horiz-adv-x="1099" d="M950 446H322Q336 342 413 288T600 233Q651 233 705 251T795 292T870 333T934 352Q981 352 1018 313T1055 225Q1055 164 981 105T794 11T573 -25Q410 -25 284 49T89 252T20 543Q20 693 86 823T275 1033T549
1114Q642 1114 726 1082T874 996T984 873T1055 728T1079 578Q1079 511 1048 479T950 446ZM315 643H784Q772 743 711 805T549 868Q454 868 391 804T315 643Z" />
<glyph unicode="f" glyph-name="f" horiz-adv-x="606" d="M152 152V831H86Q26 831 -8 866T-43 961Q-43 1016 -6 1053T86 1090H152V1241Q152 1400 237 1488T461 1577Q518 1577 561 1566T635 1523T666 1444Q666 1380 637 1350T545 1319Q520 1319 508 1317T478 1306T454
1273T446 1210V1090H539Q688 1090 688 961Q688 894 648 863T539 831H446V152Q446 78 405 33T299 -12T193 33T152 152Z" />
<glyph unicode="g" glyph-name="g" horiz-adv-x="1175" d="M1092 938V86Q1092 -87 1020 -208T821 -387T524 -446Q484 -446 429 -439T309 -415T188 -373T96 -310T59 -225Q59 -183 97 -140T178 -96Q215 -96 272 -119T402 -165T547 -188Q657 -188 727 -126T797 45V115H793Q697
-25 496 -25Q384 -25 295 22T152 148T69 328T41 541Q41 691 99 820T270 1032T526 1114Q606 1114 681 1079T797 979Q825 1102 944 1102Q1009 1102 1050 1057T1092 938ZM797 537Q797 593 783 646T742 744T669 816T565 844Q493 844 439 798T361 685T336 547Q336 420
396 333T565 246Q676 246 736 332T797 537Z" />
<glyph unicode="h" glyph-name="h" horiz-adv-x="1138" d="M84 152V1413Q84 1486 125 1531T231 1577T337 1532T379 1413V1012H383Q425 1064 499 1089T651 1114Q829 1114 942 1008T1055 717V152Q1055 78 1014 33T907 -12T801 33T760 152V666Q760 764 706 816T567
868Q479 868 429 811T379 666V152Q379 78 338 33T231 -12T125 33T84 152Z" />
<glyph unicode="i" glyph-name="i" horiz-adv-x="454" d="M80 152V938Q80 1011 121 1056T227 1102T333 1057T375 938V152Q375 78 334 33T227 -12T121 33T80 152ZM161 1544T227 1544T343 1495T393 1382Q393 1313 345 1263T227 1212Q161 1212 111 1263T61 1382Q61
1445 111 1494Z" />
<glyph unicode="j" glyph-name="j" horiz-adv-x="454" d="M80 -283V938Q80 1011 121 1056T227 1102T333 1057T375 938V-283Q375 -356 334 -401T227 -446T121 -401T80 -283ZM161 1544T227 1544T343 1495T393 1382Q393 1313 345 1263T227 1212Q161 1212 111 1263T61
1382Q61 1445 111 1494Z" />
<glyph unicode="k" glyph-name="k" horiz-adv-x="1024" d="M84 152V1413Q84 1486 125 1531T231 1577T337 1532T379 1413V725L702 1038Q770 1102 836 1102Q889 1102 925 1061T961 969Q961 905 903 852L641 618L987 213Q1024 171 1024 115Q1024 56 984 16T885 -25Q847
-25 815 -3T743 66L383 510H379V152Q379 78 338 33T231 -12T125 33T84 152Z" />
<glyph unicode="l" glyph-name="l" horiz-adv-x="454" d="M80 152V1413Q80 1486 121 1531T227 1577T333 1532T375 1413V152Q375 78 334 33T227 -12T121 33T80 152Z" />
<glyph unicode="m" glyph-name="m" horiz-adv-x="1744" d="M84 152V938Q84 1011 125 1056T231 1102Q288 1102 323 1073T367 991Q479 1114 641 1114Q827 1114 946 965Q1006 1033 1092 1073T1257 1114Q1441 1114 1551 1011T1661 717V152Q1661 78 1620 33T1513 -12T1407
33T1366 152V666Q1366 756 1320 812T1194 868Q1114 868 1067 812T1020 666V152Q1020 78 979 33T872 -12T766 33T725 152V666Q725 756 679 812T553 868Q466 868 423 814T379 666V152Q379 78 338 33T231 -12T125 33T84 152Z" />
<glyph unicode="n" glyph-name="n" horiz-adv-x="1138" d="M84 152V938Q84 1011 125 1056T231 1102Q288 1102 323 1073T367 993Q453 1114 651 1114Q829 1114 942 1008T1055 717V152Q1055 78 1014 33T907 -12T801 33T760 152V666Q760 764 706 816T567 868Q479 868
429 811T379 666V152Q379 78 338 33T231 -12T125 33T84 152Z" />
<glyph unicode="o" glyph-name="o" horiz-adv-x="1138" d="M455 1114T569 1114T783 1067T951 941T1058 758T1098 543Q1098 389 1033 260T846 53T569 -25Q415 -25 293 53T106 260T41 543Q41 654 80 758T188 940T355 1066ZM569 844Q493 844 438 797T360 684T336
543Q336 425 397 336T569 246Q645 246 700 291T779 402T803 543T780 684T701 797T569 844Z" />
<glyph unicode="p" glyph-name="p" horiz-adv-x="1175" d="M84 -283V938Q84 1011 125 1056T231 1102Q349 1102 379 979Q419 1044 495 1079T659 1114Q751 1114 830 1081T964 992T1059 860T1116 701T1135 530Q1135 425 1100 326T1004 148T850 23T649 -25Q497 -25
379 78V-283Q379 -356 338 -401T231 -446T125 -401T84 -283ZM379 553Q379 477 402 410T479 294T610 246Q683 246 737 292T815 405T840 543Q840 616 816 683T737 797T610 844Q535 844 481 800T403 692T379 553Z" />
<glyph unicode="q" glyph-name="q" horiz-adv-x="1175" d="M1092 938V-283Q1092 -356 1051 -401T944 -446T838 -401T797 -283V78Q740 28 669 2T526 -25Q383 -25 270 56T99 263T41 530Q41 640 71 742T159 929T309 1063T516 1114Q603 1114 680 1079T797 979Q825
1102 944 1102Q1009 1102 1050 1057T1092 938ZM797 553Q797 628 773 692T695 800T565 844Q493 844 439 797T361 683T336 543Q336 471 360 405T439 293T565 246Q623 246 669 273T742 346T783 444T797 553Z" />
<glyph unicode="r" glyph-name="r" horiz-adv-x="681" d="M80 152V954Q80 1024 125 1063T231 1102Q375 1102 375 979H379Q421 1042 470 1072T586 1102Q644 1102 686 1061T729 944Q729 916 720 897T692 864T654 842T604 822T553 801Q515 783 500 776T454 749T411
712T387 666T375 604V152Q375 78 334 33T227 -12T121 33T80 152Z" />
<glyph unicode="s" glyph-name="s" horiz-adv-x="872" d="M825 953T825 901T790 810T705 770Q682 770 588 813T440 856Q397 856 369 835T340 774Q340 747 368 724T441 683T541 645T650 597T750 535T824 445T852 322Q852 172 736 74T432 -25Q346 -25 252 3T89 86T20
203Q20 244 56 289T147 334Q185 334 223 318T290 284T362 249T453 233Q518 233 543 253T569 317Q569 344 541 366T468 407T368 445T259 493T159 556T85 646T57 770Q57 923 169 1018T457 1114Q514 1114 576 1101T695 1063T788 996Z" />
<glyph unicode="t" glyph-name="t" horiz-adv-x="606" d="M156 152V831H90Q30 831 -4 866T-39 961Q-39 1016 -2 1053T90 1090H156V1266Q156 1339 197 1384T303 1430T409 1385T451 1266V1090H535Q597 1090 636 1059T676 961T636 863T535 831H451V152Q451 78 410
33T303 -12T197 33T156 152Z" />
<glyph unicode="u" glyph-name="u" horiz-adv-x="1138" d="M84 406V938Q84 1011 125 1056T231 1102T337 1057T379 938V412Q379 324 435 273T569 221Q648 221 704 272T760 412V938Q760 1011 801 1056T907 1102T1013 1057T1055 938V406Q1055 206 928 91T569 -25T211
90T84 406Z" />
<glyph unicode="v" glyph-name="v" horiz-adv-x="946" d="M313 111L16 872Q-2 920 -2 958Q-2 1026 43 1064T152 1102Q248 1102 283 997L471 416H475L664 997Q697 1102 795 1102Q858 1102 903 1064T948 958Q948 920 930 872L633 111Q608 47 576 18T473 -12T371
17T313 111Z" />
<glyph unicode="w" glyph-name="w" horiz-adv-x="1593" d="M295 137L45 844Q14 935 14 983Q14 1033 56 1067T162 1102Q215 1102 252 1070T301 985L471 422H475L647 973Q665 1037 700 1069T797 1102T894 1070T946 973L1118 422H1122L1292 985Q1305 1039 1342 1070T1432
1102Q1498 1102 1538 1064T1579 958Q1579 949 1578 940T1573 918T1567 898T1559 873T1550 848L1298 137Q1246 -12 1120 -12Q993 -12 950 125L799 600H795L643 125Q600 -12 473 -12Q349 -12 295 137Z" />
<glyph unicode="x" glyph-name="x" horiz-adv-x="1024" d="M41 231L340 571L90 852Q45 906 45 958Q45 1016 92 1059T197 1102Q256 1102 305 1044L512 786L719 1044Q768 1102 827 1102Q885 1102 932 1059T979 958Q979 906 934 852L684 571L983 231Q1000 213 1012
185T1024 131Q1024 67 984 28T879 -12Q834 -12 809 4T756 53L512 352L268 53Q241 20 216 4T145 -12Q80 -12 40 27T0 131Q0 156 12 184T41 231Z" />
<glyph unicode="y" glyph-name="y" horiz-adv-x="985" d="M336 86L10 899Q-4 939 -4 975Q-4 1028 41 1065T135 1102Q243 1102 283 997L485 442L702 997Q742 1102 850 1102Q899 1102 944 1065T989 975Q989 931 975 899L481 -330Q435 -446 342 -446Q271 -446 230
-408T188 -319Q188 -284 207 -233L336 86Z" />
<glyph unicode="z" glyph-name="z" horiz-adv-x="985" d="M49 180L512 831H170Q113 831 75 866T37 961Q37 1020 75 1055T170 1090H840Q852 1090 866 1087T897 1074T925 1045T936 997T930 951T905 909L440 258H829Q887 258 925 224T963 129T925 35T829 0H143Q91
0 57 26T23 100Q23 138 49 180Z" />
<glyph unicode="{" glyph-name="braceleft" horiz-adv-x="681" d="M176 -47V350Q176 433 151 459T78 485Q30 485 5 514T-20 584Q-20 624 5 653T78 682Q125 682 150 708T176 817V1214Q176 1352 244 1417T449 1483H575Q617 1483 642 1459T668 1391Q668 1346 643
1322T575 1298H524Q434 1298 434 1180V793Q434 740 417 701T378 641T321 608T265 592T213 586V582Q235 580 248 578T288 570T331 556T369 533T403 497T425 445T434 375V-12Q434 -131 524 -131H575Q617 -131 642 -155T668 -223Q668 -268 643 -291T575 -315H449Q313
-315 245 -250T176 -47Z" />
<glyph unicode="|" glyph-name="bar" horiz-adv-x="454" d="M104 -512V1536Q104 1592 137 1625T227 1659Q284 1659 317 1626T350 1536V-512Q350 -568 317 -601T227 -635Q171 -635 138 -602T104 -512Z" />
<glyph unicode="}" glyph-name="braceright" horiz-adv-x="681" d="M506 1214V817Q506 734 531 708T604 682Q652 682 677 653T702 584Q702 543 677 514T604 485Q557 485 532 459T506 350V-47Q506 -185 438 -250T233 -315H106Q65 -315 40 -292T14 -223Q14 -179
39 -155T106 -131H158Q248 -131 248 -12V375Q248 413 257 444T278 496T312 532T351 556T394 570T433 578T469 582V586Q438 589 418 592T362 608T304 641T265 700T248 793V1180Q248 1298 158 1298H106Q65 1298 40 1322T14 1391Q14 1435 39 1459T106 1483H233Q369
1483 437 1418T506 1214Z" />
<glyph unicode="~" glyph-name="asciitilde" horiz-adv-x="1228" d="M829 571Q867 571 900 590T953 633T1001 676T1057 696Q1102 696 1123 667T1145 596Q1145 494 1060 410T834 326Q769 326 683 361T519 430T399 465Q368 465 341 452T295 421T258 384T218 353T172
340Q126 340 105 369T84 440Q84 488 105 535T164 622T263 686T395 711Q460 711 546 676T710 606T829 571Z" />
</font>
</defs>
</svg>
