<?xml version="1.0" encoding="UTF-8" standalone="no"?>
<svg width="65px" height="65px" viewBox="0 0 65 65" version="1.1" xmlns="http://www.w3.org/2000/svg" xmlns:xlink="http://www.w3.org/1999/xlink">
    <!-- Generator: Sketch 3.7.2 (28276) - http://www.bohemiancoding.com/sketch -->
    <title>membership-3</title>
    <desc>Created with Sketch.</desc>
    <defs></defs>
    <g id="Page-1" stroke="none" stroke-width="1" fill="none" fill-rule="evenodd">
        <g id="membership-3" fill="#00A1E0">
            <path d="M32.0605541,43.5083617 C21.2677163,43.5083617 12.4896128,34.795998 12.4896128,24.0839883 C12.4896128,13.3737498 21.2677163,4.65961491 32.0605541,4.65961491 C42.8516075,4.65961491 51.6297109,13.3737498 51.6297109,24.0839883 C51.6297109,34.795998 42.8516075,43.5083617 32.0605541,43.5083617 L32.0605541,43.5083617 Z M32.0606115,0 C18.6817996,0 7.79869451,10.8053711 7.79869451,24.0839883 C7.79869451,37.3626055 18.6817996,48.1660915 32.0606115,48.1660915 C45.4394235,48.1660915 56.3225286,37.3626055 56.3225286,24.0839883 C56.3225286,10.8053711 45.4394235,0 32.0606115,0 Z M59.7830901,55.9685044 L52.6435452,43.6965285 C51.8306361,44.5372814 50.9683447,45.3309069 50.056671,46.0679795 L54.8239649,54.2662626 L50.1592343,52.9957078 C49.7204913,52.8731765 49.2456613,52.9353847 48.8487033,53.1634813 C48.4498461,53.391578 48.1611494,53.7667121 48.0452909,54.2078246 L46.8221286,58.8489313 L42.0453381,50.6336823 C40.9513297,51.0427482 39.8231334,51.3782953 38.670246,51.6516342 L45.9389447,64.1479365 C46.2485339,64.6795337 46.81833,65 47.4261124,65 C47.5020853,65 47.5780581,64.9943447 47.6559302,64.9849192 C48.3453835,64.8925495 48.9094816,64.3967692 49.0880177,63.725675 L50.928459,56.7376236 L57.950246,58.6509962 C58.1059903,58.6924683 58.2674325,58.6981236 58.4212774,58.7113193 C59.3690383,58.7113193 60.1363636,57.9478553 60.1363636,57.0071924 C60.1363636,56.6169775 60.0053105,56.255039 59.7830901,55.9685044 L59.7830901,55.9685044 Z M17.2952958,58.8489313 L16.0740329,54.2078246 C15.9581744,53.7667121 15.6675784,53.391578 15.2706204,53.1634813 C15.0066149,53.0126736 14.7103209,52.9353847 14.4121277,52.9353847 C14.260182,52.9353847 14.1082364,52.9542357 13.9581901,52.9957078 L9.29535888,54.2662626 L14.0626527,46.0679795 C13.150979,45.3309069 12.2905869,44.5372814 11.4757785,43.6965285 L4.22987174,56.1551289 C3.88229613,56.7527044 3.93167846,57.5010876 4.35902552,58.0477654 C4.78447325,58.5963284 5.49861767,58.8281952 6.17097705,58.6509962 L13.1908647,56.7395087 L15.0332054,63.725675 C15.2098422,64.3967692 15.7739403,64.8925495 16.4652929,64.9849192 C16.5393664,64.9943447 16.6172385,65 16.6951106,65 C17.3009938,65 17.8707899,64.6795337 18.1784797,64.1479365 L25.450977,51.6516342 C24.2961903,51.3782953 23.1698934,51.0427482 22.0739856,50.6355674 L17.2952958,58.8489313 Z" id="Fill-1"></path>
            <text id="GOLD" font-family="SalesforceSans-Bold, Salesforce Sans" font-size="12" font-weight="bold">
                <tspan x="15.676" y="30">GOLD</tspan>
            </text>
        </g>
    </g>
</svg>