<?xml version="1.0" encoding="UTF-8" standalone="no"?>
<svg width="65px" height="65px" viewBox="0 0 65 65" version="1.1" xmlns="http://www.w3.org/2000/svg" xmlns:xlink="http://www.w3.org/1999/xlink">
    <!-- Generator: Sketch 3.7.2 (28276) - http://www.bohemiancoding.com/sketch -->
    <title>plan</title>
    <desc>Created with Sketch.</desc>
    <defs></defs>
    <g id="Page-1" stroke="none" stroke-width="1" fill="none" fill-rule="evenodd">
        <g id="plan">
            <g id="Group" transform="translate(0.000000, 3.000000)" fill="#00A1E0">
                <path d="M53.2096368,21.3544534 C53.2096368,9.92417897 43.9520094,0.653464971 32.535631,0.653464971 C21.1192525,0.653464971 11.8630102,9.92417897 11.8630102,21.3544534 C11.8630102,32.7861148 21.1192525,42.0554418 32.535631,42.0554418 C43.9520094,42.0554418 53.2096368,32.7861148 53.2096368,21.3544534" id="Fill-1"></path>
                <path d="M40.2929902,53.6164257 C40.1566176,53.5838822 40.1375,53.4958233 40.2490196,53.4096787 C42.5463235,51.6414815 43.4671569,48.7585096 43.6991176,47.9008925 C43.7354412,47.7649755 43.6487745,47.637992 43.5085784,47.6233155 C42.5890196,47.5269612 39.3402941,47.3387193 36.8161275,49.0750112 C34.2919608,50.8138554 33.3023039,53.9144221 33.0614216,54.8077733 C33.025098,54.9449665 33.0671569,55.148523 33.1557353,55.2582776 C33.7362745,55.9793396 35.8991176,58.4124453 38.9107843,58.972066 C41.922451,59.532963 44.8136765,58.0385141 45.6153431,57.5758858 C45.7370588,57.5050558 45.765098,57.3531861 45.6758824,57.2434315 C45.1170098,56.5542749 43.1077451,54.2960107 40.2929902,53.6164257" id="Fill-2"></path>
                <path d="M56.059951,49.4451138 C55.3245588,49.0277912 52.8456373,47.7700803 50.1984804,48.1191254 C50.0582843,48.1363543 50.0092157,48.0616957 50.0818627,47.9410933 C51.4634314,45.6502856 51.3060294,42.869411 51.2193627,42.0283846 C51.2047059,41.8873628 51.0766176,41.8005801 50.9408824,41.8375904 C50.087598,42.0730522 47.2333333,43.0066042 45.6357353,45.3497367 C44.0394118,47.6941455 44.2108333,50.6938911 44.3032353,51.5751183 C44.3178922,51.7148639 44.4306863,51.8903436 44.5536765,51.9605355 C45.3202941,52.4001919 47.9986765,53.7612762 50.7809314,53.2367515 C53.5657353,52.7103124 55.5660784,50.4660866 56.1230392,49.7769299 C56.2109804,49.6671754 56.1829412,49.5140295 56.059951,49.4451138" id="Fill-3"></path>
                <path d="M62.4312255,38.561544 C61.6333824,38.4677421 59.0913725,38.2980054 56.9705882,39.5333824 C56.8482353,39.6042124 56.7736765,39.55444 56.7940686,39.4146943 C57.1426471,36.9822267 56.032549,34.6850379 55.6470098,33.9786524 C55.5794608,33.8542213 55.4277941,33.822954 55.317549,33.9110129 C54.6560784,34.4348996 52.5767157,36.2554217 52.0567157,38.8180634 C51.5373529,41.3794288 52.7411275,43.86805 53.1457843,44.6082552 C53.2133333,44.7314101 53.3847549,44.848822 53.524951,44.8660509 C54.3616667,44.96751 57.1190686,45.1531995 59.2952941,43.7110754 C61.4740686,42.2663989 62.3802451,39.6520705 62.6166667,38.8416734 C62.6568137,38.7057564 62.5714216,38.5774967 62.4312255,38.561544" id="Fill-4"></path>
                <path d="M64.3652941,27.3908255 C64.3538235,27.2498037 64.2270098,27.1611066 64.0906373,27.1974788 C63.3820098,27.3869969 61.3166667,28.0576484 60.000098,29.6950335 C59.9115196,29.804788 59.8235784,29.7850067 59.7910784,29.6478135 C59.3010294,27.6014012 57.7193627,26.1095047 57.1604902,25.6360286 C57.0534314,25.5435029 56.9011275,25.5709415 56.8303922,25.6921821 C56.4435784,26.3621954 55.3621569,28.4813521 55.7470588,30.7032441 C56.1306863,32.9251361 57.8614706,34.555502 58.4522059,35.0564168 C58.5592647,35.1476662 58.7612745,35.19361 58.8976471,35.1585141 C59.6445098,34.9607006 61.9048529,34.2287907 63.2023039,32.3846586 C64.5010294,30.5411647 64.4296569,28.1622981 64.3652941,27.3908255" id="Fill-5"></path>
                <path d="M55.7903922,17.7419946 C55.6648529,18.4419991 55.4163235,20.4845828 56.3766667,22.1908835 C57.3376471,23.8971843 59.2137255,24.7394868 59.8783824,24.9940919 C60.0096569,25.0438643 60.2161275,25.0202544 60.3314706,24.9404909 C60.9171078,24.5352923 62.5370098,23.2680098 63.0614706,21.3798483 C63.5891176,19.4942392 62.8569118,17.5697055 62.5663235,16.9194734 C62.5089706,16.7892994 62.3604902,16.7471843 62.2445098,16.828224 C61.6951961,17.2110888 60.227598,18.358407 59.6196569,20.0685364 C59.5725,20.2006247 59.4832843,20.2121107 59.4055392,20.0934226 C58.407598,18.5804685 56.7080392,17.8179295 56.0822549,17.5773628 C55.9503431,17.5275904 55.8152451,17.6035252 55.7903922,17.7419946" id="Fill-6"></path>
                <path d="M58.0513725,15.6132664 C58.1807353,15.6668675 58.3177451,15.5928469 58.3457843,15.4550156 C58.4751471,14.8105266 58.7236765,13.0372245 57.9232843,11.5236323 C57.1216176,10.0094021 55.5112745,9.21942436 54.9065196,8.9667336 C54.7765196,8.91313253 54.6395098,8.98523873 54.6121078,9.12370817 C54.4821078,9.76692102 54.2323039,11.5440518 55.0365196,13.0557296 C55.837549,14.5712361 57.4459804,15.3599375 58.0513725,15.6132664" id="Fill-7"></path>
                <path d="M28.1953431,49.0750112 C25.6711765,47.3387193 22.422451,47.5269612 21.5028922,47.6233155 C21.3626961,47.637992 21.2747549,47.7649755 21.3123529,47.9021687 C21.5436765,48.7585096 22.4645098,51.6427577 24.7630882,53.4096787 C24.8746078,53.4958233 24.8554902,53.5838822 24.7191176,53.6164257 C21.9043627,54.2960107 19.8944608,56.5542749 19.334951,57.2434315 C19.2463725,57.3519099 19.2737745,57.5050558 19.3961275,57.5758858 C20.1971569,58.0385141 23.0883824,59.532963 26.100049,58.972066 C29.1123529,58.4124453 31.2745588,55.9793396 31.855098,55.2582776 C31.9430392,55.148523 31.9857353,54.9449665 31.9487745,54.8077733 C31.7085294,53.9144221 30.7195098,50.8138554 28.1953431,49.0750112" id="Fill-8"></path>
                <path d="M20.7063235,51.5751183 C20.8006373,50.6938911 20.9720588,47.6941455 19.3757353,45.3497367 C17.7787745,43.0066042 14.9232353,42.0730522 14.0712255,41.8375904 C13.9354902,41.8005801 13.8061275,41.888639 13.7921078,42.0296609 C13.7048039,42.8706872 13.5480392,45.6515618 14.9289706,47.9410933 C15.0022549,48.0604195 14.952549,48.1363543 14.8129902,48.1191254 C12.1639216,47.7688041 9.685,49.0277912 8.9502451,49.4451138 C8.82789216,49.5153057 8.79985294,49.6671754 8.88843137,49.7769299 C9.44539216,50.4660866 11.445098,52.7103124 14.2305392,53.2367515 C17.0121569,53.7612762 19.6892647,52.4014681 20.4558824,51.9605355 C20.577598,51.8903436 20.6910294,51.7148639 20.7063235,51.5751183" id="Fill-9"></path>
                <path d="M11.4865196,44.8686033 C11.6267157,44.8526506 11.7975,44.7352387 11.865049,44.6108077 C12.2690686,43.8693262 13.4734804,41.3800669 12.9547549,38.8180634 C12.4341176,36.2554217 10.3553922,34.4348996 9.69328431,33.9110129 C9.58367647,33.822954 9.4320098,33.8542213 9.36446078,33.9773762 C8.97892157,34.6837617 7.86818627,36.9809505 8.21740196,39.4146943 C8.23715686,39.55444 8.16259804,39.6042124 8.04088235,39.5333824 C5.92009804,38.2980054 3.37808824,38.4677421 2.5802451,38.561544 C2.44068627,38.5774967 2.35529412,38.7057564 2.39416667,38.8416734 C2.63058824,39.6520705 3.53740196,42.2663989 5.71553922,43.7110754 C7.89240196,45.1531995 10.6491667,44.96751 11.4865196,44.8686033" id="Fill-10"></path>
                <path d="M6.5579902,35.0589692 C7.14681373,34.5580544 8.8795098,32.9270504 9.26441176,30.7032441 C9.64867647,28.4813521 8.56789216,26.3621954 8.17980392,25.6921821 C8.10970588,25.5709415 7.95740196,25.5447791 7.84970588,25.6360286 C7.29019608,26.1107809 5.70916667,27.6026774 5.22039216,29.6490897 C5.18789216,29.7862829 5.09931373,29.804788 5.01137255,29.6950335 C3.69289216,28.0563722 1.62691176,27.3869969 0.919558824,27.1974788 C0.783186275,27.1611066 0.657647059,27.2498037 0.645539216,27.3908255 C0.581813725,28.1622981 0.509803922,30.5411647 1.80852941,32.3846586 C3.10661765,34.2287907 5.36632353,34.9607006 6.11318627,35.1597903 C6.24955882,35.1961624 6.45029412,35.1502187 6.5579902,35.0589692" id="Fill-11"></path>
                <path d="M4.67872549,24.9417671 C4.79470588,25.0215306 4.99990196,25.0464168 5.13053922,24.9966444 C5.79519608,24.7407631 7.67254902,23.8984605 8.63416667,22.1908835 C9.59514706,20.4845828 9.34598039,18.4419991 9.22044118,17.7419946 C9.19558824,17.6035252 9.06112745,17.5275904 8.92921569,17.5773628 C8.30470588,17.8166533 6.60387255,18.5804685 5.60465686,20.0934226 C5.52691176,20.2121107 5.43833333,20.2006247 5.39117647,20.0672602 C4.78323529,18.3596832 3.31754902,17.2117269 2.76696078,16.828224 C2.65161765,16.7484605 2.50186275,16.7892994 2.4445098,16.9194734 C2.15392157,17.5697055 1.4229902,19.4942392 1.94936275,21.3798483 C2.47446078,23.2680098 4.09372549,24.5352923 4.67872549,24.9417671" id="Fill-12"></path>
                <path d="M6.96009804,15.6132664 C7.5654902,15.3599375 9.17392157,14.5712361 9.97495098,13.0557296 C10.7791667,11.5440518 10.53,9.76692102 10.3993627,9.12370817 C10.3719608,8.98523873 10.234951,8.91313253 10.1055882,8.9667336 C9.49955882,9.21942436 7.88985294,10.0094021 7.08818627,11.5236323 C6.28779412,13.0372245 6.53568627,14.8105266 6.66504902,15.4550156 C6.69308824,15.5928469 6.82946078,15.6668675 6.96009804,15.6132664" id="Fill-13"></path>
            </g>
            <text id="Premium" font-family="SalesforceSans-Bold, Salesforce Sans" font-size="6" font-weight="bold" fill="#FFFFFF">
                <tspan x="19.261" y="27">Premium</tspan>
            </text>
        </g>
    </g>
</svg>