<?xml version="1.0" encoding="UTF-8" standalone="no"?>
<svg width="65px" height="65px" viewBox="0 0 65 65" version="1.1" xmlns="http://www.w3.org/2000/svg" xmlns:xlink="http://www.w3.org/1999/xlink">
    <!-- Generator: Sketch 3.7.2 (28276) - http://www.bohemiancoding.com/sketch -->
    <title>service-3</title>
    <desc>Created with Sketch.</desc>
    <defs></defs>
    <g id="Page-1" stroke="none" stroke-width="1" fill="none" fill-rule="evenodd">
        <g id="service-3">
            <path d="M32.5014203,0 C14.5520692,0 0,14.5492287 0,32.4985797 C0,50.4479308 14.5520692,64.9971595 32.5014203,64.9971595 C50.4507713,64.9971595 65,50.4479308 65,32.4985797 C65,14.5492287 50.4507713,0 32.5014203,0" id="Fill-1-Copy-3" fill="#00A1E0"></path>
            <g id="icon-elite-club-copy-3" transform="translate(18.000000, 20.000000)" fill="#FFFFFF">
                <path d="M0,7.034625 C0.473203125,6.20751563 1.11867187,5.47509375 2.1234375,5.769 C2.70867188,5.94032813 3.38320313,6.50165625 3.59742188,7.05126563 C3.81351562,7.60626563 3.5109375,8.36376563 3.41882813,9.1805625 C5.06601563,10.1879063 6.86296875,11.2768125 8.6484375,12.3844688 C9.22265625,12.7407188 9.48070312,12.4386094 9.73523437,11.9717344 C11.2272656,9.23446875 12.7300781,6.50329688 14.2228125,3.78220313 C12.9452344,2.43290625 12.8020313,1.31329688 13.7723438,0.470484375 C14.5565625,-0.210609375 15.7066406,-0.13115625 16.3954688,0.65165625 C17.1998437,1.56571875 16.9924219,2.58946875 15.7253906,3.70673438 C17.2549219,6.48782813 18.7785937,9.294 20.3599219,12.067125 C20.4867187,12.2893125 21.1214062,12.4768125 21.3332813,12.3551719 C23.154375,11.3091563 24.9325781,10.1881406 26.7590625,9.0680625 C26.62125,8.76267188 26.5017187,8.5280625 26.4075,8.28360938 C26.0254688,7.29220313 26.3376563,6.489 27.2032031,5.96939063 C28.0415625,5.46642188 28.8583594,5.64454688 29.5232813,6.37251563 C29.7053906,6.57196875 29.8422656,6.81290625 30,7.034625 L30,8.2065 C29.6109375,8.57165625 29.2678125,9.16298438 28.8232031,9.25321875 C27.9773438,9.42478125 27.8357813,9.96642188 27.6494531,10.6175156 C26.7714844,13.6873594 25.8346875,16.7410313 24.9975,19.8218906 C24.7380469,20.7762656 24.32625,21.123375 23.3053125,21.114 C17.6882812,21.0629063 12.0703125,21.0736875 6.45304688,21.1088438 C5.62617187,21.1142344 5.29664063,20.8161094 5.08289063,20.049 C4.194375,16.8610313 3.256875,13.6864219 2.30203125,10.5172031 C2.1815625,10.1168906 1.91320313,9.71470313 1.60640625,9.42759375 C1.11820312,8.97009375 0.54,8.60845313 0,8.2065 L0,7.034625" id="Fill-1"></path>
                <path d="M15.1193672,22.9845234 C17.7349922,22.9845234 20.3508516,22.9798359 22.9664766,22.9866328 C24.2131172,22.9899141 24.8813203,23.4896016 24.8208516,24.4139766 C24.7472578,25.5368672 23.9656172,25.7705391 23.0081953,25.7705391 C17.6595234,25.7700703 12.3110859,25.7829609 6.96264844,25.7810859 C5.80155469,25.7806172 5.17741406,25.2809297 5.16358594,24.3996797 C5.14952344,23.5172578 5.78257031,22.9875703 6.92092969,22.9831172 C9.65374219,22.9721016 12.3865547,22.9796016 15.1193672,22.9796016 L15.1193672,22.9845234" id="Fill-3"></path>
            </g>
        </g>
    </g>
</svg>