<?xml version="1.0" encoding="UTF-8" standalone="no"?>
<svg width="65px" height="65px" viewBox="0 0 65 65" version="1.1" xmlns="http://www.w3.org/2000/svg" xmlns:xlink="http://www.w3.org/1999/xlink">
    <!-- Generator: Sketch 3.7.2 (28276) - http://www.bohemiancoding.com/sketch -->
    <title>service-2</title>
    <desc>Created with Sketch.</desc>
    <defs></defs>
    <g id="Page-1" stroke="none" stroke-width="1" fill="none" fill-rule="evenodd">
        <g id="service-2">
            <g id="Page-1">
                <path d="M34.2268323,2.16756592 L34.2598401,2.29753418 C34.7281384,4.12327881 37.1830945,4.44716797 38.1073132,2.8050293 L38.1733289,2.68743896 C39.2357678,0.803930664 42.1074475,1.57342529 42.0847546,3.73543701 L42.0847546,3.86953125 C42.0641248,5.75510254 44.3499158,6.70201416 45.6681653,5.35488281 L45.7630627,5.25792236 C47.2772961,3.71274414 49.8519055,5.20015869 49.2701428,7.28377686 L49.235072,7.41374512 C48.7275769,9.2291748 50.6915417,10.7351562 52.3130505,9.7758667 L52.4285779,9.70778809 C54.2893933,8.60615234 56.3936414,10.7104004 55.2920056,12.5712158 L55.223927,12.6867432 C54.2646375,14.308252 55.7706189,16.2722168 57.5860486,15.7647217 L57.7160168,15.7296509 C59.799635,15.1478882 61.2870496,17.7245605 59.7418713,19.236731 L59.6449109,19.3316284 C58.2998425,20.6498779 59.2467542,22.9356689 61.1302625,22.9150391 L61.2643567,22.9150391 C63.4263684,22.8923462 64.197926,25.7660889 62.3123547,26.8264648 L62.1947644,26.8924805 C60.5546887,27.8166992 60.8765149,30.2716553 62.7022595,30.7399536 L62.8322278,30.7729614 C64.9282239,31.3114014 64.9282239,34.2862305 62.8322278,34.8226074 L62.7022595,34.8576782 C60.8765149,35.3259766 60.5546887,37.7788696 62.1947644,38.7030884 L62.3123547,38.769104 C64.197926,39.831543 63.4263684,42.7052856 61.2643567,42.6825928 L61.1302625,42.6805298 C59.2467542,42.6598999 58.2998425,44.9477539 59.6449109,46.2660034 L59.7418713,46.3588379 C61.2870496,47.8730713 59.799635,50.4497437 57.7160168,49.867981 L57.5860486,49.8308472 C55.7706189,49.3233521 54.2646375,51.2873169 55.223927,52.9088257 L55.2920056,53.026416 C56.3936414,54.8872314 54.2893933,56.9914795 52.4285779,55.8898437 L52.3130505,55.8217651 C50.6915417,54.8624756 48.7275769,56.368457 49.235072,58.1818237 L49.2701428,58.311792 C49.8519055,60.3954102 47.2772961,61.8828247 45.7630627,60.3376465 L45.6681653,60.240686 C44.3499158,58.8956177 42.0641248,59.8425293 42.0847546,61.7260376 L42.0847546,61.8601318 C42.1074475,64.0242065 39.2357678,64.7937012 38.1733289,62.9101929 L38.1073132,62.7926025 C37.1830945,61.1504639 34.7281384,61.47229 34.2598401,63.2980347 L34.2268323,63.4280029 C33.6883923,65.523999 30.7135632,65.523999 30.1771863,63.4280029 L30.1421155,63.2980347 C29.6738171,61.47229 27.2209241,61.1504639 26.2967053,62.7926025 L26.2306897,62.9101929 C25.1682507,64.7937012 22.2945081,64.0242065 22.3172009,61.8601318 L22.3192639,61.7260376 C22.3398938,59.8425293 20.0520398,58.8956177 18.7337903,60.240686 L18.6409558,60.3376465 C17.1267224,61.8828247 14.55005,60.3954102 15.1318127,58.311792 L15.1689465,58.1818237 C15.6764417,56.368457 13.7124768,54.8624756 12.090968,55.8217651 L11.9754407,55.8898437 C10.1125623,56.9914795 8.0103772,54.8872314 9.10994995,53.026416 L9.18009155,52.9088257 C10.1393811,51.2873169 8.63133667,49.3233521 6.81796997,49.8308472 L6.68800171,49.867981 C4.60438354,50.4497437 3.11696899,47.8730713 4.66214722,46.3588379 L4.75910767,46.2660034 C6.10417603,44.9477539 5.1572644,42.6598999 3.2737561,42.6805298 L3.13966187,42.6825928 C0.975587158,42.7052856 0.206092529,39.831543 2.09166382,38.769104 L2.20719116,38.7030884 C3.84932983,37.7788696 3.52750366,35.3259766 1.70175903,34.8576782 L1.57179077,34.8226074 C-0.524205322,34.2862305 -0.524205322,31.3114014 1.57179077,30.7729614 L1.70175903,30.7399536 C3.52750366,30.2716553 3.84932983,27.8166992 2.20719116,26.8924805 L2.09166382,26.8264648 C0.206092529,25.7660889 0.975587158,22.8923462 3.13966187,22.9150391 L3.2737561,22.9150391 C5.1572644,22.9356689 6.10417603,20.6498779 4.75910767,19.3316284 L4.66214722,19.236731 C3.11696899,17.7245605 4.60438354,15.1478882 6.68800171,15.7296509 L6.81796997,15.7647217 C8.63133667,16.2722168 10.1393811,14.308252 9.18009155,12.6867432 L9.10994995,12.5712158 C8.0103772,10.7104004 10.1125623,8.60615234 11.9754407,9.70778809 L12.090968,9.7758667 C13.7124768,10.7351562 15.6764417,9.2291748 15.1689465,7.41374512 L15.1318127,7.28377686 C14.55005,5.20015869 17.1267224,3.71274414 18.6409558,5.25792236 L18.7337903,5.35488281 C20.0520398,6.70201416 22.3398938,5.75510254 22.3192639,3.86953125 L22.3172009,3.73543701 C22.2945081,1.57342529 25.1682507,0.803930664 26.2306897,2.68743896 L26.2967053,2.8050293 C27.2209241,4.44716797 29.6738171,4.12327881 30.1421155,2.29753418 L30.1771863,2.16756592 C30.7135632,0.0736328125 33.6883923,0.0736328125 34.2268323,2.16756592" id="Fill-1" fill="#00A1E0"></path>
                <path d="M51.7587256,32.798197 C51.7587256,43.6000037 43.0034033,52.3553259 32.2015967,52.3553259 C21.39979,52.3553259 12.6444678,43.6000037 12.6444678,32.798197 C12.6444678,21.9963904 21.39979,13.2410681 32.2015967,13.2410681 C43.0034033,13.2410681 51.7587256,21.9963904 51.7587256,32.798197" id="Fill-4" fill="#FFFFFF"></path>
                <path d="M32.201803,10.5086401 C19.9125818,10.5086401 9.91327759,20.5079443 9.91327759,32.7992285 C9.91327759,45.0884497 19.9125818,55.0877539 32.201803,55.0877539 C44.4910242,55.0877539 54.4903284,45.0884497 54.4903284,32.7992285 C54.4903284,20.5079443 44.4910242,10.5086401 32.201803,10.5086401 M32.201803,57.1197974 C18.7882532,57.1197974 7.87917114,46.2107153 7.87917114,32.7992285 C7.87917114,19.3877417 18.7882532,8.47453369 32.201803,8.47453369 C45.6112268,8.47453369 56.5223718,19.3877417 56.5223718,32.7992285 C56.5223718,46.2107153 45.6112268,57.1197974 32.201803,57.1197974" id="Fill-6" fill="#FFFFFF"></path>
            </g>
            <text id="10+" font-family="SalesforceSans-Bold, Salesforce Sans" font-size="16" font-weight="bold" fill="#00A1E0">
                <tspan x="17.36" y="38">10+</tspan>
            </text>
        </g>
    </g>
</svg>