<?xml version="1.0" encoding="UTF-8" standalone="no"?>
<svg width="65px" height="65px" viewBox="0 0 65 65" version="1.1" xmlns="http://www.w3.org/2000/svg" xmlns:xlink="http://www.w3.org/1999/xlink">
    <!-- Generator: Sketch 3.7.2 (28276) - http://www.bohemiancoding.com/sketch -->
    <title>stage-1</title>
    <desc>Created with Sketch.</desc>
    <defs></defs>
    <g id="Page-1" stroke="none" stroke-width="1" fill="none" fill-rule="evenodd">
        <g id="stage-1">
            <path d="M32.5014203,0 C14.5520692,0 0,14.5492287 0,32.4985797 C0,50.4479308 14.5520692,64.9971595 32.5014203,64.9971595 C50.4507713,64.9971595 65,50.4479308 65,32.4985797 C65,14.5492287 50.4507713,0 32.5014203,0" id="Fill-1" fill="#00A1E0"></path>
            <g id="icon-activated" transform="translate(20.000000, 20.000000)" fill="#FFFFFF">
                <path d="M3.53653061,22.4903714 C2.93481633,22.4903714 2.44877551,22.0038 2.44877551,21.4020857 L2.44877551,3.72102449 C2.44877551,3.1193102 2.93481633,2.63273878 3.53653061,2.63273878 L16.3226939,2.63273878 C16.9233469,2.63273878 17.4109796,3.1193102 17.4109796,3.72102449 L17.4109796,9.67396327 C18.190449,8.48751429 19.0150204,7.35465714 19.8586939,6.33057551 L19.8586939,3.72102449 C19.8586939,1.77102449 18.2721633,0.184493878 16.3226939,0.184493878 L3.53653061,0.184493878 C1.58653061,0.184493878 0,1.77102449 0,3.72102449 L0,21.4020857 C0,23.3526163 1.58653061,24.9386163 3.53653061,24.9386163 L13.8664898,24.9386163 L11.3986122,22.4903714 L3.53653061,22.4903714 Z M25.9867347,13.043351 L25.9803673,7.00020816 C25.9724082,6.84845306 25.8816735,6.72641224 25.7490204,6.66645306 C25.6922449,6.64045306 25.6365306,6.62718776 25.5802857,6.62718776 C25.5012245,6.62718776 25.4179184,6.65584082 25.3484082,6.70784082 C24.466,7.38118776 23.2153469,8.50873878 22.3419592,9.48612653 C20.9904898,10.9824531 19.6857143,12.7483306 18.5528571,14.5624939 C17.706,15.9113102 16.9535918,17.2824122 16.344449,18.5893102 L16.022898,19.283351 L13.8134286,14.5216367 C13.7529388,14.4277184 13.6584898,14.3714735 13.5534286,14.3518408 C13.529551,14.3465347 13.5088571,14.343351 13.487102,14.343351 C13.3926531,14.3465347 13.3056327,14.3773102 13.2355918,14.4335551 L9.43057143,17.5944122 C9.34036735,17.6639224 9.29102041,17.7695143 9.28677551,17.8825347 L9.28677551,17.8968612 C9.28677551,18.009351 9.32497959,18.1075143 9.41253061,18.1860449 L16.1072653,24.8271878 C16.1804898,24.899351 16.2781224,24.9386163 16.3768163,24.9386163 C16.3969796,24.9386163 16.4219184,24.934902 16.4473878,24.9317184 C16.5752653,24.9094327 16.6819184,24.8271878 16.7339184,24.7120449 C17.6571837,22.7975959 19.1529796,20.590249 20.8212245,18.5521673 C22.5117551,16.4939224 24.2404898,14.7121265 25.8365714,13.4407796 C25.9326122,13.3670245 25.9846122,13.2566571 25.9846122,13.1287796 C25.9867347,13.1287796 25.9803673,13.1059633 25.9867347,13.043351 L25.9867347,13.043351 Z" id="Fill-1"></path>
            </g>
        </g>
    </g>
</svg>