<?xml version="1.0" encoding="UTF-8" standalone="no"?>
<svg width="65px" height="65px" viewBox="0 0 65 65" version="1.1" xmlns="http://www.w3.org/2000/svg" xmlns:xlink="http://www.w3.org/1999/xlink">
    <!-- Generator: Sketch 3.7.2 (28276) - http://www.bohemiancoding.com/sketch -->
    <title>stage-2</title>
    <desc>Created with Sketch.</desc>
    <defs></defs>
    <g id="Page-1" stroke="none" stroke-width="1" fill="none" fill-rule="evenodd">
        <g id="stage-2">
            <path d="M32.5014203,0 C14.5520692,0 0,14.5492287 0,32.4985797 C0,50.4479308 14.5520692,64.9971595 32.5014203,64.9971595 C50.4507713,64.9971595 65,50.4479308 65,32.4985797 C65,14.5492287 50.4507713,0 32.5014203,0" id="Fill-1-Copy-4" fill="#00A1E0"></path>
            <g id="icon-in-progress" transform="translate(14.000000, 23.000000)" fill="#FFFFFF">
                <path d="M29.823,18.2333125 C28.94675,18.2333125 28.234875,17.5226875 28.234875,16.6439375 C28.234875,15.7664375 28.94675,15.0583125 29.823,15.0583125 C30.69925,15.0583125 31.411125,15.7664375 31.411125,16.6439375 C31.411125,17.5226875 30.69925,18.2333125 29.823,18.2333125 L29.823,18.2333125 Z M29.8205,13.2895625 C27.969875,13.2895625 26.46675,14.7945625 26.46675,16.6464375 C26.46675,18.4995625 27.969875,20.0001875 29.8205,20.0001875 C31.674875,20.0001875 33.17675,18.4995625 33.17675,16.6464375 C33.17675,14.7945625 31.674875,13.2895625 29.8205,13.2895625 L29.8205,13.2895625 Z M13.088625,7.2801875 L8.487375,7.2801875 L9.272375,5.3570625 C9.368625,5.1245625 9.597375,4.9726875 9.848625,4.9726875 L13.088625,4.9726875 L13.088625,7.2801875 Z M36.47425,0.4389375 C36.22175,0.1864375 35.87175,0.0414375 35.514875,0.0414375 L15.56425,0.0414375 C15.206125,0.0414375 14.858625,0.1864375 14.60425,0.4389375 C14.35175,0.6908125 14.208,1.0420625 14.208,1.3970625 L14.208,3.6470625 L9.51925,3.6470625 C8.92675,3.6470625 8.391125,4.0026875 8.163,4.5451875 L6.974875,7.3639375 L1.043625,9.4320625 C0.408625,9.6839375 -0.000125,10.1914375 -0.000125,10.8408125 L-0.000125,15.3439375 C-0.000125,15.7326875 0.157375,16.1101875 0.431125,16.3870625 C0.7055,16.6595625 1.083625,16.8158125 1.472375,16.8158125 L2.244875,16.8158125 C2.243625,16.7583125 2.236125,16.7020625 2.236125,16.6445625 C2.236125,14.0476875 4.34175,11.9426875 6.938625,11.9426875 C9.534875,11.9426875 11.6405,14.0476875 11.6405,16.6445625 C11.6405,16.7020625 11.63425,16.7583125 11.632375,16.8158125 L17.1205,16.8158125 C17.118,16.7583125 17.11175,16.7020625 17.11175,16.6445625 C17.11175,14.0476875 19.217375,11.9426875 21.81425,11.9426875 C23.508,11.9426875 24.9905,12.8426875 25.818,14.1876875 C26.6455,12.8426875 28.126125,11.9426875 29.82175,11.9426875 C32.418,11.9426875 34.523625,14.0476875 34.523625,16.6445625 C34.523625,16.7020625 34.518,16.7583125 34.5155,16.8158125 L36.872375,16.8158125 L36.872375,1.3970625 C36.872375,1.0420625 36.726125,0.6908125 36.47425,0.4389375 L36.47425,0.4389375 Z M21.814875,18.2333125 C20.938625,18.2333125 20.22675,17.5226875 20.22675,16.6439375 C20.22675,15.7664375 20.938625,15.0583125 21.814875,15.0583125 C22.693,15.0583125 23.402375,15.7664375 23.402375,16.6439375 C23.402375,17.5226875 22.693,18.2333125 21.814875,18.2333125 L21.814875,18.2333125 Z M21.81425,13.2895625 C19.962375,13.2895625 18.457375,14.7945625 18.457375,16.6464375 C18.457375,18.4995625 19.962375,20.0001875 21.81425,20.0001875 C23.6655,20.0001875 25.1705,18.4995625 25.1705,16.6464375 C25.1705,14.7945625 23.6655,13.2895625 21.81425,13.2895625 L21.81425,13.2895625 Z M6.939875,18.2333125 C6.063,18.2333125 5.35175,17.5226875 5.35175,16.6439375 C5.35175,15.7664375 6.063,15.0583125 6.939875,15.0583125 C7.818625,15.0583125 8.52675,15.7664375 8.52675,16.6439375 C8.52675,17.5226875 7.818625,18.2333125 6.939875,18.2333125 L6.939875,18.2333125 Z M6.939875,13.2895625 C5.0855,13.2895625 3.582375,14.7945625 3.582375,16.6464375 C3.582375,18.4995625 5.0855,20.0001875 6.939875,20.0001875 C8.79175,20.0001875 10.29425,18.4995625 10.29425,16.6464375 C10.29425,14.7945625 8.79175,13.2895625 6.939875,13.2895625 L6.939875,13.2895625 Z" id="Fill-1"></path>
            </g>
        </g>
    </g>
</svg>