<?xml version="1.0" encoding="UTF-8" standalone="no"?>
<svg width="65px" height="65px" viewBox="0 0 65 65" version="1.1" xmlns="http://www.w3.org/2000/svg" xmlns:xlink="http://www.w3.org/1999/xlink">
    <!-- Generator: Sketch 3.7.2 (28276) - http://www.bohemiancoding.com/sketch -->
    <title>stage-3</title>
    <desc>Created with Sketch.</desc>
    <defs></defs>
    <g id="Page-1" stroke="none" stroke-width="1" fill="none" fill-rule="evenodd">
        <g id="stage-3">
            <path d="M32.5014203,0 C14.5520692,0 0,14.5492287 0,32.4985797 C0,50.4479308 14.5520692,64.9971595 32.5014203,64.9971595 C50.4507713,64.9971595 65,50.4479308 65,32.4985797 C65,14.5492287 50.4507713,0 32.5014203,0" id="Fill-1" fill="#00A1E0"></path>
            <g id="icon-delivered" transform="translate(19.000000, 17.000000)" fill="#FFFFFF">
                <path d="M23.5247755,21.5732449 L13.9547755,27.0981429 L13.9547755,15.5438571 L17.380898,13.5712041 L17.380898,19.4414082 L20.5223265,17.6273265 L20.5223265,11.7620204 L23.5247755,10.0336531 L23.5247755,21.5732449 Z M12.8233469,13.9416122 L3.0782449,8.30161224 L6.816,6.14406122 L16.6168163,11.755898 L12.8233469,13.9416122 Z M11.6876327,27.0136531 L2.26579592,21.5732449 L2.26579592,10.0875306 L11.6876327,15.5414082 L11.6876327,27.0136531 Z M12.8955918,2.63344898 L22.6627347,8.27344898 L19.7625306,9.94365306 L9.95865306,4.3287551 L12.8955918,2.63344898 Z M24.7351837,6.85242857 L13.9498776,0.627122449 C13.3113061,0.256714286 12.4780408,0.257326531 11.8394694,0.626510204 L1.05477551,6.85242857 C0.403959184,7.22895918 -0.00012244898,7.92936735 -0.00012244898,8.67997959 L-0.00012244898,21.6638571 C-0.00012244898,22.4150816 0.403959184,23.1154898 1.05477551,23.4914082 L11.8394694,29.718551 C12.1602857,29.9028367 12.5245714,30.0001837 12.8955918,30.0001837 C13.2647755,30.0001837 13.6296735,29.9028367 13.9498776,29.718551 L24.7351837,23.4914082 C25.3866122,23.1154898 25.7906939,22.4150816 25.7906939,21.6638571 L25.7906939,8.67997959 C25.7906939,7.92936735 25.3866122,7.22895918 24.7351837,6.85242857 L24.7351837,6.85242857 Z" id="Fill-1"></path>
            </g>
        </g>
    </g>
</svg>