<?xml version="1.0" encoding="UTF-8" standalone="no"?>
<svg width="65px" height="65px" viewBox="0 0 65 65" version="1.1" xmlns="http://www.w3.org/2000/svg" xmlns:xlink="http://www.w3.org/1999/xlink">
    <!-- Generator: Sketch 3.7.2 (28276) - http://www.bohemiancoding.com/sketch -->
    <title>tokens</title>
    <desc>Created with Sketch.</desc>
    <defs></defs>
    <g id="Page-1" stroke="none" stroke-width="1" fill="none" fill-rule="evenodd">
        <g id="tokens" fill="#00A1E0">
            <g id="Page-1">
                <path d="M54.1268,52.706 L47.1263,48.664 C47.3948,48.421 47.6578,48.1705 47.9143,47.914 C50.8263,45.004 52.9198,41.2655 53.8153,37.0865 L60.8193,41.13 C59.4888,45.504 57.1723,49.447 54.1268,52.706 L54.1268,52.706 Z M32.4998,51.3965 C27.2768,51.396 22.5623,49.2835 19.1383,45.862 C15.7158,42.4375 13.6038,37.723 13.6033,32.5 C13.6038,27.277 15.7158,22.562 19.1383,19.138 C22.5623,15.716 27.2768,13.604 32.4998,13.603 C37.7228,13.604 42.4378,15.716 45.8618,19.138 C49.2838,22.562 51.3958,27.277 51.3968,32.5 C51.3958,37.723 49.2838,42.4375 45.8618,45.862 C42.4378,49.2835 37.7228,51.396 32.4998,51.3965 L32.4998,51.3965 Z M39.1858,61.3395 C37.0378,61.8355 34.7998,62.097 32.4998,62.0975 C30.1998,62.097 27.9623,61.8355 25.8143,61.3395 L25.8143,53.2535 C27.9218,53.9325 30.1693,54.2995 32.4998,54.299 L32.5028,54.299 C34.8328,54.299 37.0788,53.932 39.1858,53.2535 L39.1858,61.3395 Z M10.8733,52.706 C7.8278,49.447 5.5113,45.504 4.1803,41.13 L11.1848,37.0865 C12.0803,41.2655 14.1738,45.004 17.0858,47.914 C17.3423,48.1705 17.6053,48.4205 17.8738,48.664 L10.8733,52.706 Z M10.8733,12.2935 L17.8738,16.3355 C17.6048,16.579 17.3423,16.829 17.0858,17.0855 C14.1738,19.9955 12.0803,23.7345 11.1848,27.9135 L4.1803,23.8695 C5.5113,19.496 7.8278,15.553 10.8733,12.2935 L10.8733,12.2935 Z M25.8143,3.66 C27.9623,3.1645 30.1998,2.9025 32.4998,2.9025 C34.7998,2.9025 37.0378,3.1645 39.1858,3.66 L39.1858,11.746 C37.0778,11.0675 34.8308,10.7005 32.4998,10.7005 C30.1693,10.7005 27.9218,11.0675 25.8143,11.746 L25.8143,3.66 Z M54.1268,12.2935 C57.1723,15.553 59.4888,19.496 60.8193,23.8695 L53.8153,27.9135 C52.9198,23.7345 50.8263,19.9955 47.9143,17.0855 C47.6578,16.829 47.3953,16.579 47.1263,16.3355 L54.1268,12.2935 Z M55.4808,9.519 C49.6043,3.64 41.4698,-0.001 32.4998,-1.70530257e-13 C23.5298,-0.001 15.3958,3.64 9.5188,9.519 C3.6403,15.3955 -0.0007,23.53 -0.0002,32.4995 C-0.0007,41.47 3.6403,49.604 9.5188,55.4805 C15.3958,61.36 23.5298,65.0005 32.4998,65 L32.5018,65 C41.4713,65 49.6043,61.3595 55.4808,55.4805 C61.3598,49.604 65.0003,41.47 64.9998,32.4995 C65.0003,23.53 61.3598,15.3955 55.4808,9.519 L55.4808,9.519 Z" id="Fill-1"></path>
            </g>
        </g>
    </g>
</svg>