<?xml version="1.0" encoding="UTF-8"?>
<svg width="200px" height="153px" viewBox="0 0 200 153" version="1.1" xmlns="http://www.w3.org/2000/svg" xmlns:xlink="http://www.w3.org/1999/xlink">
    <!-- Generator: Sketch 51.1 (57501) - http://www.bohemiancoding.com/sketch -->
    <title>resources</title>
    <desc>Created with Sketch.</desc>
    <defs>
        <rect id="path-1" x="0" y="0.484177215" width="200" height="123.572184" rx="3.85542169"></rect>
    </defs>
    <g id="Page-1" stroke="none" stroke-width="1" fill="none" fill-rule="evenodd">
        <g id="resources">
            <g id="stand" transform="translate(69.600000, 124.022980)">
                <path d="M60.5550009,26.9006745 L60.5550009,27.6708252 C60.6197836,28.0361668 60.0561655,28.6119331 55.8060158,28.6119314 C51.4233897,28.6119302 37.9340347,28.6119307 30.3327191,28.6119311 C22.7314033,28.6119307 9.24204929,28.6119302 4.85942336,28.6119314 C0.609273575,28.6119331 0.0456555573,28.0361668 0.11583018,27.6708252 L0.110438192,26.9006745 L0.86367364,27.2364684 L59.8017655,27.2364684 L60.5550009,26.9006745 Z" id="standShadow" opacity="0.5"></path>
                <path d="M60.5550009,26.5648805 L60.5550009,27.3350312 C60.6197836,27.7003728 60.0561655,28.2761391 55.8060158,28.2761375 C51.4233897,28.2761362 37.9340347,28.2761367 30.3327191,28.2761371 C22.7314033,28.2761367 9.24204929,28.2761362 4.85942336,28.2761375 C0.609273575,28.2761391 0.0456555573,27.7003728 0.11583018,27.3350312 L0.110438192,26.5648805 L0.86367364,26.9006745 L59.8017655,26.9006745 L60.5550009,26.5648805 Z" id="standBottom" fill="#C6C7CA" fill-rule="nonzero"></path>
                <g id="path-1-link" fill="#D8D8D8" fill-rule="nonzero">
                    <path d="M52.9190042,23.3278608 C53.9720907,24.9765387 60.3521643,26.2707765 60.3521643,26.2707765 C60.3521643,26.2707765 62.0359611,27.5059892 55.8103036,27.5059867 C51.4273401,27.5059855 37.9369467,27.505986 30.3350458,27.5059864 C22.7331448,27.505986 9.24275231,27.5059855 4.85978897,27.5059867 C-1.36586847,27.5059892 0.317928299,26.2707765 0.317928299,26.2707765 C0.317928299,26.2707765 6.69800195,24.9765387 7.75108841,23.3278608 C8.80417486,21.6791828 10.6365356,0.0691194334 10.6365356,0.0691194334 L50.0335571,0.0691194334 C50.0335571,0.0691194334 51.8659178,21.6791828 52.9190042,23.3278608 Z" id="path-1"></path>
                </g>
            </g>
            <g id="screen" transform="translate(0.000000, 0.484177)">
                <g id="outer" fill-rule="nonzero">
                    <g id="path-3-link" fill="#9B9B9B" fill-opacity="0.300158514">
                        <rect id="path-3" x="0" y="0.484177215" width="200" height="123.572184" rx="3.85542169"></rect>
                    </g>
                    <g id="path-3-link" fill="#E1E1E1">
                        <rect id="path-3" x="0" y="0.484177215" width="200" height="123.572184" rx="3.85542169"></rect>
                    </g>
                </g>
                <g id="Today@2x-Clipped">
                    <mask id="mask-2" fill="white">
                        <use xlink:href="#path-1"></use>
                    </mask>
                    <g id="path-3"></g>
                    <g id="Today@2x" mask="url(#mask-2)">
                        <g transform="translate(6.000000, 9.000000)" id="Mask">
                            <g transform="translate(0.746988, 0.199367)">
                                <rect id="Rectangle-path" fill="#FFFFFF" fill-rule="nonzero" x="0" y="0" width="186.535516" height="104.245617"></rect>
                            </g>
                        </g>
                    </g>
                </g>
            </g>
            <rect id="Rectangle-3420-Copy-7" fill="#54698D" fill-rule="nonzero" x="9" y="12.1999969" width="47.5625827" height="98.6000061"></rect>
            <rect id="Rectangle-3420-Copy-9" fill="#54698D" fill-rule="nonzero" x="59.25" y="12.1999969" width="131.75" height="98.6000061"></rect>
        </g>
    </g>
</svg>