<?xml version="1.0" encoding="iso-8859-1"?>
<!-- Generator: Adobe Illustrator 16.0.0, SVG Export Plug-In . SVG Version: 6.00 Build 0)  -->
<!DOCTYPE svg PUBLIC "-//W3C//DTD SVG 1.1//EN" "http://www.w3.org/Graphics/SVG/1.1/DTD/svg11.dtd">
<svg version="1.1" xmlns="http://www.w3.org/2000/svg" xmlns:xlink="http://www.w3.org/1999/xlink" x="0px" y="0px" width="120px"
	 height="120px" viewBox="0 0 120 120" style="enable-background:new 0 0 120 120;" xml:space="preserve">
<filter  y="8" x="-7" filterUnits="userSpaceOnUse" id="f1">
	<feOffset  in="SourceGraphic" result="offOut" dx="0" dy="3"></feOffset>
	<feGaussianBlur  stdDeviation="2" in="offOut" result="blurOut"></feGaussianBlur>
	<feBlend  mode="normal" in2="blurOut" in="SourceGraphic"></feBlend>
</filter>
<g id="_x2D_background" style="display:none;">
	<rect x="-326" y="-353" style="display:inline;fill:#2C3E4F;" width="1400" height="2680"/>
	<rect x="-296" y="-322.312" style="display:inline;fill:#344A5F;" width="1340" height="759.076"/>
</g>
<g id="Empty" style="enable-background:new    ;">
</g>
<g id="Thanks_-_loading" style="enable-background:new    ;">
</g>
<g id="Group_-_loading" style="enable-background:new    ;">
</g>
<g id="Avatar_-_loading" style="enable-background:new    ;">
</g>
<g id="People" style="enable-background:new    ;">
</g>
<g id="Groups" style="enable-background:new    ;">
</g>
<g id="Avatar" style="enable-background:new    ;">
</g>
<g id="Feed" style="enable-background:new    ;">
</g>
<g id="Today" style="enable-background:new    ;">
</g>
<g id="Apps" style="enable-background:new    ;">
</g>
<g id="Related_List" style="enable-background:new    ;">
</g>
<g id="Chatterbox" style="enable-background:new    ;">
</g>
<g id="Dropbox" style="enable-background:new    ;">
</g>
<g id="Concur" style="enable-background:new    ;">
</g>
<g id="Evernote" style="enable-background:new    ;">
</g>
<g id="Photo" style="enable-background:new    ;">
</g>
<g id="Log_a_Call" style="enable-background:new    ;">
</g>
<g id="Change_Status" style="enable-background:new    ;">
</g>
<g id="Email_and_Note" style="enable-background:new    ;">
</g>
<g id="Share" style="enable-background:new    ;">
</g>
<g id="Link">
</g>
<g id="Thanks" style="enable-background:new    ;">
</g>
<g id="Poll" style="enable-background:new    ;">
</g>
<g id="File" style="enable-background:new    ;">
	<g id="shape_copy_46_" style="enable-background:new    ;">
	</g>
</g>
<g id="Post" style="enable-background:new    ;">
</g>
<g id="Custom__x28_bbq_x29_" style="display:none;">
</g>
<g id="Custom">
</g>
<g id="Default">
</g>
<g id="Record" style="enable-background:new    ;">
</g>
<g id="Dashboard" style="enable-background:new    ;">
</g>
<g id="Contract" style="enable-background:new    ;">
</g>
<g id="Portal" style="enable-background:new    ;">
</g>
<g id="Contact" style="enable-background:new    ;">
	<g>
		<g id="shape_copy_26_">
			<g>
				<linearGradient id="SVGID_1_" gradientUnits="userSpaceOnUse" x1="60" y1="120" x2="60" y2="0">
					<stop  offset="0" style="stop-color:#7A70C4"/>
					<stop  offset="1" style="stop-color:#988CD3"/>
				</linearGradient>
				<path style="fill-rule:evenodd;clip-rule:evenodd;fill:url(#SVGID_1_);" d="M108,0H12C5.373,0,0,5.373,0,12v96
					c0,6.628,5.373,12,12,12h96c6.627,0,12-5.372,12-12V12C120,5.373,114.627,0,108,0z"/>
			</g>
		</g>
		<g style="opacity:0.2;filter:url(#f1);">
			<path d="M70.865,87.022c-4.039,0.482-10.369,0.964-19.713,0.964c-18.748,0-25.379-1.929-25.621-1.989
				c-0.964-0.302-1.567-1.266-1.326-2.291c1.206-5.666,4.341-8.68,8.621-11.393c1.145-0.724,2.652-1.326,4.279-1.989
				c2.894-1.146,6.209-2.472,6.933-4.702c0.482-1.447-0.121-3.437-1.748-5.968c-5.064-8.078-5.968-15.071-2.713-20.677
				c2.532-4.34,6.872-6.933,11.574-6.933c4.762,0,9.042,2.592,11.574,6.933c3.255,5.606,2.351,12.599-2.652,20.677
				c-1.628,2.532-2.231,4.521-1.809,5.968c0.724,2.23,4.039,3.556,6.993,4.702c1.567,0.663,3.014,1.266,4.219,1.989
				c4.28,2.713,7.415,5.727,8.621,11.393c0.241,1.025-0.362,1.989-1.326,2.291C76.652,85.998,74.904,86.54,70.865,87.022z"/>
		</g>
		<g>
			<linearGradient id="SVGID_2_" gradientUnits="userSpaceOnUse" x1="51.1519" y1="88.9854" x2="51.1519" y2="29.0454">
				<stop  offset="0" style="stop-color:#E2E1EC"/>
				<stop  offset="1" style="stop-color:#F4F3FE"/>
			</linearGradient>
			<path style="fill:url(#SVGID_2_);" d="M72.273,87.952c-4.328,0.517-11.109,1.033-21.121,1.033
				c-20.087,0-27.192-2.067-27.451-2.131c-1.033-0.323-1.679-1.356-1.421-2.455c1.292-6.071,4.651-9.301,9.237-12.208
				c1.227-0.775,2.842-1.421,4.585-2.131c3.101-1.228,6.653-2.648,7.428-5.038c0.517-1.55-0.129-3.682-1.873-6.395
				c-5.426-8.655-6.395-16.147-2.907-22.155c2.713-4.65,7.363-7.428,12.401-7.428c5.103,0,9.688,2.777,12.401,7.428
				c3.488,6.007,2.519,13.5-2.842,22.155c-1.744,2.713-2.39,4.844-1.938,6.395c0.775,2.39,4.328,3.811,7.493,5.038
				c1.679,0.71,3.229,1.356,4.521,2.131c4.586,2.907,7.945,6.136,9.237,12.208c0.258,1.098-0.388,2.131-1.421,2.455
				C78.474,86.854,76.601,87.435,72.273,87.952z"/>
		</g>
		<g id="Rectangle_7_copy_14">
			<g>
				<linearGradient id="SVGID_3_" gradientUnits="userSpaceOnUse" x1="86.5" y1="63" x2="86.5" y2="55">
					<stop  offset="0" style="stop-color:#E2E1EC"/>
					<stop  offset="1" style="stop-color:#F4F3FE"/>
				</linearGradient>
				<rect x="75" y="55" style="fill-rule:evenodd;clip-rule:evenodd;fill:url(#SVGID_3_);" width="23" height="8"/>
			</g>
		</g>
		<g id="Rectangle_7_copy_13">
			<g>
				<linearGradient id="SVGID_4_" gradientUnits="userSpaceOnUse" x1="86.5" y1="50" x2="86.5" y2="42">
					<stop  offset="0" style="stop-color:#E2E1EC"/>
					<stop  offset="1" style="stop-color:#F4F3FE"/>
				</linearGradient>
				<rect x="75" y="42" style="fill-rule:evenodd;clip-rule:evenodd;fill:url(#SVGID_4_);" width="23" height="8"/>
			</g>
		</g>
	</g>
</g>
<g id="Case" style="enable-background:new    ;">
</g>
<g id="Account" style="enable-background:new    ;">
</g>
<g id="Opportunity" style="enable-background:new    ;">
</g>
<g id="Task" style="enable-background:new    ;">
</g>
<g id="Event">
</g>
<g id="Campaign" style="enable-background:new    ;">
</g>
<g id="Lead" style="enable-background:new    ;">
</g>
<g id="_x2D_content">
	<g>
	</g>
</g>
<g id="_x2D_nyt_x5F_exporter_x5F_info" style="display:none;">
</g>
<g id="nyt_x5F_exporter_x5F_info" style="display:none;">
</g>
</svg>
