<?xml version="1.0" encoding="utf-8"?> <!-- Generator: IcoMoon.io --> <!DOCTYPE svg PUBLIC "-//W3C//DTD SVG 1.1//EN" "http://www.w3.org/Graphics/SVG/1.1/DTD/svg11.dtd"> <svg version="1.1" xmlns="http://www.w3.org/2000/svg" xmlns:xlink="http://www.w3.org/1999/xlink" x="0px" y="0px" width="64px" height="64px" viewBox="0 0 64 64" xml:space="preserve" fill="#44596c"> <path d="M58.332,27.2c-0.133-1.466-1.333-2.6-2.799-2.6H39.399V8.534c0-1.533-1.134-2.733-2.533-2.866 c-3.267-0.334-6.6-0.334-9.867,0c-1.4,0.133-2.533,1.333-2.533,2.866v16.066H8.4c-1.533,0-2.733,1.134-2.867,2.6 c-0.333,3.267-0.333,6.533,0,9.8c0.133,1.467,1.333,2.533,2.867,2.533h16.066v16.134c0,1.467,1.133,2.666,2.533,2.8 c3.267,0.333,6.6,0.333,9.867,0c1.399-0.134,2.533-1.333,2.533-2.8V39.533h16.134c1.466,0,2.666-1.066,2.799-2.533 C58.666,33.733,58.666,30.467,58.332,27.2z" ></path> </svg>