<?xml version="1.0" encoding="utf-8"?> <!-- Generator: IcoMoon.io --> <!DOCTYPE svg PUBLIC "-//W3C//DTD SVG 1.1//EN" "http://www.w3.org/Graphics/SVG/1.1/DTD/svg11.dtd"> <svg version="1.1" xmlns="http://www.w3.org/2000/svg" xmlns:xlink="http://www.w3.org/1999/xlink" x="0px" y="0px" width="64px" height="64px" viewBox="0 0 64 64" xml:space="preserve" fill="#44596c"> <path d="M58.895,5.105c-6.741-6.815-17.705-6.815-24.521,0L5.038,34.441 c-6.742,6.741-6.742,17.705,0,24.521c6.815,6.741,17.779,6.741,24.521,0l18.002-18.002c4.148-4.148,4.148-10.891,0-15.113 c-4.148-4.148-10.891-4.148-15.113,0l-11.26,11.335c-1.63,1.556-1.63,4.074,0,5.63c1.556,1.63,4.074,1.63,5.63,0l11.335-11.26 c1.037-1.037,2.74-1.037,3.777,0s1.037,2.74,0,3.777L23.928,53.258c-3.63,3.631-9.556,3.631-13.187,0 c-3.63-3.63-3.63-9.556,0-13.187l29.336-29.336c3.63-3.63,9.557-3.63,13.187,0s3.63,9.557,0,13.187l-0.222,0.223 c1.777,2.519,2.814,5.407,2.963,8.371l2.889-2.89C65.711,22.811,65.711,11.847,58.895,5.105z" ></path> </svg>