<?xml version="1.0" encoding="utf-8"?> <!-- Generator: IcoMoon.io --> <!DOCTYPE svg PUBLIC "-//W3C//DTD SVG 1.1//EN" "http://www.w3.org/Graphics/SVG/1.1/DTD/svg11.dtd"> <svg version="1.1" xmlns="http://www.w3.org/2000/svg" xmlns:xlink="http://www.w3.org/1999/xlink" x="0px" y="0px" width="64px" height="64px" viewBox="0 0 64 64" xml:space="preserve" fill="#44596c"> <path d="M60.666,46.134l-14.8-7.467c0,0-0.733-0.4-1.134-0.4c-0.732,0-1.333,0.334-1.732,0.867 l-6.334,5.733c-0.733,0.733-1.8,0.866-2.666,0.333c-2.934-1.8-5.8-4.066-8.467-6.733c-2.667-2.6-4.867-5.466-6.667-8.466 c-0.533-0.867-0.4-1.934,0.267-2.667l6.333-6.267c0.467-0.467,0.8-1.066,0.8-1.733c0-0.467-0.133-0.8-0.333-1.2L17.8,3.334 c-0.4-0.733-1.067-1.199-1.933-1.199c-3.6,0.333-7.667,1.533-10,3.866c-8.267,8.267-3.133,26.933,11,41.133 c9.467,9.467,20.8,14.733,29.8,14.733c4.4,0,8.267-1.334,11-4.067c2.4-2.333,3.934-6,4.199-9.666 C61.865,47.267,61.398,46.533,60.666,46.134z" ></path> </svg>