<?xml version="1.0" encoding="utf-8"?> <!-- Generator: IcoMoon.io --> <!DOCTYPE svg PUBLIC "-//W3C//DTD SVG 1.1//EN" "http://www.w3.org/Graphics/SVG/1.1/DTD/svg11.dtd"> <svg version="1.1" xmlns="http://www.w3.org/2000/svg" xmlns:xlink="http://www.w3.org/1999/xlink" x="0px" y="0px" width="64px" height="64px" viewBox="0 0 64 64" xml:space="preserve" fill="#44596c"> <path d="M32,0.001c-12.933,0-23.466,11.066-23.466,24.533c0,18.399,19.8,37.532,19.8,37.532 c2.667,2.467,4.267,2.667,7.134,0c0,0,19.999-19.133,19.999-37.532C55.466,11.067,44.933,0.001,32,0.001z M32,34.534 c-6.133,0-11.066-4.934-11.066-11.066c0-6.134,4.933-11.134,11.066-11.134s11.133,5,11.133,11.134 C43.133,29.601,38.133,34.534,32,34.534z" ></path> </svg>