<?xml version="1.0" encoding="utf-8"?> <!-- Generator: IcoMoon.io --> <!DOCTYPE svg PUBLIC "-//W3C//DTD SVG 1.1//EN" "http://www.w3.org/Graphics/SVG/1.1/DTD/svg11.dtd"> <svg version="1.1" xmlns="http://www.w3.org/2000/svg" xmlns:xlink="http://www.w3.org/1999/xlink" x="0px" y="0px" width="64px" height="64px" viewBox="0 0 64 64" xml:space="preserve" fill="#44596c"> <path d="M54.865,29.601L33.133,6.134c-0.4-0.466-1-0.732-1.6-0.732H15c-0.867,0-1.667,0.533-2,1.267 c-0.4,0.8-0.2,1.666,0.333,2.333l20.866,22L13.333,53.066c-0.333,0.4-0.533,0.867-0.533,1.4c0,0.267,0.067,0.6,0.2,0.866 c0.333,0.801,1.133,1.268,2,1.268h16.533c0.6,0,1.2-0.268,1.6-0.667l21.732-23.467C55.666,31.601,55.666,30.4,54.865,29.601z" ></path> </svg>