<?xml version="1.0" encoding="utf-8"?> <!-- Generator: IcoMoon.io --> <!DOCTYPE svg PUBLIC "-//W3C//DTD SVG 1.1//EN" "http://www.w3.org/Graphics/SVG/1.1/DTD/svg11.dtd"> <svg version="1.1" xmlns="http://www.w3.org/2000/svg" xmlns:xlink="http://www.w3.org/1999/xlink" x="0px" y="0px" width="64px" height="64px" viewBox="0 0 64 64" xml:space="preserve" fill="#44596c"> <path d="M29.733,31.001l20.867-22c0.399-0.4,0.6-0.934,0.6-1.467c0-0.267-0.066-0.6-0.2-0.866 C50.666,5.935,49.865,5.401,49,5.401H32.467c-0.601,0-1.201,0.267-1.601,0.732l-21.8,23.467c-0.733,0.8-0.733,2,0,2.866 l21.8,23.467c0.4,0.399,1,0.667,1.601,0.667H49c0.865,0,1.666-0.467,1.999-1.268c0.333-0.8,0.2-1.666-0.399-2.267L29.733,31.001 z" ></path> </svg>