<?xml version="1.0" encoding="utf-8"?> <!-- Generator: IcoMoon.io --> <!DOCTYPE svg PUBLIC "-//W3C//DTD SVG 1.1//EN" "http://www.w3.org/Graphics/SVG/1.1/DTD/svg11.dtd"> <svg version="1.1" xmlns="http://www.w3.org/2000/svg" xmlns:xlink="http://www.w3.org/1999/xlink" x="0px" y="0px" width="64px" height="64px" viewBox="0 0 64 64" xml:space="preserve" fill="#44596c"> <path d="M41.866,31.001l12.6-12.601c1.134-1.133,1.333-2.8,0.467-3.8c-1.934-2.467-4.067-4.6-6.533-6.533 c-1-0.866-2.667-0.666-3.8,0.467L32,20.601L19.333,8.534c-1.066-1.133-2.733-1.333-3.8-0.467 c-2.4,1.934-4.533,4.066-6.467,6.533c-0.867,1-0.667,2.667,0.467,3.8l12.6,12.601L9.466,43.667 c-1.066,1.066-1.267,2.733-0.4,3.8c1.934,2.4,4.067,4.533,6.467,6.467c1.066,0.866,2.733,0.667,3.8-0.4L32,40.867l12.6,12.666 c1.133,1.067,2.8,1.267,3.8,0.4c2.466-1.934,4.6-4.066,6.533-6.533c0.866-1,0.667-2.667-0.467-3.733L41.866,31.001z" ></path> </svg>