<?xml version="1.0" encoding="utf-8"?> <!-- Generator: IcoMoon.io --> <!DOCTYPE svg PUBLIC "-//W3C//DTD SVG 1.1//EN" "http://www.w3.org/Graphics/SVG/1.1/DTD/svg11.dtd"> <svg version="1.1" xmlns="http://www.w3.org/2000/svg" xmlns:xlink="http://www.w3.org/1999/xlink" x="0px" y="0px" width="64px" height="64px" viewBox="0 0 64 64" xml:space="preserve" fill="#44596c"> <path d="M30.466,39c0.467,0.334,1,0.534,1.533,0.534c0.534,0,1.067-0.2,1.534-0.534 C34,38.667,44.266,29.801,50.933,19.934c0.467-0.732,0.533-1.732,0.134-2.533c-0.467-0.8-1.268-1.333-2.201-1.333h-8.666 c-0.934-5.399-2.533-11.467-3.267-12.733c-0.8-1.399-2.466-2.199-4.933-2.199c-2.467,0-4.133,0.8-4.933,2.199 c-0.867,1.467-2.4,7.334-3.267,12.733h-8.667c-0.934,0-1.733,0.533-2.2,1.333c-0.4,0.801-0.333,1.801,0.133,2.533 C19.667,29.801,30,38.667,30.466,39z M53.6,33.134c0,9.066-0.734,15.467-1.268,19.2H11.667 c-0.533-3.667-1.267-10.067-1.267-19.2H0c0,17.2,2.333,25.666,2.4,26C3.067,61.4,5.133,63,7.533,63h48.866 c2.399,0,4.533-1.6,5.2-3.934c0.066-0.333,2.399-8.866,2.399-25.933H53.6z" ></path> </svg>