<?xml version="1.0" encoding="utf-8"?> <!-- Generator: IcoMoon.io --> <!DOCTYPE svg PUBLIC "-//W3C//DTD SVG 1.1//EN" "http://www.w3.org/Graphics/SVG/1.1/DTD/svg11.dtd"> <svg version="1.1" id="error_2_" xmlns="http://www.w3.org/2000/svg" xmlns:xlink="http://www.w3.org/1999/xlink" x="0px" y="0px" width="64px" height="64px" viewBox="0 0 64 64" xml:space="preserve" fill="#44596c"> <path d="M32,0.001C14.333,0.001,0,14.334,0,32c0,17.667,14.333,32,32,32s32-14.333,32-32 C63.999,14.334,49.666,0.001,32,0.001z M53.533,36.2c-0.067,1.267-1.067,2.2-2.268,2.2H12.733c-1.2,0-2.2-0.934-2.333-2.2 c-0.2-2.8-0.2-5.6,0-8.399c0.133-1.267,1.133-2.2,2.333-2.2h38.533c1.2,0,2.2,0.934,2.268,2.2 C53.799,30.601,53.799,33.4,53.533,36.2z" ></path> </svg>