<?xml version="1.0" encoding="utf-8"?> <!-- Generator: IcoMoon.io --> <!DOCTYPE svg PUBLIC "-//W3C//DTD SVG 1.1//EN" "http://www.w3.org/Graphics/SVG/1.1/DTD/svg11.dtd"> <svg version="1.1" xmlns="http://www.w3.org/2000/svg" xmlns:xlink="http://www.w3.org/1999/xlink" x="0px" y="0px" width="64px" height="64px" viewBox="0 0 64 64" xml:space="preserve" fill="#44596c"> <path d="M36.266,29.867h-8.533V38.4h8.533V29.867z M49.066,42.667h-8.533V51.2h8.533V42.667z M49.066,29.867h-8.533V38.4h8.533V29.867z M36.266,42.667h-8.533V51.2h8.533V42.667z M59.332,8.734 c-0.333-0.067-4.133-0.8-10.266-1.467v-3c0-2.333-1.934-4.267-4.268-4.267c-2.333,0-4.266,1.934-4.266,4.267v8.533 c0,1.267,0.533,2.4,1.399,3.2c-3.066,0-5.667-2.134-5.667-5.334V6.468C34.866,6.4,33.467,6.4,32,6.4c-3,0-5.867,0.067-8.533,0.2 V4.268c0-2.333-1.933-4.267-4.267-4.267c-2.333,0-4.267,1.934-4.267,4.267v8.533c0,1.267,0.533,2.4,1.4,3.2 c-3.066,0-5.667-2.134-5.667-5.334V7.801c-3.6,0.467-5.8,0.934-6,0.934c-1.466,0.333-2.533,1.6-2.533,3.133v46.6 c0,1.533,1.067,2.8,2.533,3.133C5.133,61.667,15.933,64,32,64c16.067,0,26.866-2.333,27.333-2.4 c1.467-0.333,2.533-1.6,2.533-3.133v-46.6C61.865,10.334,60.799,9.067,59.332,8.734z M55.466,56.066 c-4,0.667-12.533,1.867-23.466,1.867s-19.466-1.2-23.466-1.867V25.601h46.933V56.066z M23.466,42.667h-8.533V51.2h8.533V42.667z " ></path> </svg>