<?xml version="1.0" encoding="utf-8"?> <!-- Generator: IcoMoon.io --> <!DOCTYPE svg PUBLIC "-//W3C//DTD SVG 1.1//EN" "http://www.w3.org/Graphics/SVG/1.1/DTD/svg11.dtd"> <svg version="1.1" xmlns="http://www.w3.org/2000/svg" xmlns:xlink="http://www.w3.org/1999/xlink" x="0px" y="0px" width="64px" height="64px" viewBox="0 0 64 64" xml:space="preserve" fill="#44596c"> <path d="M63.799,24.334c-0.267-0.8-0.934-1.533-1.732-1.866c-3.201-1.4-11.601-1.934-18.867-2.2 c-2.267-6.6-5.934-16.333-9-19.333c-0.6-0.601-1.4-0.934-2.2-0.934c-0.8,0-1.6,0.333-2.267,0.934 c-3,3-6.667,12.733-8.933,19.333c-7.267,0.267-15.667,0.8-18.866,2.2c-0.867,0.333-1.467,1.066-1.733,1.866 C-0.133,25.2-0.066,26.2,0.4,27.001c2.067,3.8,7.333,9.466,13.933,15.066c-1.8,7.333-3,13.866-3.333,18.466 c-0.067,1.2,0.466,2.267,1.466,2.934c0.934,0.667,2.2,0.733,3.2,0.2C16.8,63,18.066,62.4,19.333,61.8 C22.8,60.066,27,58.134,32,55c5,3.134,9.2,5.066,12.667,6.8c1.267,0.601,2.533,1.2,3.666,1.867 C48.799,63.866,49.266,64,49.799,64c0.601,0,1.201-0.2,1.734-0.533c1-0.667,1.533-1.733,1.466-2.934 c-0.333-4.6-1.533-11.133-3.333-18.466c6.6-5.601,11.866-11.267,13.934-15.066C64.065,26.2,64.133,25.2,63.799,24.334z" ></path> </svg>