<?xml version="1.0" encoding="utf-8"?> <!-- Generator: IcoMoon.io --> <!DOCTYPE svg PUBLIC "-//W3C//DTD SVG 1.1//EN" "http://www.w3.org/Graphics/SVG/1.1/DTD/svg11.dtd"> <svg version="1.1" xmlns="http://www.w3.org/2000/svg" xmlns:xlink="http://www.w3.org/1999/xlink" x="0px" y="0px" width="64px" height="64px" viewBox="0 0 64 64" xml:space="preserve" fill="#44596c"> <path d="M15.101,16.248h43.475c3.001,0,5.434-2.734,5.434-5.769s-2.433-5.494-5.434-5.494H15.101 c-3.001,0-5.434,2.46-5.434,5.494S12.1,16.248,15.101,16.248z M58.576,26.575H38.131c-3.001,0-5.434,2.537-5.434,5.571 s2.433,5.429,5.434,5.429h20.445c3.001,0,5.434-2.395,5.434-5.429S61.577,26.575,58.576,26.575z M58.576,48.978H43.004 c-3.002,0-5.434,2.615-5.434,5.649c0,3.035,2.432,5.376,5.434,5.376h15.572c3.001,0,5.434-2.341,5.434-5.376 C64.01,51.593,61.577,48.978,58.576,48.978z M32.584,43.663h-9.209V27.696c0-0.386-0.315-0.694-0.708-0.694H11.333 c-0.394,0-0.708,0.309-0.708,0.694v15.967H1.416c-0.275,0-0.551,0.154-0.669,0.425c-0.079,0.27-0.04,0.578,0.157,0.771 l15.584,15.272c0.157,0.115,0.314,0.192,0.511,0.192s0.354-0.077,0.512-0.192l15.583-15.272 c0.196-0.193,0.236-0.502,0.157-0.771C33.135,43.817,32.859,43.663,32.584,43.663z" ></path> </svg>