<?xml version="1.0" encoding="utf-8"?> <!-- Generator: IcoMoon.io --> <!DOCTYPE svg PUBLIC "-//W3C//DTD SVG 1.1//EN" "http://www.w3.org/Graphics/SVG/1.1/DTD/svg11.dtd"> <svg version="1.1" xmlns="http://www.w3.org/2000/svg" xmlns:xlink="http://www.w3.org/1999/xlink" x="0px" y="0px" width="64px" height="64px" viewBox="0 0 64 64" xml:space="preserve" fill="#44596c"> <path d="M46.866,49.2c-3.2-2.267-7.2-4.066-8.467-5.467c-1-1.133-2.066-2.6-0.267-4.733 c4.6-5.333,5.066-10.066,3.133-14.333c-1.866-4.066-6-5.466-9.266-5.466c-3.267,0-7.4,1.399-9.267,5.466 c-1.933,4.267-1.466,9,3.133,14.333c1.8,2.134,0.733,3.601-0.267,4.733c-1.267,1.4-5.333,3.2-8.466,5.467 c-3.6,2.533-3.4,3.8-4.267,7.6c-0.134,0.467-0.067,1,0.267,1.4c0.267,0.4,0.667,0.733,1.2,0.8c0.2,0,3.867,0.733,17.667,0.733 C45.732,59.733,49.466,59,49.666,59c0.533-0.066,0.934-0.399,1.199-0.8c0.268-0.4,0.4-0.934,0.268-1.4 C50.266,53,50.399,51.733,46.866,49.2z M19.066,42.2h0.067c0.667-0.399,1.4-0.8,2-1.2c-5.8-7.666-4.733-14.266-2.866-18.399 c2.4-5.133,7-7.467,11.266-8.066c0-1.667-0.4-3.267-1.066-4.8c-1.867-4.066-6-5.467-9.267-5.467s-7.4,1.4-9.267,5.467 c-1.933,4.267-1.466,9,3.133,14.333c1.8,2.133,0.733,3.6-0.267,4.733c-1.267,1.399-5.333,3.2-8.466,5.467 c-3.6,2.533-3.4,3.8-4.267,7.6c-0.133,0.467-0.067,1,0.267,1.399C0.6,43.667,1,44,1.533,44.067c0.133,0,3.133,0.6,13.4,0.733 C16.333,43.801,17.8,43,19.066,42.2z M63.932,41.867c-0.865-3.8-0.732-5.066-4.266-7.6c-3.2-2.267-7.2-4.067-8.467-5.467 c-1-1.134-2.066-2.601-0.267-4.733c4.601-5.333,5.066-10.066,3.134-14.333c-1.867-4.066-6-5.467-9.268-5.467 c-3.266,0-7.399,1.4-9.266,5.467c-0.667,1.533-1.066,3.133-1.066,4.8c4.266,0.6,8.865,2.934,11.199,8.066 c1.934,4.2,3,10.733-2.8,18.399c0.6,0.4,1.399,0.867,2.066,1.2c1.267,0.8,2.733,1.601,4.134,2.601 c10.266-0.134,13.199-0.733,13.399-0.733c0.533-0.067,0.933-0.4,1.2-0.801C63.932,42.867,64.066,42.334,63.932,41.867z" ></path> </svg>