<?xml version="1.0" encoding="utf-8"?> <!-- Generator: IcoMoon.io --> <!DOCTYPE svg PUBLIC "-//W3C//DTD SVG 1.1//EN" "http://www.w3.org/Graphics/SVG/1.1/DTD/svg11.dtd"> <svg version="1.1" id="help_2_" xmlns="http://www.w3.org/2000/svg" xmlns:xlink="http://www.w3.org/1999/xlink" x="0px" y="0px" width="64px" height="64px" viewBox="0 0 64 64" xml:space="preserve" fill="#44596c"> <path d="M32,0.001C14.333,0.001,0,14.334,0,32c0,17.667,14.333,32,32,32s32-14.333,32-32 C63.999,14.334,49.666,0.001,32,0.001z M32,56.066c-2.6,0-4.867-2.267-4.867-4.866s2.267-4.866,4.867-4.866 s4.867,2.267,4.867,4.866S34.6,56.066,32,56.066z M45.533,27.534c-0.867,1.6-2.934,3.666-5.867,6.333 c-1.334,1.133-2.8,2.6-3.199,4.399c0,1.2-0.934,2.267-2.134,2.267H30c-1.2,0-2.2-0.933-2.2-2.133 c0.2-6.6,7.267-9.467,10.399-13.399c0.667-0.801,0.867-1.733,0.867-2.733c0-1.334-0.467-2.134-1.467-3.134 c-1-0.933-2.4-1.533-4.133-1.533c-2.801,0-5.067,2.267-5.601,4.267c-0.2,1-1.066,1.6-2.066,1.6h-4.467 c-1.2,0-2.133-0.8-2.133-1.999c0-0.2,0.067-0.334,0.067-0.534c0,0,0.133-0.333,0.133-0.399 c1.466-4.667,6.133-10.066,13.733-10.066c4.2,0,7.533,1.133,10,3.467c2.533,2.399,3.934,5.466,3.934,8.6 C47.066,24.334,46.466,26.001,45.533,27.534z" ></path> </svg>