<?xml version="1.0" encoding="utf-8"?> <!-- Generator: IcoMoon.io --> <!DOCTYPE svg PUBLIC "-//W3C//DTD SVG 1.1//EN" "http://www.w3.org/Graphics/SVG/1.1/DTD/svg11.dtd"> <svg version="1.1" xmlns="http://www.w3.org/2000/svg" xmlns:xlink="http://www.w3.org/1999/xlink" x="0px" y="0px" width="64px" height="64px" viewBox="0 0 64 64" xml:space="preserve" fill="#44596c"> <path d="M60.006,6.994H4c-2.223,0-4,1.778-4,4.001v40.004c0,2.223,1.778,4,4,4h56.005 c2.223,0,4-1.777,4-4V10.995C64.006,8.772,62.229,6.994,60.006,6.994z M14.001,14.995c3.333,0,6,2.667,6,6.001 c0,3.333-2.667,6-6,6s-6-2.667-6-6C8.001,17.662,10.668,14.995,14.001,14.995z M8.001,46.998l8-12.001l9.334,6.668 l14.668-18.669l16.002,24.002H8.001z" ></path> </svg>