<?xml version="1.0" encoding="utf-8"?> <!-- Generator: IcoMoon.io --> <!DOCTYPE svg PUBLIC "-//W3C//DTD SVG 1.1//EN" "http://www.w3.org/Graphics/SVG/1.1/DTD/svg11.dtd"> <svg version="1.1" xmlns="http://www.w3.org/2000/svg" xmlns:xlink="http://www.w3.org/1999/xlink" x="0px" y="0px" width="64px" height="64px" viewBox="0 0 64 64" xml:space="preserve" fill="#44596c"> <path d="M62.266,25.4c-1.666-1.8-4.199-1.933-5.666-1.933H39.933c0.866-9.267,1.134-16.4-1.667-19.601 c-0.866-1.066-1.933-1.666-3.333-1.732c-3.733,0-4.4,3.533-5.066,6.6c-1.066,5.267-2.133,12.399-14.933,15.399v31.333h2.4 c5.267,0,7.067,1.066,9.333,2.533c2.8,1.733,6,3.867,14.933,3.867c20.066,0,20.399-4.934,22-25.667l0.333-4.6 C64.133,29.067,63.6,26.867,62.266,25.4z M0,61.867h10.667V23.468H0V61.867z" ></path> </svg>