<?xml version="1.0" encoding="utf-8"?> <!-- Generator: IcoMoon.io --> <!DOCTYPE svg PUBLIC "-//W3C//DTD SVG 1.1//EN" "http://www.w3.org/Graphics/SVG/1.1/DTD/svg11.dtd"> <svg version="1.1" xmlns="http://www.w3.org/2000/svg" xmlns:xlink="http://www.w3.org/1999/xlink" x="0px" y="0px" width="64px" height="64px" viewBox="0 0 64 64" xml:space="preserve" fill="#44596c"> <path d="M33.855,24.44c-1.557,1.556-1.557,4.148,0,5.704c3.703,3.63,3.703,9.557,0,13.187l-9.927,9.927 c-3.63,3.631-9.557,3.631-13.187,0c-3.63-3.63-3.63-9.556,0-13.187l4.741-4.741c-1.185-3.186-1.63-6.593-1.333-10.001 l-9.112,9.112c-6.741,6.741-6.741,17.705,0,24.521c6.815,6.741,17.779,6.741,24.521,0L39.56,48.962 c6.741-6.742,6.741-17.706,0-24.521C38.004,22.885,35.411,22.885,33.855,24.44z M58.895,5.105 c-6.741-6.815-17.705-6.815-24.521,0l-9.927,9.927c-6.741,6.741-6.741,17.705,0,24.521c1.556,1.557,4.075,1.557,5.63,0 c1.63-1.556,1.63-4.074,0-5.63c-3.63-3.704-3.63-9.557,0-13.261l10.001-9.927c3.63-3.63,9.557-3.63,13.187,0 s3.63,9.557,0,13.187l-4.741,4.815c1.186,3.186,1.63,6.52,1.334,9.927l9.037-9.038C65.711,22.811,65.711,11.847,58.895,5.105z" ></path> </svg>