<?xml version="1.0" encoding="utf-8"?> <!-- Generator: IcoMoon.io --> <!DOCTYPE svg PUBLIC "-//W3C//DTD SVG 1.1//EN" "http://www.w3.org/Graphics/SVG/1.1/DTD/svg11.dtd"> <svg version="1.1" xmlns="http://www.w3.org/2000/svg" xmlns:xlink="http://www.w3.org/1999/xlink" x="0px" y="0px" width="64px" height="64px" viewBox="0 0 64 64" xml:space="preserve" fill="#44596c"> <path d="M22.267,17.067h37.666c1.399,0,2.6-0.934,2.733-2.2c0.267-2.8,0.267-3.466,0-6.267 c-0.134-1.267-1.334-2.199-2.733-2.199H22.267c-1.133,0-2.067,1-2.067,2.199v6.267C20.2,16.201,21.267,17.067,22.267,17.067z M6.333,25.601C3.4,25.601,1,28.001,1,30.934c0,2.934,2.4,5.334,5.333,5.334c2.933,0,5.333-2.4,5.333-5.334 C11.667,28.001,9.267,25.601,6.333,25.601z M6.333,44.801C3.4,44.801,1,47.2,1,50.134c0,2.933,2.4,5.333,5.333,5.333 c2.933,0,5.333-2.4,5.333-5.333C11.667,47.2,9.267,44.801,6.333,44.801z M59.933,25.601H22.267c-1.133,0-2.067,1-2.067,2.2 v6.267c0,1.333,1.067,2.2,2.067,2.2h37.666c1.399,0,2.6-0.934,2.733-2.2c0.267-2.8,0.267-3.467,0-6.267 C62.532,26.534,61.332,25.601,59.933,25.601z M59.933,44.801H22.267c-1.133,0-2.067,1-2.067,2.199v6.267 c0,1.334,1.067,2.2,2.067,2.2h37.666c1.399,0,2.6-0.934,2.733-2.2c0.267-2.8,0.267-3.466,0-6.267 C62.532,45.733,61.332,44.801,59.933,44.801z M6.333,6.401C3.4,6.401,1,8.801,1,11.734c0,2.933,2.4,5.333,5.333,5.333 c2.933,0,5.333-2.4,5.333-5.333C11.667,8.801,9.267,6.401,6.333,6.401z" ></path> </svg>