<?xml version="1.0" encoding="utf-8"?> <!-- Generator: IcoMoon.io --> <!DOCTYPE svg PUBLIC "-//W3C//DTD SVG 1.1//EN" "http://www.w3.org/Graphics/SVG/1.1/DTD/svg11.dtd"> <svg version="1.1" xmlns="http://www.w3.org/2000/svg" xmlns:xlink="http://www.w3.org/1999/xlink" x="0px" y="0px" width="64px" height="64px" viewBox="0 0 64 64" xml:space="preserve" fill="#44596c"> <path d="M62.066,11.201l-20.6-8.8C41,2.135,40.399,2.067,39.866,2.135l-0.067,0.066 c-0.399,0-0.732,0.133-1.066,0.333L23.6,10.668L4.467,2.401c-1-0.4-2.133-0.334-3,0.267C0.533,3.268,0,4.268,0,5.334V49.8 c0,1.268,0.733,2.4,1.934,2.934l20.533,8.867c0.467,0.199,0.867,0.267,1.333,0.267s1-0.134,1.466-0.4l15.133-8.133l19.133,8.199 c1,0.4,2.134,0.267,3-0.267c0.934-0.6,1.467-1.6,1.467-2.666V14.134C63.999,12.867,63.199,11.668,62.066,11.201z M35.933,42.733 c-1.066,0.8-1.466,1.801-2.399,3.601c-0.801,1.6-1.2,2.399-3.4,4.8c-1.933,2.2-2.466,0.333-2.867-0.601 c-0.4-1-0.8-4.133-0.8-4.133s-0.4-1.934-2.4-2.267c-5-0.8-2.733-8.4-2.733-8.4c-1.333-1-4.2-3.399-8-3.399 C11,32.334,8.4,31.801,6.4,31.2V10.201l13.867,6c1.2,2.267,2.667,2.933,3.2,4.8c1.133,3.933-1.6,5.666-2.133,4.333 c-1.066-2.333-4.867-1.8-6.733-1.2c-2.8,0.934-3.933,2.667-1.8,3.601c2.133,0.933,1.533,0.666,2.133,0 c0.6-0.667,1.267-0.867,2-0.267C17.6,28.001,19.2,28.4,19.4,29.867c0.2,1.467,0.267,2.134,1.933,2.134c2,0,1.4-0.534,2.8-0.2 c1.333,0.399,2.667-0.334,3.733-0.334c1.067,0,3.133,1.267,3.133,1.267c3.133,0.334,4.133,0.534,5.133,1.134 c0.934,0.667,2.133,2.866,2.133,4.6C38.266,40,37.799,41.2,35.933,42.733z M57.6,40.534c-1.2,1.333-2.467,2.133-3,2.066 c-1.334-0.066-2.467-1.467-2.6-1.8c-0.534-1.2-1.334-5.533-1.201-6.867c0.4-4.866-0.8-5.399-4.666-6.133 c-1.6-0.333-3.934-0.667-5.066-2.066c-4.134-4.867-3.867-7.667-0.134-10.8c1.333-1.067,4.134-2.334,6.134-3.2L57.6,16.268 V40.534z" ></path> </svg>