<?xml version="1.0" encoding="utf-8"?> <!-- Generator: IcoMoon.io --> <!DOCTYPE svg PUBLIC "-//W3C//DTD SVG 1.1//EN" "http://www.w3.org/Graphics/SVG/1.1/DTD/svg11.dtd"> <svg version="1.1" xmlns="http://www.w3.org/2000/svg" xmlns:xlink="http://www.w3.org/1999/xlink" x="0px" y="0px" width="64px" height="64px" viewBox="0 0 64 64" xml:space="preserve" fill="#44596c"> <path d="M11.4,31.733c0-8.6,0.933-15.399,1.533-18.866c4.133-0.866,11.333-2.199,20.067-2.533V0.135 C19.667,0.668,7.6,3.534,7.066,3.668C5.133,4.134,3.6,5.601,3.133,7.468C3.067,7.867,1,16.601,1,31.733 c0,15.134,2,24.333,2.067,24.733c0.466,1.934,2.066,3.4,4,3.867c0.534,0.133,12.6,2.999,25.934,3.6V53.667 C24.267,53.334,17.133,52,12.933,51.134C12.333,47.533,11.4,40.534,11.4,31.733z M62.332,30.534 c-0.333-0.467-9.467-10.8-19.332-17.4c-0.734-0.533-1.734-0.533-2.533-0.133c-0.801,0.467-1.067,1.267-1.067,2.2v8.399 c-7.2,0.733-17.333,2.8-18.6,3.533c-1.6,0.867-2.733,2.467-2.733,4.934s1.133,4,2.733,4.934 c1.267,0.732,11.399,2.732,18.6,3.533v8.399c0,0.867,0.267,1.733,1.067,2.2c0.332,0.133,0.732,0.267,1.133,0.267 c0.533,0,1-0.134,1.4-0.4c9.865-6.666,18.999-16.933,19.332-17.399C63.066,32.667,63.066,31.4,62.332,30.534z" ></path> </svg>