<?xml version="1.0" encoding="utf-8"?> <!-- Generator: IcoMoon.io --> <!DOCTYPE svg PUBLIC "-//W3C//DTD SVG 1.1//EN" "http://www.w3.org/Graphics/SVG/1.1/DTD/svg11.dtd"> <svg version="1.1" xmlns="http://www.w3.org/2000/svg" xmlns:xlink="http://www.w3.org/1999/xlink" x="0px" y="0px" width="64px" height="64px" viewBox="0 0 64 64" xml:space="preserve" fill="#44596c"> <path d="M39.133,44.601C38.066,44,36.866,43.533,35.6,43c-2.267-0.933-4.867-1.933-5.333-3.466 c-0.4-1.268,0.6-3.067,1.467-4.4C36.066,28.4,36.866,22.601,34,17.867c-2.201-3.666-6.134-5.8-10.534-5.8 c-4.333,0-8.267,2.134-10.466,5.8c-2.867,4.733-2.067,10.533,2.267,17.267c0.867,1.333,1.867,3.133,1.466,4.4 C16.267,41.067,13.667,42.067,11.4,43c-1.267,0.533-2.467,1-3.533,1.601c-4,2.467-6.867,6.133-7.8,10.533 c-0.134,0.6-0.067,1.133,0.267,1.6c0.333,0.467,0.8,0.8,1.4,0.866c0.2,0.067,6.066,0.867,21.733,0.867s21.6-0.8,21.799-0.867 c0.601-0.066,1.066-0.399,1.4-0.866s0.467-1,0.334-1.6C46,50.733,43.133,47.067,39.133,44.601z M63.932,46.601 c-0.933-4.4-3.799-8.066-7.865-10.533c-1-0.601-2.201-1.067-3.533-1.601c-2.268-0.933-4.867-1.933-5.334-3.466 c-0.4-1.268,0.6-3.067,1.533-4.4c4.334-6.733,5.066-12.533,2.2-17.267c-2.2-3.666-6.066-5.8-10.466-5.8 c-3.934,0-6.067,1.733-8.334,4.667c3.2,1.467,5.2,3.533,7.066,6.666c2.733,4.467,3.867,12.267-2.732,22.733 c0.399,0.133,0.799,0.333,1.066,0.467C39,38.601,40.467,39.2,41.866,40c4,2.467,7.066,5.867,8.933,9.8 c8-0.199,11.334-0.666,11.467-0.733c0.533-0.066,1.066-0.399,1.4-0.866C63.932,47.733,64.066,47.2,63.932,46.601z" ></path> </svg>