<?xml version="1.0" encoding="utf-8"?> <!-- Generator: IcoMoon.io --> <!DOCTYPE svg PUBLIC "-//W3C//DTD SVG 1.1//EN" "http://www.w3.org/Graphics/SVG/1.1/DTD/svg11.dtd"> <svg version="1.1" xmlns="http://www.w3.org/2000/svg" xmlns:xlink="http://www.w3.org/1999/xlink" x="0px" y="0px" width="64px" height="64px" viewBox="0 0 64 64" xml:space="preserve" fill="#44596c"> <path d="M32,22.468c-5.867,0-10.667,4.8-10.667,10.666S26.133,43.801,32,43.801S42.666,39,42.666,33.134 S37.866,22.468,32,22.468z M60.133,16.601c-0.268-1.2-1.467-2.267-2.6-2.399c-3.334-0.334-6.668-0.601-10-0.867 c-0.467-1.533-1-3.533-1.601-5.133c-0.399-1.2-1.733-2.334-2.933-2.4c-3.667-0.267-7.334-0.399-11-0.399 c-3.6,0-7.2,0.133-10.733,0.399c-1.2,0.066-2.533,1.2-2.933,2.4c-0.6,1.6-1.133,3.6-1.6,5.133 c-3.333,0.267-6.6,0.533-9.933,0.867c-1.2,0.133-2.4,1.199-2.6,2.399c-2.8,14.4-2.733,22.333,0,36.267 C4.4,54,5.6,55.066,6.8,55.2c8.4,0.934,16.8,1.4,25.2,1.4c8.467,0,17-0.467,25.534-1.4c1.133-0.134,2.332-1.2,2.6-2.333 C62.466,40.733,62.466,28.667,60.133,16.601z M32,50.4c-9.466,0-17.267-7.8-17.267-17.267S22.533,15.867,32,15.867 c9.467,0,17.266,7.8,17.266,17.267S41.467,50.4,32,50.4z" ></path> </svg>