<?xml version="1.0" encoding="utf-8"?> <!-- Generator: IcoMoon.io --> <!DOCTYPE svg PUBLIC "-//W3C//DTD SVG 1.1//EN" "http://www.w3.org/Graphics/SVG/1.1/DTD/svg11.dtd"> <svg version="1.1" id="priority_1_" xmlns="http://www.w3.org/2000/svg" xmlns:xlink="http://www.w3.org/1999/xlink" x="0px" y="0px" width="64px" height="64px" viewBox="0 0 64 64" xml:space="preserve" fill="#44596c"> <path d="M55.533,22.601c-9.201-15.866-29.8-21.466-29.8-21.466s6.066,15.333-9.867,25.799 c-7.4,4.8-11.533,10.667-11.466,17.2c0,2.333,0.533,4.8,1.733,7.333C9.667,59.134,17.466,62,25.667,62.866 C25.6,62.8,25.533,62.8,25.533,62.8c-6.466-3.399-13.6-15.8,0.934-27.666c-0.6,1.866-1,5.133-0.733,7.066 c0.667,4.066,2.6,5.8,4.8,5.8c2,0,4.266-1.533,5.8-3.933c2.066-3.267,2.066-9,1.866-12.733c-0.066-1.667-0.732-6.733-1-6.934 c0,0,8.867,5.601,9.867,14.934C47.933,48.067,44.732,58,34.199,62.866C47.533,61.667,56.6,52.334,58.732,44.2 C60.666,37.134,59.199,28.934,55.533,22.601z" ></path> </svg>