<?xml version="1.0" encoding="utf-8"?> <!-- Generator: IcoMoon.io --> <!DOCTYPE svg PUBLIC "-//W3C//DTD SVG 1.1//EN" "http://www.w3.org/Graphics/SVG/1.1/DTD/svg11.dtd"> <svg version="1.1" xmlns="http://www.w3.org/2000/svg" xmlns:xlink="http://www.w3.org/1999/xlink" x="0px" y="0px" width="64px" height="64px" viewBox="0 0 64 64" xml:space="preserve" fill="#44596c"> <path d="M29.866,19.268V7.734c0-1.134-0.4-2.134-1.4-2.667c-1-0.6-2.267-0.533-3.2,0.134 C13,13.468,3.2,26.334,2.8,26.867c-0.866,1.134-0.866,2.733,0,3.8C3.2,31.268,13,44.134,25.266,52.334 c0.534,0.399,1.133,0.533,1.733,0.533c0.533,0,1-0.134,1.467-0.334c1-0.533,1.4-1.6,1.4-2.733V38.334 c7.8,0.133,16.2,1.866,18.134,5.467c2.199,4.066-0.067,7.999-5.534,10.066c-5.866,2.267-4.6,7.933,1,7.866 c5.934-0.066,18.399-7.866,18.399-20.933C61.865,25.534,45.666,20.067,29.866,19.268z" ></path> </svg>