<?xml version="1.0" encoding="utf-8"?> <!-- Generator: IcoMoon.io --> <!DOCTYPE svg PUBLIC "-//W3C//DTD SVG 1.1//EN" "http://www.w3.org/Graphics/SVG/1.1/DTD/svg11.dtd"> <svg version="1.1" xmlns="http://www.w3.org/2000/svg" xmlns:xlink="http://www.w3.org/1999/xlink" x="0px" y="0px" width="64px" height="64px" viewBox="0 0 64 64" xml:space="preserve" fill="#44596c"> <path d="M4.4,16.067h54.999c1.668,0,3.067-1.133,3.201-2.533c0.333-3.267,0.333-6.6,0-9.866 c-0.134-1.4-1.533-2.533-3.201-2.533H4.4c-1.6,0-3,1.133-3.133,2.533c-0.333,3.267-0.333,6.6,0,9.866 C1.4,14.935,2.8,16.067,4.4,16.067z M59.398,48.067H4.4c-1.6,0-3,1.133-3.133,2.533c-0.333,3.267-0.333,6.6,0,9.866 C1.4,61.867,2.8,63,4.4,63h54.999c1.668,0,3.067-1.133,3.201-2.533c0.333-3.267,0.333-6.6,0-9.866 C62.466,49.2,61.066,48.067,59.398,48.067z M59.398,24.601H4.4c-1.6,0-3,1.134-3.133,2.533c-0.333,3.267-0.333,6.6,0,9.866 C1.4,38.4,2.8,39.534,4.4,39.534h54.999c1.668,0,3.067-1.134,3.201-2.534c0.333-3.267,0.333-6.6,0-9.866 C62.466,25.734,61.066,24.601,59.398,24.601z" ></path> </svg>