<?xml version="1.0" encoding="utf-8"?> <!-- Generator: IcoMoon.io --> <!DOCTYPE svg PUBLIC "-//W3C//DTD SVG 1.1//EN" "http://www.w3.org/Graphics/SVG/1.1/DTD/svg11.dtd"> <svg version="1.1" xmlns="http://www.w3.org/2000/svg" xmlns:xlink="http://www.w3.org/1999/xlink" x="0px" y="0px" width="64px" height="64px" viewBox="0 0 64 64" xml:space="preserve" fill="#44596c"> <path d="M40.004-0.006c-13.26,0-24.002,10.741-24.002,24.002c0,4.741,1.333,9.112,3.704,12.816 L1.556,54.888c-2.074,2.074-2.074,5.482,0,7.557C2.593,63.481,3.926,64,5.334,64c1.333,0,2.741-0.519,3.778-1.556l18.076-18.15 c3.704,2.371,8.075,3.704,12.816,3.704c13.261,0,24.002-10.741,24.002-24.002S53.265-0.006,40.004-0.006z M40.004,39.998 c-8.815,0-16.001-7.187-16.001-16.002S31.188,7.994,40.004,7.994c8.816,0,16.002,7.187,16.002,16.002 S48.82,39.998,40.004,39.998z" ></path> </svg>