<?xml version="1.0" encoding="utf-8"?> <!-- Generator: IcoMoon.io --> <!DOCTYPE svg PUBLIC "-//W3C//DTD SVG 1.1//EN" "http://www.w3.org/Graphics/SVG/1.1/DTD/svg11.dtd"> <svg version="1.1" xmlns="http://www.w3.org/2000/svg" xmlns:xlink="http://www.w3.org/1999/xlink" x="0px" y="0px" width="64px" height="64px" viewBox="0 0 64 64" xml:space="preserve" fill="#44596c"> <path d="M63.865,28.934c-0.199-1.467-1.333-2.666-2.799-2.866C59.266,25.867,55.6,25.4,55.6,25.4 c-1.601-0.399-2.801-1.8-2.801-3.533c0-0.666,0.2-1.333,0.601-1.866c0-0.067,3.333-4.4,3.333-4.4 c0.934-1.133,0.867-2.8-0.066-3.933c-1.267-1.601-2.733-3.067-4.334-4.334c-1.133-0.933-2.799-1-3.933-0.066 c-1.467,1.134-4.333,3.333-4.333,3.333c-0.601,0.334-1.268,0.601-2,0.601c-1.734,0-3.134-1.267-3.467-2.934l-0.667-5.333 c-0.2-1.467-1.399-2.601-2.866-2.8c-2.066-0.2-4.133-0.2-6.133,0c-1.467,0.199-2.667,1.333-2.867,2.8L25.4,8.268 c-0.267,1.667-1.733,2.934-3.467,2.934c-0.8,0-1.533-0.267-2.133-0.667l-4.2-3.267c-1.133-0.934-2.8-0.866-3.933,0.066 c-1.6,1.267-3.066,2.733-4.333,4.334c-1,1.133-1,2.8-0.066,3.933c1.066,1.4,3.2,4.2,3.2,4.2c0.466,0.6,0.733,1.333,0.733,2.066 c0,1.8-1.333,3.267-3.066,3.533l-5.2,0.667c-1.466,0.2-2.667,1.399-2.8,2.866c-0.2,2.067-0.2,4.134,0,6.134 c0.2,1.467,1.333,2.666,2.8,2.866l5.2,0.667c1.733,0.2,3.066,1.666,3.066,3.467c0,0.8-0.267,1.533-0.733,2.133l-3.2,4.2 c-0.933,1.133-0.867,2.8,0.066,3.934c1.267,1.6,2.733,3.066,4.333,4.333c0.6,0.467,1.267,0.733,2,0.733 c0.667,0,1.4-0.2,1.933-0.667l4.2-3.267c0.6-0.4,1.333-0.667,2.133-0.667c1.733,0,3.2,1.267,3.467,2.934 c0,0.066,0.667,5.333,0.667,5.333c0.2,1.467,1.4,2.601,2.867,2.8C29.933,63.934,31,64,32,64c1,0,2.067-0.066,3.067-0.134 c1.467-0.199,2.666-1.333,2.866-2.8l0.667-5.333c0.333-1.667,1.732-2.934,3.467-2.934c0.732,0,1.467,0.2,2,0.601l4.333,3.333 c0.533,0.467,1.267,0.667,1.933,0.667c0.734,0,1.4-0.2,2-0.733c1.601-1.267,3.067-2.733,4.334-4.333 c0.934-1.134,1-2.801,0.066-3.934c-1.133-1.467-3.333-4.333-3.333-4.4c-0.4-0.533-0.601-1.199-0.601-1.933 c0-1.667,1.2-3.134,2.801-3.467c0,0,3.666-0.467,5.467-0.667c1.466-0.2,2.6-1.399,2.799-2.866 C64.065,33.001,64.065,30.934,63.865,28.934z M32,42.867c-6,0-10.867-4.867-10.867-10.866c0-6,4.867-10.867,10.867-10.867 c6,0,10.867,4.867,10.867,10.867C42.866,38,38,42.867,32,42.867z" ></path> </svg>