<?xml version="1.0" encoding="utf-8"?> <!-- Generator: IcoMoon.io --> <!DOCTYPE svg PUBLIC "-//W3C//DTD SVG 1.1//EN" "http://www.w3.org/Graphics/SVG/1.1/DTD/svg11.dtd"> <svg version="1.1" xmlns="http://www.w3.org/2000/svg" xmlns:xlink="http://www.w3.org/1999/xlink" x="0px" y="0px" width="64px" height="64px" viewBox="0 0 64 64" xml:space="preserve" fill="#44596c"> <path d="M63.466,24.001c-0.333-0.467-9-11.733-18.933-18.333c-0.801-0.467-1.734-0.534-2.601-0.134 c-0.8,0.467-1.399,1.267-1.399,2.2v10.333C26,18.067,16.333,28.2,15.4,32.334c-0.667,2.933,0.2,5,2.466,6.066 c2.667,1.333,5.467-0.267,6.867-1.066c4.333-2.4,7.133-4.533,15.8-4.533v10.533c0,0.933,0.6,1.733,1.399,2.199 c0.866,0.4,1.866,0.334,2.601-0.133c9.933-6.6,18.6-17.934,18.933-18.333c0.333-0.467,0.533-1,0.533-1.533 S63.799,24.467,63.466,24.001z M46.933,52.2H8.533V13.801h27.732V5.401c-2.467-0.067-6.066-0.134-8.533-0.134 c-6.867,0-13.866,0.333-20.667,1C3.066,6.601,0,10.001,0,14.001V52c0,4,3.066,7.4,7.066,7.733c6.8,0.667,13.8,1,20.667,1 s13.867-0.333,20.667-1c4-0.333,7.066-3.733,7.066-7.733v-8.533c-2.333,2.267-5.733,4.667-8.533,6.733V52.2z" ></path> </svg>