<?xml version="1.0" encoding="utf-8"?> <!-- Generator: IcoMoon.io --> <!DOCTYPE svg PUBLIC "-//W3C//DTD SVG 1.1//EN" "http://www.w3.org/Graphics/SVG/1.1/DTD/svg11.dtd"> <svg version="1.1" xmlns="http://www.w3.org/2000/svg" xmlns:xlink="http://www.w3.org/1999/xlink" x="0px" y="0px" width="64px" height="64px" viewBox="0 0 64 64" xml:space="preserve" fill="#44596c"> <path d="M15.133,24.601H23.8c0.867,5.4,2.4,11.267,3.267,12.733c0.8,1.333,2.466,2.199,4.933,2.199 c2.467,0,4.133-0.866,4.933-2.199c0.733-1.267,2.333-7.333,3.267-12.733h8.666c0.934,0,1.734-0.533,2.201-1.333 c0.399-0.801,0.333-1.8-0.134-2.601C44.266,10.867,34,2.001,33.533,1.668c-0.467-0.334-1-0.534-1.534-0.534 c-0.533,0-1.066,0.2-1.533,0.534c-0.467,0.333-10.8,9.199-17.4,18.999c-0.467,0.801-0.533,1.8-0.133,2.601 C13.4,24.067,14.2,24.601,15.133,24.601z M53.6,33.134c0,9.066-0.734,15.467-1.268,19.199H11.667 C11.133,48.667,10.4,42.267,10.4,33.134H0c0,17.2,2.333,25.666,2.4,26C3.067,61.4,5.133,63,7.533,63h48.866 c2.399,0,4.533-1.6,5.2-3.934c0.066-0.333,2.399-8.866,2.399-25.933H53.6z" ></path> </svg>