<?xml version="1.0" encoding="utf-8"?> <!-- Generator: IcoMoon.io --> <!DOCTYPE svg PUBLIC "-//W3C//DTD SVG 1.1//EN" "http://www.w3.org/Graphics/SVG/1.1/DTD/svg11.dtd"> <svg version="1.1" xmlns="http://www.w3.org/2000/svg" xmlns:xlink="http://www.w3.org/1999/xlink" x="0px" y="0px" width="64px" height="64px" viewBox="0 0 64 64" xml:space="preserve" fill="#44596c"> <path d="M61.799,58.267c-1.333-6.267-4.8-9.6-9.533-12.6c-1.333-0.8-2.934-1.467-4.666-2.2 c-3.268-1.267-6.934-2.733-7.733-5.2c-0.467-1.6,0.2-3.8,2-6.6c5.533-8.933,6.533-16.666,2.933-22.866 C42,4.001,37.266,1.135,32,1.135c-5.2,0-10,2.866-12.8,7.666c-3.6,6.2-2.6,13.934,3,22.866c1.8,2.8,2.467,5,1.933,6.6 c-0.8,2.467-4.466,3.934-7.667,5.2c-1.8,0.733-3.466,1.4-4.733,2.2C7,48.667,3.533,52,2.2,58.267 c-0.267,1.134,0.4,2.2,1.466,2.533C3.933,60.867,11.267,63,32,63c10.333,0,17.333-0.533,21.799-1.066s6.4-1.134,6.533-1.134 C61.398,60.467,62.066,59.4,61.799,58.267z" ></path> </svg>