<?xml version="1.0" encoding="utf-8"?> <!-- Generator: IcoMoon.io --> <!DOCTYPE svg PUBLIC "-//W3C//DTD SVG 1.1//EN" "http://www.w3.org/Graphics/SVG/1.1/DTD/svg11.dtd"> <svg version="1.1" id="warning_2_" xmlns="http://www.w3.org/2000/svg" xmlns:xlink="http://www.w3.org/1999/xlink" x="0px" y="0px" width="64px" height="64px" viewBox="0 0 64 64" xml:space="preserve" fill="#44596c"> <path d="M63.199,55.134l-27.467-50.8C35,3.001,33.533,2.135,32,2.135c-1.6,0-3,0.866-3.733,2.199 L0.533,55.601C-0.2,56.934-0.2,58.533,0.6,59.8c0.8,1.267,2.133,2.067,3.667,2.067h55.466c2.334,0,4.267-1.867,4.267-4.268 C63.999,56.667,63.666,55.8,63.199,55.134z M32,56.066c-2.667,0-4.8-2.133-4.8-4.8c0-2.666,2.133-4.8,4.8-4.8 s4.799,2.134,4.799,4.8C36.799,53.934,34.666,56.066,32,56.066z M34.732,38.4c-0.199,1.333-1.399,2.533-2.666,2.533h-0.2 c-1.2,0-2.4-1.2-2.6-2.533c-1.066-5.6-1.6-11.6-2.133-16.6C27.066,20.667,28,19.4,29.2,19.134c2.2-0.399,3.466-0.399,5.667,0 c1.267,0.267,2.066,1.533,2,2.667C36.333,26.801,35.799,32.801,34.732,38.4z" ></path> </svg>