<svg xmlns="http://www.w3.org/2000/svg" xmlns:xlink="http://www.w3.org/1999/xlink" width="96" height="96" viewBox="0 0 96 96">
  <defs>
    <rect id="cust360_einsteinlogo-a" width="96" height="96"/>
    <linearGradient id="cust360_einsteinlogo-c" x1="87.177%" x2="-3.526%" y1="53.526%" y2="20.362%">
      <stop offset="0%" stop-color="#715034"/>
      <stop offset="100%" stop-color="#996733"/>
    </linearGradient>
    <linearGradient id="cust360_einsteinlogo-d" x1=".725%" x2="99.848%" y1="50%" y2="50%">
      <stop offset="0%" stop-color="#715035"/>
      <stop offset="100%" stop-color="#986733"/>
    </linearGradient>
  </defs>
  <g fill="none" fill-rule="evenodd">
    <rect width="96" height="96" fill="#032E61" fill-rule="nonzero" rx="12"/>
    <mask id="cust360_einsteinlogo-b" fill="#fff">
      <use xlink:href="#cust360_einsteinlogo-a"/>
    </mask>
    <g mask="url(#cust360_einsteinlogo-b)">
      <g transform="translate(10 2)">
        <path fill="#FDD5A6" fill-rule="nonzero" d="M22,70.2 C19.6,67 17.8,68.6 17.4,68.2 C16.6,67.6 15.8,66.8 14.4,65.4 C13.4,64.6 11,62.8 10.8,64.6 C10.6,66.6 13.8,69 13.4,69.6 C13.4,69.6 13.4,69.6 13.4,69.8 C13,69.8 12.2,69.8 12,70.4 L11.8,71.4 C11.6,71.8 11.8,72.2 12,72.4 C12.2,72.6 12.2,72.8 12,72.8 C11.8,73 11.6,73.2 11.6,73.6 L11.6,74.8 C11.6,75.2 11.8,75.6 12.2,75.8 C12.4,76 12.4,76.2 12.4,76.4 C12.4,76.6 12.2,76.8 12.2,77 C12.2,77.2 12.2,77.6 12.6,78.2 C13,79 16.2,82 19.2,81.8 C21.2,81.8 23,79.8 24,75.6 C24,75.6 24.4,74.8 24.4,73.8 C24.6,73 22.8,71.2 22,70.2 Z"/>
        <path fill="#FBBF88" fill-rule="nonzero" d="M17.4,68.4 C16.6,67.8 15.8,67 14.4,65.6 C13.4,64.8 11,63 10.8,64.8 C10.6,66.8 13.8,69.2 13.4,69.8 C13.4,69.8 13.4,69.8 13.4,70 L14.6,70 C14.6,70 14.6,69.8 14.6,69.6 C15,69.4 15.6,68.8 17.4,68.4 Z M18,72.2 C18,72.2 18.8,73.6 18.2,76.2 C18,77.2 17.6,78.2 16.8,78.6 C15.8,79.2 14.2,79 12.8,79 C13.4,80.2 17.4,82.2 19.2,82.8 C24.6,84.4 23,79 23,79 C23,79 20.2,78.4 20,76 C19.4,71.2 18.6,72.2 18,72.2 Z"/>
        <path fill="url(#cust360_einsteinlogo-c)" fill-rule="nonzero" d="M30,72.2 C27.8,73.8 24.2,73 24.2,73 C24.2,73 25.2,79 16.2,81.8 C16.2,81.8 16,82.4 16.4,82.6 C16.8,83 23.2,85.2 24.8,85.4 L27.4,75.6 C27.6,75.8 31.4,71.6 30,72.2 Z"/>
        <path fill="#6F4C2E" fill-rule="nonzero" d="M27.4,79.6 L24.8,85.6 C23.2,85.4 16.6,83 16.4,82.8 C16,82.4 16.2,82 16.2,82 C17.8,81.4 19,80.8 20.2,80.2 C20.2,80.2 24,81.8 27.4,79.6 Z"/>
        <g transform="translate(32 64)">
          <path fill="#FDD5A6" fill-rule="nonzero" d="M13.6,0.6 L13.8,3.4 C13.8,3.4 11.2,7.8 5.8,7.4 C3.6,7.2 0.8,6.4 0.6,5.4 C0.2,3.6 0.6,2.6 0.6,2.6 L13.6,0.6 Z"/>
          <path fill="#CDAD87" fill-rule="nonzero" d="M12.8,4.8 C12.8,4.8 7.4,6.6 0.2,4.8 L0.4,3 L13.2,1.2 L12.8,4.8 Z"/>
        </g>
        <path fill="#163860" fill-rule="nonzero" d="M46.6,71 C46.6,71 46,93.6 45.2,97.4 C45.2,97.4 31.4,99.6 24.6,95.6 C24.6,95.6 23.4,84 31.6,73.4 L46.6,71 Z"/>
        <path fill="#0C233B" fill-rule="nonzero" d="M31.6,74.4 C31.6,74.4 25.8,84.6 25.4,96.2 L24.4,95.8 L25.4,84 L29,76.6 L31,73.8 L31.6,74.4 Z"/>
        <g transform="translate(30 74)">
          <path fill="#0C233B" fill-rule="nonzero" d="M11.6,2.6 C11.6,2.6 11.6,2.8 11.6,2.6 C11.6,2.8 11.6,2.8 11.6,2.6 Z M11.2,2.8 C11.2,2.8 11.2,3 11.2,2.8 C11.2,3 11.2,3 11.2,2.8 Z M10.8,3.2 C10.8,3.2 11,3.2 10.8,3.2 L11,3 L10.8,3.2 C11,3.2 10.8,3.2 10.8,3.2 Z M6.8,7.2 C6.6,7.2 6.6,7.4 6.8,7.2 C6.6,7.4 6.8,7.4 6.8,7.2 Z M8,6 C7.8,6 7.8,6.2 8,6 C7.8,6.2 7.8,6.2 8,6 Z M7.4,6.6 C7.2,6.6 7.2,6.8 7.4,6.6 C7.2,6.8 7.4,6.8 7.4,6.6 Z M5.8,8.2 C5.8,8.4 5.8,8.2 5.8,8.2 Z M5.6,8.4 C5.6,8.6 5.4,8.6 5.6,8.4 C5.6,8.6 5.6,8.6 5.6,8.4 Z M6.2,7.8 C6.2,8 6,8 6.2,7.8 C6.2,8 6.2,8 6.2,7.8 Z M9.2,4.6 C9.4,4.6 9.4,4.6 9.2,4.6 C9.4,4.6 9.2,4.6 9.2,4.6 Z M9.6,4.2 C9.6,4.2 9.6,4.4 9.6,4.2 C9.6,4.4 9.6,4.4 9.6,4.2 Z M9.8,4 C10,4 10,4 9.8,4 C10,4 10,4 9.8,4 Z M10.6,3.4 C10.6,3.6 10.6,3.4 10.6,3.4 Z M9,4.8 C9,4.8 9,5 9,4.8 C9,5 9,5 9,4.8 Z M8.8,5.2 C8.8,5.2 8.6,5.2 8.8,5.2 Z M8.4,5.4 C8.4,5.4 8.4,5.6 8.4,5.4 C8.4,5.6 8.4,5.6 8.4,5.4 Z M5.4,8.8 C5.2,8.8 5.2,8.8 5.4,8.8 C5.2,8.8 5.2,8.8 5.4,8.8 C5.2,8.8 5.2,8.8 5.4,8.8 C5.2,8.8 5.2,8.8 5.4,8.8 Z"/>
          <polygon fill="#0C233B" fill-rule="nonzero" points="5.2 8.6 5.2 8.4 5.2 8.4 5.2 8.4"/>
          <polygon fill="#0C233B" fill-rule="nonzero" points="5.2 8.2 5.2 7.8 5.2 7.8 5.2 7.8"/>
          <polygon fill="#0C233B" fill-rule="nonzero" points="5.2 7.6 5.2 7.6 5.2 7.6 5.2 7.6 5.2 7.6 5.2 7.8"/>
          <path fill="#0C233B" fill-rule="nonzero" d="M1.8,0.8 C1.8,0.8 1.8,1 1.8,0.8 Z M1.8,1.6 C2,1.8 2,1.6 1.8,1.6 Z M2.2,3.2 C2.2,3.4 2.2,3.4 2.2,3.2 C2.4,3.4 2.4,3.4 2.2,3.2 Z M2.2,2.8 C2.2,3 2.2,3 2.2,2.8 Z M2,2.4 C2.2,2.6 2,2.4 2,2.4 Z M2.4,3.6 C2.4,3.8 2.4,3.8 2.4,3.6 C2.4,3.8 2.4,3.8 2.4,3.6 Z M2.4,4 C2.4,4.2 2.4,4.2 2.4,4 C2.6,4.2 2.6,4.2 2.4,4 Z M3.6,6.8 C3.8,7 3.6,6.8 3.6,6.8 Z M4,7.6 C4,7.6 4,7.8 4.2,7.8 L4,7.6 C4.2,7.6 4.2,7.6 4,7.6 Z M3.4,6.4 C3.4,6.6 3.4,6.6 3.4,6.4 C3.6,6.6 3.4,6.4 3.4,6.4 Z M4.8,8.6 C4.8,8.6 5,8.6 4.8,8.6 C5,8.6 5,8.6 4.8,8.6 Z M4.6,8.2 C4.6,8.2 4.6,8.4 4.6,8.2 C4.6,8.4 4.6,8.2 4.6,8.2 Z M4.2,7.8 C4.2,7.8 4.2,8 4.4,8 L4.2,7.8 C4.4,8 4.4,8 4.2,7.8 Z M3.8,7.2 C3.8,7.2 3.8,7.4 4,7.4 L3.8,7.2 C4,7.2 3.8,7.2 3.8,7.2 Z M3,5.2 C3,5.4 3,5.4 3,5.2 C3,5.4 3,5.4 3,5.2 Z M2.8,4.8 C2.8,5 2.8,5 2.8,4.8 C2.8,5 2.8,5 2.8,4.8 Z M2.6,4.4 C2.6,4.6 2.6,4.6 2.6,4.4 C2.8,4.6 2.6,4.6 2.6,4.4 Z M3,5.6 C3,5.8 3,5.8 3,5.6 C3.2,5.8 3.2,5.8 3,5.6 Z M3.2,6 C3.2,6.2 3.2,6.2 3.2,6 C3.4,6.2 3.2,6.2 3.2,6 Z"/>
        </g>
        <path fill="#DADBD9" fill-rule="nonzero" d="M41,75 L37.8,78.6 L33.8,78.2 C33.8,78.2 33,74 33.8,72 L34.4,71 L41.4,71.8 L41,75 Z"/>
        <path fill="#FFF" fill-rule="nonzero" d="M45.2,68.2 L47.4,68.2 L47.2,70.2 L41.8,79.4 L38.4,72.8 L37.6,72.2 L32.2,78.2 C32.2,78.2 31.2,75.6 31.4,73 C31.4,72.8 32.6,71.8 32.6,71.6 C32.8,70.4 31.4,70.2 32.4,69.6 C32.4,69.8 40,74.8 45.2,68.2 Z"/>
        <path fill="#139AD6" fill-rule="nonzero" d="M36.8,73 L33.6,77.8 C33.6,77.8 33.8,80.4 35,81.4 C35,81.4 37.4,78.8 38.4,77.6 L38.4,72.8 L36.8,72.8 C36.8,72.8 36.8,73 36.8,73 Z"/>
        <path fill="#1980AF" fill-rule="nonzero" d="M36.4,73.6 C36.4,73.6 37.2,74.4 38.4,73.8 L38.4,73.2 L36.6,73.2 L36.4,73.6 Z"/>
        <path fill="#845F3F" fill-rule="nonzero" d="M32.4,72.4 C32.4,72.4 22.4,87.6 25.6,99.8 C25.6,99.8 23,99.6 22.4,98.2 C21.8,96.8 23.8,82.8 32.2,72 L32.4,72.4 Z"/>
        <polygon fill="#C1C0BE" fill-rule="nonzero" points="38.4 73.2 38.8 77.6 38.6 77.8"/>
        <path fill="url(#cust360_einsteinlogo-d)" fill-rule="nonzero" d="M61.6,93.2 C61.6,93.4 61.6,93.4 61.6,93.2 C69.2,90.4 70.4,80.8 68.4,78.6 C67,76.8 67,77.4 63.8,70.4 C60.8,63.4 53.2,65.8 53.2,65.8 L47,67.6 C47,67.6 44.8,95.8 45,97.4 C45.4,98.8 47.2,104.2 51.6,106.2 C51.6,106.2 63.4,105 65.6,98 C65.6,98.2 63.2,96.6 61.6,93.2 Z"/>
        <path fill="#5B4026" fill-rule="nonzero" d="M62.2,93.2 C62.2,93.2 59,88.2 60.2,83.6 C60.2,83.6 57.8,87.2 61.4,93.4 L62.2,93.2 Z"/>
        <g transform="translate(44 68)">
          <path fill="#472A16" fill-rule="nonzero" d="M5,1.4 C5,1.4 5,5.6 7.6,9.2 C7.6,9.2 4.4,10 3,11.4 L6.4,12 C6.4,12 5.6,14.8 1.2,25.4 L3.2,1.6 L5,1.4 Z"/>
          <path fill="#693521" fill-rule="nonzero" d="M4,0.2 C4,0.2 4,4.4 6.2,8.2 C6.2,8.2 3.2,9.8 2.6,11.2 L6,11 C6,11 2,20 1.4,25.4 L2.4,1.4 L4,0.2 Z"/>
        </g>
        <path fill="#C1C0BE" fill-rule="nonzero" d="M33.6,77 C34.2,76.4 35.6,74.6 35.6,74.6 L33.6,76.8 C33.6,76.8 33.6,77 33.6,77 Z"/>
        <polygon fill="#0C233B" fill-rule="nonzero" points="46.2 72 41.8 79.4 46.2 71.8"/>
        <path fill="#1980AF" fill-rule="nonzero" d="M33.8,77.8 L34,77.6 C34,77.6 34.4,80 35.2,81.6 C35.2,81.6 34,80.8 33.8,77.8 Z"/>
        <path fill="#0C233B" fill-rule="nonzero" d="M33.6,77 C33.4,77.2 32.6,78 32.6,78 L33.6,77 Z"/>
        <path fill="#139AD6" fill-rule="nonzero" d="M39.6,72.4 C39.6,73 38.8,73.6 37.6,73.6 C36.6,73.6 35.6,73 35.6,72.4 C35.6,71.2 36.4,71.2 37.6,71.2 C38.8,71 39.6,71.2 39.6,72.4 Z"/>
        <ellipse cx="43.6" cy="65.4" fill="#5B4026" fill-rule="nonzero" rx="12.2" ry="4.6"/>
        <path fill="#F2F2F2" fill-rule="nonzero" d="M23,59.8 C20.6,56 14.6,61 12.8,62.4 C11.2,63.8 13.4,58.4 15.6,57.6 C15.6,57.6 10.8,57.4 10,60.8 C10,60.8 9.2,57.4 12.2,54.8 C12.2,54.8 7.4,58.8 6.2,60.4 C6.4,59.4 6.6,58 6.6,58 L3,58.6 C3,58.6 2,49.2 8.4,47.6 C14.8,45.8 8,46.8 8,46.8 C8,46.8 6,43.4 0.6,44.8 C0.6,44.8 3,25.6 14.6,24.2 C14.6,24.2 13.4,20 9.4,20.8 C9.4,20.8 10,18.6 11.8,18.8 L8.6,17 C8.6,17 18.6,11.2 26.6,20 C26.6,20 29.4,7.2 29.4,5.4 C29.4,3.6 29.6,2 28.8,0.8 C28.8,0.8 32.6,1.6 32.6,3.2 C32.6,3.2 33.2,1.8 32,0.8 C32,0.8 38.6,3.4 38,6.6 L38.4,4 C38.4,4 40.4,5 40.6,6.2 C40.8,7.4 41.2,3.4 41.2,3.4 C41.2,3.4 47.8,6 48.2,15.8 C48.2,15.8 65.4,9.4 71.2,26.8 L66.8,26 C66.8,26 70.2,27.4 70.6,29.6 C70.6,29.6 76,31 76,44.2 C76,44.2 74.6,38.8 70.8,38.2 C70.8,38.2 76.6,40.6 77,53 C77,53 74.8,51.2 73,50.4 C73,50.4 77.2,53.2 75.8,60 C75.8,60 75,58.2 71.8,57.8 L72.2,59.2 L69.6,58 C69.6,58 61.4,58.6 59.2,61.2 C59.2,61.2 58.8,57.8 56.2,59.6 L23,59.8 Z"/>
        <path fill="#FDD5A6" fill-rule="nonzero" d="M61.6,54 C61,61.2 56.2,68.8 46.2,68.4 C44.2,68.4 42,68.8 39.8,68.8 C31,68.2 22.4,69.4 21.4,56.8 C21.4,56.6 21.2,56.4 21.2,56.2 C20.6,54.6 20.4,52.8 20.6,51 C21.2,42 31.4,35.2 42.8,36 C45,36.2 47,36.6 48.8,37.2 C56.8,39.8 62.2,46.6 61.6,54 Z"/>
        <path fill="#FBC18D" fill-rule="nonzero" d="M33.8,36.8 C36.6,36 39.6,35.6 42.8,35.8 C45,36 47,36.4 48.8,37 C57,39.8 62.2,46.6 61.6,53.8 C61.4,57.2 59,67.8 47,68.4 C47,68.4 63.2,57.4 49.4,45.4 C42.2,39.4 33.8,36.8 33.8,36.8 Z"/>
        <path fill="#E8E7E6" fill-rule="nonzero" d="M31.6,52.4 C31.6,52.4 32,49 29.8,49.4 C30.8,50 30.4,51 30.4,51 C30.4,51 29.2,47 24.2,51 C24.2,51 25.8,50.4 26.4,50.8 C26.4,50.8 24.2,51 24,52.2 C24,52.2 25,52 25.2,52.2 C25.2,52.2 23.8,53.4 25.8,55 C25.6,54.8 29,52 31.6,52.4 Z"/>
        <ellipse cx="29.842" cy="57.114" fill="#232221" fill-rule="nonzero" rx="2.6" ry="2" transform="rotate(-85.635 29.842 57.114)"/>
        <ellipse cx="46.03" cy="57.124" fill="#232221" fill-rule="nonzero" rx="2.6" ry="2" transform="rotate(-85.635 46.03 57.124)"/>
        <path fill="#F2F2F2" fill-rule="nonzero" d="M23,59.8 C23,59.8 22.6,47.8 25.6,47.8 C25.6,47.8 26.8,50 27.8,50 C28,50 27.8,44 31.2,42.6 C31.2,42.6 42,48.4 43.6,46 C43.2,45.8 39.2,43.6 39.6,41.8 C39.8,40.8 48.6,42 51.4,51 C52,51.4 53.2,50 53.8,47.6 C54.8,43.2 56.4,55.4 56.6,55.6 C56.6,55.8 57.6,55.4 58.4,54.4 C59.2,53.4 57.8,61.2 57.6,62.2 C59.6,60.8 61.2,60.2 62,54.2 C62.8,48.6 58.6,41.2 54,38.2 C50.2,35.8 41.6,33.8 31,37 C18.2,40.8 20,51.8 20.2,53.6 C20.6,56.8 23,58.8 23,59.8 Z"/>
        <path fill="#E8E7E6" fill-rule="nonzero" d="M45.4,53.6 C45.4,53.6 49.2,53.6 51,55.4 C51,55.4 53.6,54.2 50.8,52.8 C50.8,52.8 51.6,52.6 52.2,53 C52.2,53 52.2,51.2 49.4,51.4 C49.4,51.4 50.2,51 51.2,51.2 C51.2,51.2 48.6,48.6 46.8,51 C46.8,51 47,50 48,49.6 C47,49.6 44,49.4 44.4,53.4 L45.4,53.6 Z M23,57.8 C23,57.8 20.2,54.8 15.4,58.6 C15.4,58.6 22.2,57.2 23,59.8 L23,57.8 Z M10.6,53.8 C15.6,50.8 18.4,52.4 18.4,52.4 C13,52.2 12.2,56.4 12.2,56.4 C17.8,52.6 23.2,54.8 23.2,54.8 L23.4,53.2 L23.6,51.6 C15.4,47.8 10.6,53.8 10.6,53.8 Z M8.6,44.6 C8.6,44.6 19,39.2 25.8,47.8 C25.6,47.8 18.6,42.2 8.6,44.6 Z M65.6,57 C67.4,56.4 69.8,56.2 72.2,58.2 C72.4,58.4 72.4,59.6 72.4,59.6 L69.8,58.4 C69.8,58.4 60.2,60.8 57.8,62.6 C57.8,62 60.8,58.6 65.6,57 Z M77.2,53.2 C77.2,53.2 74.8,45.2 71.8,45.2 C71.8,45.2 76.4,43.2 77.2,53.2 Z M50.8,18.8 C50.8,18.8 65.2,14.8 71.4,27 C71.4,27 64,16.8 50.8,18.8 Z M76.2,44.6 C76.2,44.6 75.8,32.4 70,31.8 C70,31.8 69.8,28.8 67.2,26.4 C67.2,26.4 70.4,27.6 70.8,30 C71,29.8 77.2,31.4 76.2,44.6 Z M48.8,19.6 C48.8,19.6 46.2,7.2 41.4,3.8 C41.4,3.8 48.4,6.4 48.4,16.2 L48.8,19.6 Z M12.4,17 C12.4,17 25.2,13 31.8,30.4 C31.8,30.4 26.2,19 12.4,17 Z"/>
        <path fill="#E8E7E6" fill-rule="nonzero" d="M12.4,20.2 C12.4,20.2 17,19.6 18.4,25.4 C18.4,25.4 19,17.6 12.4,20.2 Z M0.8,44.6 C0.8,44.6 6.2,27.6 14.8,24.2 C14.8,24.2 3.8,24.4 0.8,44.6 Z M30.6,42.4 C26.8,41 17.8,36.4 19.8,30.8 C19.8,30.8 15.8,36.8 24,40.2 C24,40.2 19.2,38.8 17.2,40.4 C17.2,40.4 25,41.6 29.8,44.2 C29.8,44.2 30.6,43.2 31.6,42.8 C31.4,42.6 30.8,42.6 30.6,42.4 Z M43.8,46 C43.8,46 29,38.2 38.4,37.4 C38.4,37.4 21.6,35.2 43.8,46 Z M43.8,46 C43.8,46 43,48.6 33,43.4 C33,43.4 40.6,46.6 43.8,46 Z M29,1 C29,1 30.4,3.8 26.6,20 C26.8,20.2 36,6 29,1 Z M46.2,30.8 C46.2,30.8 51.6,25.4 56.4,27.4 C56.4,27.4 52.6,23.8 47.6,26 C47.6,26 49.4,24.6 51,24.2 C51,24.2 47.8,24.2 46.8,24.8 C46.8,24.8 44.8,19.2 34,21.8 C33.8,22 45.4,21 46.2,30.8 Z"/>
        <path fill="#693521" fill-rule="nonzero" d="M32.6,69.6 L27.6,73.4 L27.4,75 L26.2,76 C26.2,76 24.4,84 24.8,85.8 C24.8,85.8 28.6,76.8 32.4,71.8 C32.8,71 32.6,69.6 32.6,69.6 Z"/>
        <path fill="#E8E7E6" fill-rule="nonzero" d="M44.6,20.2 C42,17.6 39.2,14.8 38.8,12.4 C38.6,11.4 38.6,10 38.8,8.2 C39.2,4.6 37.2,2.8 32.4,1.2 C32.4,1.2 36.4,3.2 36.6,11.2 C35.8,10.2 33.8,9 33.8,9 C36.4,10.8 35.6,13 36.4,14.6 C37.2,15.8 44.6,20.2 44.6,20.2 Z"/>
        <g transform="translate(24 60)">
          <path fill="#E8E7E6" fill-rule="nonzero" d="M10.6,1.8 C8.2,-3.33066907e-16 1,-1.4 1.8,10.2 C1.8,10.2 2.2,8.4 3.4,8.4 C3.4,8.4 3,11.2 4.4,12 C4.4,12 5.2,9.2 6.2,9.8 C6.2,9.8 8.4,13.4 10.2,13.6 C10.2,13.6 9.8,11 11,11 L13,14 L14.8,10.8 C14.8,10.8 16.2,12.2 15.2,13 C15.2,13 17,13.2 17.4,11.2 C17.4,11.2 19.6,12 19.2,14 C19.2,14 20.8,13.2 20.8,10.8 L22.6,13.2 L23.2,9.4 C23.2,9.4 26.2,10.6 26.2,11.8 C26.2,11.8 27,8.4 24.6,6.2 L27.6,6.8 C27.6,6.8 21,-1 15.4,3.2 C14.8,3.4 13.6,4.4 10.6,1.8 Z"/>
          <path fill="#DADBD9" fill-rule="nonzero" d="M18.6,5.6 C18.6,5.6 26.2,5.8 26.6,11.4 C26.4,11.2 23.6,6 18.6,5.6 Z M10.4,13.6 C10.4,13.6 10.2,8.2 12.4,6.6 C12.4,6.8 8,8.2 10.4,13.6 Z M19.4,13.8 C19.4,13.8 20.6,10 18.6,8.8 C18.6,8.6 22.6,9.8 19.4,13.8 Z M13.2,14 C13.2,14 15.2,9.8 14.6,8 C14.6,8 15,8.4 15.2,9.2 C15.4,10.4 15.2,12 13.2,14 Z"/>
          <path fill="#DADBD9" fill-rule="nonzero" d="M14.2,6.2 C14.2,6.2 16.2,10 15,10.8 L15,11.4 C15,11.4 15.6,11.6 15.8,12.4 C15.8,12.6 17.2,9.4 14.2,6.2 Z M10.4,13.4 C10.4,13.4 7.2,8.4 9.8,6.2 C9.6,6.2 5,10.2 10.4,13.4 Z M4.4,12 C4.4,12 5.6,8 7.4,7.8 C7.6,8 3.2,7 4.4,12 Z"/>
          <path fill="#DADBD9" fill-rule="nonzero" d="M1.8,10.4 C1.8,10.4 2.6,8.4 5,8.4 L6,8 C6,8 2.2,6.4 1.8,10.4 Z M12.2,4.6 C12.2,4.6 4.6,-2.4 2.6,6.4 C2.6,6.4 4.2,3 6.4,3.4 C6.4,3.4 5.2,3.8 5.2,5 C5.2,4.8 7.2,2.4 12.2,4.6 Z M15,4.2 C15,4.2 20.4,0.6 24.6,4.6 C24.4,4.6 21.6,2.6 15,4.2 Z"/>
        </g>
        <path fill="#46423F" fill-rule="nonzero" d="M66.6,81.4 C67,83.2 67.8,84.8 68.6,85.6 C69.6,82.6 69.6,80.2 68.4,78.6 C68,78.2 67.4,77.4 66.8,76.4 C66.4,77.4 66.2,79.4 66.6,81.4 Z"/>
        <path fill="#764F2E" fill-rule="nonzero" d="M57.6,76 C56.6,78 54.2,83.4 52.8,86.8 C51.6,89.8 52.2,92.4 53.8,95.6 C54.2,96.4 57.6,102 57.6,102 C57.6,102 53.6,104 48.6,104 C50,105.6 51.4,106.2 51.4,106.2 C51.4,106.2 55.4,106 60,103.8 C64.6,101.4 65.4,98.2 65.4,98.2 C65.4,98.2 62.4,95.8 61.2,93 C60.4,91.4 59.6,89 59.6,87 C59.6,85.2 60.4,83.8 60.4,83.8 C60.4,83.8 57.8,79.2 57.6,76 Z"/>
        <path fill="#7E542F" fill-rule="nonzero" d="M68.6,85.6 C67.8,84.8 67,83.4 66.6,81.6 C66.6,81.6 66.6,81.6 66.6,81.4 L66.6,81.6 C66.4,82.4 65.6,85.2 65,86 C63.4,88.8 61.8,89.6 60.4,89.6 C60.2,89.6 62,93.2 62,93.2 C62,93.2 65,91.6 66,90 C67,88.4 67.8,87.2 68.2,85.8 L68.6,85.6 Z"/>
        <path fill="#46423F" fill-rule="nonzero" d="M66.6,81.4 C67,83.2 67.8,84.8 68.6,85.6 C69.2,83.4 69.4,81.6 69,80.2 C68.6,81 67.2,81.2 66.6,81.4 Z"/>
        <path fill="#F6F7F7" fill-rule="nonzero" d="M48.6,16 C48.6,16 65.8,9.6 71.6,27 L67.2,26.2 C67.2,26.2 70.6,27.6 71,29.8 C71,29.8 76.4,31.2 76.4,44.4 C76.4,44.4 75,39 71.2,38.4 C71.2,38.4 77,40.8 77.4,53.2 C77.4,53.2 75.2,51.4 73.4,50.6 C73.4,50.6 77.6,53.4 76.2,60.2 C76.2,60.2 75.4,58.4 72.2,58 L72.6,59.4 L70,58.2 C70,58.2 61,60.4 58,62.4 C58,62.4 59.4,54.2 59,54.8 C57.6,56.2 57,56 57,56 C57,56 56.8,54 55.8,49 C55.4,47.2 55.2,44 57,41.8 C58.2,40.2 67,37.6 64.2,31.2 C62.8,28 58.2,31.2 59,30.2 C66.2,23.4 57.8,28.6 56.6,27.6 C52.2,23.4 48,27 46.8,25.2 C45.2,23 50.4,17.6 48.6,16 Z" opacity=".8"/>
        <path fill="#E8E7E6" fill-rule="nonzero" d="M69,52.6 C70,51.4 68.8,45.2 68.8,45.2 C68.8,45.2 68.8,45.6 68,49.6 C67,53.6 63.4,53.8 62.8,54 C62.6,54 62.6,54 62.4,54 C61.2,54.2 59,54.6 59,54.6 C59.2,54.8 59.2,55.4 59,56.2 C59.6,55.8 61.4,55.6 62.2,55.4 C62.6,55.4 62.8,55.4 62.8,55.4 C72.2,54.6 76.2,60.4 76.2,60.4 C75.4,53.2 69,52.6 69,52.6 Z"/>
        <g transform="translate(44 28)">
          <path fill="#E9E9EB" fill-rule="nonzero" d="M13.8,34.2 C13.8,34.4 13.6,34.4 13.8,34.2 C13.6,34.4 13.8,34.4 13.8,34.2 Z M13.6,34.2 C13.8,33.6 14,32.4 14.2,31 C14.2,32.2 13.8,33.6 13.6,34.2 Z" opacity=".8"/>
          <path fill="#F2F2F2" fill-rule="nonzero" d="M14.4,31 C14.4,30.8 14.4,30.8 14.4,30.6 C14.4,30.8 14.4,30.8 14.4,31 Z M13.6,34.4 C13.6,34.4 13.6,34.2 13.6,34.4 C13.6,34.2 13.6,34.4 13.6,34.4 Z"/>
          <g fill="#E8E7E6" fill-rule="nonzero">
            <path d="M28.2,13.6 C22.4,12 18,13.6 15.2,15.8 C13,17.6 11.6,19.8 11.4,20.8 L11.4,21 C16,11 25.8,12.8 28.2,13.6 Z"/>
            <path d="M19.6,11.2 C20.4,10 21.2,8.4 21.6,5.8 C22.6,3.77475828e-15 16,1.6 16,1.6 C16,1.6 21,1.2 20.4,5.4 C19.8,9.6 12.6,13.6 12.6,13.6 C13.2,11 13.2,8.2 10.6,6.8 C10.6,6.8 12.4,11.4 9.4,19.4 C8.6,5.4 0,6 0,6 C7.2,7.8 8.4,20 8.4,21.4 C8.2,22 8,22.4 7.6,23 C7.6,23 8.8,24.4 10.4,18.8 L11.2,21 C15.8,11 25.6,13 28,13.6 C28.4,13.6 28.6,13.8 28.6,13.8 C26.8,10 21.4,10.8 19.6,11.2 Z"/>
          </g>
        </g>
        <path fill="#E9E9EB" fill-rule="nonzero" d="M73.2,50.6 C75.2,51.2 77.2,53.2 77.2,53.2 C77.2,51 76.8,49 76.4,47.2 C76,45.2 75.4,43.6 74.6,42.4 C73.8,42 72.8,41.8 72,41.6 C69.6,41 59.8,39 55.2,49 C55.8,51.6 56.4,55.8 56.4,55.8 C56.4,56 57.4,55.6 58.2,54.6 C58.2,54.6 58.2,54.6 58.4,54.6 C58.6,54.8 58.4,56.8 58.2,58.6 C58.2,58.8 58.2,58.8 58.2,59 C58,60.4 57.6,61.6 57.6,62.2 L57.6,62.4 C57.6,62.4 57.8,62.4 57.8,62.2 C60.6,60.4 69.6,58.2 69.6,58.2 L72.2,59.4 C72.2,59.4 72.2,58.4 72.2,58.2 C73.8,58.4 74.8,59 75.2,59.6 C75.6,60.2 75.8,60.4 75.8,60.4 C77.4,53.4 73.2,50.6 73.2,50.6 Z" opacity=".65"/>
        <path fill="#DCAD84" fill-rule="nonzero" d="M14.8,69.8 C14.4,69.2 15,71.4 16.2,72 C17.4,72.6 18.8,72 18.8,72 C18.8,72 16,72 14.8,69.8 Z"/>
        <path fill="#5B4026" fill-rule="nonzero" d="M60.4,83.6 C60.4,83.6 57.2,80.2 57.6,76 C57.6,76.2 58,79.8 60.4,83.6 Z"/>
        <path fill="#693521" fill-rule="nonzero" d="M49.4,96 C49.4,96 55.4,94.4 57.8,93 C57.8,93 58.4,94.4 58.6,94.8 C57,96 51.6,97.8 50,98 L49.4,96 Z"/>
      </g>
    </g>
  </g>
</svg>