<svg xmlns="http://www.w3.org/2000/svg" width="120" height="120"><filter id="b" filterUnits="userSpaceOnUse" y="8" x="-7"><feOffset dy="3" in="SourceGraphic" result="offOut"/><feGaussianBlur in="offOut" stdDeviation="2" result="blurOut"/><feBlend in="SourceGraphic" in2="blurOut"/></filter><g enable-background="new"><g><linearGradient id="a" gradientUnits="userSpaceOnUse" x1="60" y1="120" x2="60"><stop offset="0" stop-color="#6371C7"/><stop offset="1" stop-color="#7A86CF"/></linearGradient><path d="M108 0h-96c-6.627 0-12 5.373-12 12v96c0 6.628 5.373 12 12 12h96c6.628 0 12-5.372 12-12v-96c0-6.627-5.372-12-12-12z" fill-rule="evenodd" clip-rule="evenodd" fill="url(#a)"/></g><path d="M94 23h-67.667c-4.418 0-4 1.582-4 6v59.334c0 4.418.582 5 5 5h67.667c4.418 0 5-.582 5-5v-59.334c0-4.418-1.582-6-6-6z" fill-rule="evenodd" clip-rule="evenodd" fill="#535EA7"/><path d="M88 29h-46c-4.418 0-8 3.582-8 8v21.334c0 4.418 3.582 8 8 8h44c4.418 0 8-3.582 8-8v-23.334c0-4.418-1.582-6-6-6z" fill-rule="evenodd" clip-rule="evenodd" fill="#fff"/><path d="M95.667 37.694h-38.111c-4.111 0-6.223-4-7-6-.778-2-3.111-8.694-6.667-8.694h-17.889c-4.418 0-6 1.582-6 6v61c0 4.419 1.582 6 6 6h68c4.418 0 6-1.581 6-6v-47.194s-.223-5.112-4.333-5.112z" fill-rule="evenodd" clip-rule="evenodd" fill="#B4C5EB"/><path d="M94.329 39.512h-36.682c-3.957 0-5.989-3.85-6.737-5.775-.749-1.925-2.995-8.368-6.417-8.368h-17.218c-4.253 0-5.775 1.523-5.775 5.775v58.713c0 4.253 1.522 5.775 5.775 5.775h65.449c4.253 0 5.775-1.522 5.775-5.775v-45.425s-.213-4.92-4.17-4.92z" opacity=".2" filter="url(#b)"/><g><linearGradient id="c" gradientUnits="userSpaceOnUse" x1="60" y1="96" x2="60" y2="23"><stop offset="0" stop-color="#8496D7"/><stop offset=".783" stop-color="#ADBBEC"/></linearGradient><path d="M95.667 37.694h-38.111c-4.111 0-6.223-4-7-6-.778-2-3.111-8.694-6.667-8.694h-17.889c-4.418 0-6 1.582-6 6v61c0 4.419 1.582 6 6 6h68c4.418 0 6-1.581 6-6v-47.194s-.223-5.112-4.333-5.112z" fill-rule="evenodd" clip-rule="evenodd" fill="url(#c)"/></g></g></svg>