<svg xmlns="http://www.w3.org/2000/svg" width="120" height="120"><filter id="b" filterUnits="userSpaceOnUse" y="8" x="-7"><feOffset dy="3" in="SourceGraphic" result="offOut"/><feGaussianBlur in="offOut" stdDeviation="2" result="blurOut"/><feBlend in="SourceGraphic" in2="blurOut"/></filter><g><g><linearGradient id="a" gradientUnits="userSpaceOnUse" x1="-157.334" y1="348.297" x2="-157.334" y2="228.297" gradientTransform="translate(217.334 -228.297)"><stop offset="0" stop-color="#EAC447"/><stop offset="1" stop-color="#EDCD62"/></linearGradient><path d="M108 0h-96c-6.627 0-12 5.373-12 12v96c0 6.628 5.373 12 12 12h96c6.627 0 12-5.372 12-12v-96c0-6.627-5.373-12-12-12z" fill-rule="evenodd" clip-rule="evenodd" fill="url(#a)"/></g><g opacity=".2" filter="url(#b)"><path d="M91.278 80.043l-5.189-4.608c3.071-4.563 4.439-10.044 4.439-15.938 0-15.881-14.584-30.055-30.611-30.055-16.028 0-30.438 14.174-30.438 30.055 0 15.882 14.41 30.445 30.438 30.445 5.315 0 10.3-1.927 14.584-4.399l4.928 5.873c-6.16 4.061-11.508 5.127-19.459 5.127-21.46 0-37.151-15.939-37.151-37.205 0-21.264 26.64-43.095 37.151-41.995 13.876 1.452 37.219 20.731 37.219 41.995-.001 8.538-1.165 14.319-5.911 20.705zM74.988 52.815c.277-.262.277-.718 0-.984l-3.658-3.488c-.276-.267-.752-.267-1.027 0l-15.098 15.2-6.583-6.601c-.275-.266-.748-.266-1.022 0l-3.691 3.082c-.275.266-.275.724 0 .985l10.786 10.233c.153.113.316.19.511.19.197 0 .355-.077.51-.19l19.272-18.427z"/></g><g fill="#FEFDF0"><path d="M91.278 82.152l-7.203-6.718c3.072-4.563 4.857-10.044 4.857-15.938 0-15.881-12.988-28.759-29.016-28.759s-29.021 12.878-29.021 28.759c0 15.882 12.992 28.759 29.021 28.759 5.315 0 10.3-1.418 14.584-3.891l6.974 7.051c-6.16 4.061-13.554 6.427-21.505 6.427-21.46 0-38.854-17.239-38.854-38.505 0-21.264 17.394-38.503 38.854-38.503 21.459 0 38.855 17.239 38.855 38.503.001 8.539-2.8 16.431-7.546 22.815zM76.294 52.815c.277-.262.277-.718 0-.984l-4.964-4.777c-.276-.267-.752-.267-1.027 0l-15.098 14.564-6.583-6.37c-.275-.267-.748-.267-1.022 0l-4.968 4.776c-.275.266-.275.724 0 .985l12.062 11.61c.153.113.316.191.511.191.197 0 .355-.078.51-.191l20.579-19.804z"/></g><g><linearGradient id="c" gradientUnits="userSpaceOnUse" x1="95.414" y1="976.215" x2="95.414" y2="922.334" gradientTransform="translate(-2.329 -856.215)"><stop offset="0" stop-color="#E4920E"/><stop offset="1" stop-color="#EB9E21"/></linearGradient><path d="M66.171 120h41.829c6.627 0 12-5.372 12-12v-41.881l-53.829 53.881z" fill-rule="evenodd" clip-rule="evenodd" fill="url(#c)"/></g><path d="M112.373 109.945c0 .625-.485 1.152-1.07 1.273-2.001.464-4 .687-6.043.687-2.041 0-4.103-.223-6.103-.687-.585-.121-1.01-.648-1.01-1.273v-6.931c0-.728.545-1.456 1.252-1.456h.688v-3.232c0-3.112 2.081-5.173 5.172-5.173 3.093 0 5.174 2.061 5.174 5.173v3.232h.627c.706 0 1.312.667 1.312 1.394v6.993zm-5.173-8.386v-3.232c0-.829-.201-1.94-1.94-1.94-1.737 0-1.939 1.111-1.939 1.94v3.232h3.879z" fill="#FCEDD2"/></g></svg>