<svg xmlns="http://www.w3.org/2000/svg" width="120" height="120"><filter id="c" filterUnits="userSpaceOnUse" y="8" x="-7"><feOffset dy="3" in="SourceGraphic" result="offOut"/><feGaussianBlur in="offOut" stdDeviation="2" result="blurOut"/><feBlend in="SourceGraphic" in2="blurOut"/></filter><g><g><linearGradient id="a" gradientUnits="userSpaceOnUse" x1="63.096" y1="671.75" x2="63.096" y2="551.75" gradientTransform="translate(-3.096 -551.75)"><stop offset="0" stop-color="#EAC447"/><stop offset="1" stop-color="#EDCD62"/></linearGradient><path d="M108 0h-96c-6.627 0-12 5.373-12 12v96c0 6.628 5.373 12 12 12h96c6.627 0 12-5.372 12-12v-96c0-6.627-5.373-12-12-12z" fill-rule="evenodd" clip-rule="evenodd" fill="url(#a)"/></g><g><linearGradient id="b" gradientUnits="userSpaceOnUse" x1="95.333" y1="975.526" x2="95.333" y2="920.75" gradientTransform="translate(-2.166 -855.526)"><stop offset="0" stop-color="#32AF5C"/><stop offset="1" stop-color="#50BB74"/></linearGradient><path d="M66.334 120h41.666c6.627 0 12-5.372 12-12v-42.776l-53.666 54.776z" fill-rule="evenodd" clip-rule="evenodd" fill="url(#b)"/></g><g opacity=".2" filter="url(#c)"><path d="M91.278 80.043l-5.19-4.608c3.072-4.563 4.44-10.044 4.44-15.937 0-15.882-14.584-30.055-30.612-30.055-16.027 0-30.438 14.173-30.438 30.055 0 15.881 14.411 30.445 30.438 30.445 5.316 0 10.3-1.928 14.584-4.4l4.928 5.873c-6.16 4.061-11.508 5.127-19.458 5.127-21.46 0-37.152-15.939-37.152-37.204s26.64-43.096 37.152-41.996c13.876 1.453 37.218 20.731 37.218 41.996 0 8.538-1.165 14.319-5.91 20.704zM74.988 52.816c.277-.263.277-.718 0-.985l-3.659-3.488c-.276-.267-.752-.267-1.027 0l-15.098 15.2-6.583-6.6c-.275-.267-.748-.267-1.022 0l-3.69 3.082c-.275.265-.275.723 0 .984l10.785 10.233c.154.114.316.191.511.191.197 0 .355-.077.511-.191l19.272-18.426z"/></g><g fill="#FEFDF0"><path d="M91.278 82.153l-7.203-6.719c3.071-4.563 4.857-10.044 4.857-15.937 0-15.882-12.988-28.76-29.017-28.76-16.027 0-29.021 12.878-29.021 28.76 0 15.881 12.993 28.759 29.021 28.759 5.316 0 10.3-1.418 14.584-3.891l6.975 7.05c-6.16 4.061-13.555 6.427-21.505 6.427-21.46 0-38.854-17.239-38.854-38.504s17.395-38.502 38.855-38.502c21.458 0 38.854 17.238 38.854 38.503 0 8.538-2.801 16.429-7.546 22.814zM76.293 52.816c.277-.263.277-.718 0-.985l-4.964-4.777c-.276-.267-.752-.267-1.027 0l-15.098 14.564-6.583-6.37c-.275-.267-.748-.267-1.022 0l-4.968 4.777c-.275.265-.275.723 0 .984l12.062 11.61c.154.114.316.191.511.191.197 0 .355-.077.511-.191l20.578-19.803z"/></g><linearGradient id="d" gradientUnits="userSpaceOnUse" x1="94.334" y1="102.297" x2="112.478" y2="102.297"><stop offset="0" stop-color="#C7ECD4"/><stop offset=".877" stop-color="#D7FCE4"/></linearGradient><path d="M112.362 100.876c-.585 1.078-2.077 2.683-3.949 4.271.511 2.079.852 3.93.945 5.234.02.34-.132.643-.415.831-.152.096-.322.151-.492.151-.151 0-.284-.038-.415-.095-.322-.188-.68-.358-1.04-.529-.981-.49-2.172-1.039-3.59-1.927-1.417.888-2.608 1.437-3.589 1.927-.36.171-.72.341-1.041.529-.284.151-.642.134-.907-.057-.283-.188-.434-.491-.415-.831.094-1.305.435-3.155.944-5.234-1.87-1.588-3.362-3.192-3.949-4.271-.131-.227-.15-.51-.057-.755.077-.228.246-.436.493-.529.904-.396 3.287-.549 5.346-.623.644-1.872 1.683-4.631 2.531-5.48.19-.17.417-.265.644-.265s.454.095.623.265c.868.85 1.909 3.608 2.552 5.48 2.061.074 4.44.228 5.346.623.227.094.416.302.492.529.095.246.075.529-.057.756z" fill="url(#d)"/></g></svg>