<svg xmlns="http://www.w3.org/2000/svg" width="120" height="120"><g enable-background="new"><path d="M60 0h-48c-6.627 0-12 5.373-12 12v48h60v-60z" fill="#3C97DD"/><path d="M108 0h-48v60h60v-48c0-6.627-5.373-12-12-12z" fill="#3CB364"/><path d="M0 60v48c0 6.627 5.373 12 12 12h48v-60h-60z" fill="#8A75CD"/><path d="M60 120h48c6.627 0 12-5.373 12-12v-48h-60v60z" fill="#4DB1CA"/><path d="M81.146 94.265l-4.093 6.729 6.725-4.094-.518-2.12-2.114-.515zm2.114-9.921l.517-2.118-6.724-4.092 4.093 6.723 2.114-.513zm10.445 10.435l-.516 2.118 6.723 4.092-4.094-6.725-2.113.515zm2.113-9.922l4.098-6.724-6.732 4.093.514 2.117 2.12.514zm-3.524.889l-3.81-15.689-3.821 15.689-15.685 3.815 15.685 3.814 3.821 15.688 3.816-15.687 15.685-3.814-15.691-3.816zm-3.812 5.73c-1.052 0-1.904-.853-1.904-1.902 0-1.053.852-1.905 1.904-1.905 1.051 0 1.903.853 1.903 1.905 0 1.049-.852 1.902-1.903 1.902z" fill-rule="evenodd" clip-rule="evenodd" fill="#EFFAFA"/><path d="M31.974 75.365h-6.434c-.445 0-.867.824-1.241.771-1.048-.147-1.724-.492-1.884-.581-.568-.374-1.529-.334-2.339-.334h-.301c-1.238 0-1.479-.1-1.479 1.337v3.915c0 1.436.24 1.335 1.479 1.335h.301c.913 0 2.018.053 2.536-.494.481-.329 1.554-.929 2.645-.606 1.358.513 1.404 1.755 1.524 2.354v6.121c-.615.319-1.033.812-1.033 1.479v11.557000000000002c0 2.563 6.131 2.563 6.131 0v-11.557000000000002c0-.667-.419-1.159-1.034-1.479v-7.391c.068-.774.167-1.515.452-1.592 3.35-.906 6.398 2.973 6.398 2.973l2.822-.038s-3.651-7.77-8.543-7.77z" fill-rule="evenodd" clip-rule="evenodd" fill="#F5F4FF"/><path d="M43.228 18.025h-26.001v6.008h26.001v-6.008zm-26.001 25.968h5.981v-16.016h-5.981v16.016zm10.108-16.016v16.017h15.894v-16.017h-15.894z" fill-rule="evenodd" clip-rule="evenodd" fill="#E4F1FD"/><path d="M103.438 17.214s-1.624 1.74-9.918.417c-7.554-1.205-10.683.256-13.395 2.966-2.711 2.712-5.677 11.099-.046 16.729.974.881-3.337 4.943-3.337 4.943l1.174 1.699 4.944-3.953s3.006 2.872 7.276 2.872c5.934 0 12.654-2.549 13.071-11.447.263-5.602-1.205-9.591.231-14.226zm-4.237 5.092c-.008.008-2.655 2.449-7.023 6.817-3.886 3.885-8.42 7.921-8.423 7.924-.07.062-.158.094-.246.094-.086 0-.171-.028-.24-.087-.141-.12-.173-.325-.074-.481.012-.012 3.989-6.34 7.212-9.328 3.348-3.095 8.365-5.535 8.381-5.544.165-.081.364-.027.469.124.101.151.078.357-.056.481z" fill-rule="evenodd" clip-rule="evenodd" fill="#E6F8EC"/></g></svg>