<svg xmlns="http://www.w3.org/2000/svg" width="120" height="120"><filter id="b" filterUnits="userSpaceOnUse" y="8" x="-7"><feOffset dy="3" in="SourceGraphic" result="offOut"/><feGaussianBlur in="offOut" stdDeviation="2" result="blurOut"/><feBlend in="SourceGraphic" in2="blurOut"/></filter><g enable-background="new"><g><linearGradient id="a" gradientUnits="userSpaceOnUse" x1="-1070.438" y1="119.203" x2="-1070.438" y2="-.797" gradientTransform="translate(1130.437 .797)"><stop offset="0" stop-color="#EAC447"/><stop offset="1" stop-color="#EDCD62"/></linearGradient><path d="M108 0h-96c-6.627 0-12 5.373-12 12v96c0 6.628 5.373 12 12 12h96c6.627 0 12-5.372 12-12v-96c0-6.627-5.373-12-12-12z" fill-rule="evenodd" clip-rule="evenodd" fill="url(#a)"/></g><g><path d="M93.562 36.609v47.456c0 1.275-1.062 2.338-2.338 2.338h-23.515c-1.487 2.621-4.533 4.533-8.146 4.533s-6.658-1.912-8.146-4.533h-23.515c-1.275 0-2.338-1.062-2.338-2.338v-47.456c0-1.275 1.062-2.338 2.338-2.338h4.462v40.799c0 1.275.991 2.267 2.267 2.267h6.8c5.312 0 12.537.921 16.433 5.171.921.991 2.479.921 3.4 0 3.896-4.25 11.12-5.171 16.433-5.171h6.871c1.204 0 2.195-.991 2.195-2.267v-40.799h4.462c1.275 0 2.337 1.063 2.337 2.338zm-56.665-6.871h4.816c7.792 0 12.183 1.062 15.583 7.013v39.595c-4.888-2.834-11.05-3.542-15.866-3.542h-4.533v-43.066zm40.586 0h4.746v43.065h-4.462c-4.817 0-11.05.708-15.938 3.542v-39.594c3.401-5.95 7.863-7.013 15.654-7.013z" opacity=".2" filter="url(#b)"/><path d="M93.562 36.609v47.456c0 1.275-1.062 2.338-2.338 2.338h-23.515c-1.487 2.621-4.533 4.533-8.146 4.533s-6.658-1.912-8.146-4.533h-23.515c-1.275 0-2.338-1.062-2.338-2.338v-47.456c0-1.275 1.062-2.338 2.338-2.338h4.462v40.799c0 1.275.991 2.267 2.267 2.267h6.8c5.312 0 12.537.921 16.433 5.171.921.991 2.479.921 3.4 0 3.896-4.25 11.12-5.171 16.433-5.171h6.871c1.204 0 2.195-.991 2.195-2.267v-40.799h4.462c1.275 0 2.337 1.063 2.337 2.338zm-56.665-6.871h4.816c7.792 0 12.183 1.062 15.583 7.013v39.595c-4.888-2.834-11.05-3.542-15.866-3.542h-4.533v-43.066zm40.586 0h4.746v43.065h-4.462c-4.817 0-11.05.708-15.938 3.542v-39.594c3.401-5.95 7.863-7.013 15.654-7.013z" fill="#FEFDF0"/></g></g></svg>