<svg xmlns="http://www.w3.org/2000/svg" width="120" height="120"><g enable-background="new"><g><linearGradient id="a" gradientUnits="userSpaceOnUse" x1="60" y1="120" x2="60"><stop offset="0" stop-color="#B8C1CA"/><stop offset="1" stop-color="#BCC4CD"/></linearGradient><path d="M108 0h-96c-6.627 0-12 5.373-12 12v96c0 6.628 5.373 12 12 12h96c6.627 0 12-5.372 12-12v-96c0-6.627-5.373-12-12-12z" fill-rule="evenodd" clip-rule="evenodd" fill="url(#a)"/></g><ellipse cx="60.5" cy="59.501" rx="34.509" ry="34.499" fill-rule="evenodd" clip-rule="evenodd" fill="#EBECED"/><path d="M77.775 68.906c-.386-.805-1.555-1.994-3.703-1.228 0 0-6.48 2.455-13.577 2.455-7.097 0-13.577-2.455-13.577-2.455-2.109-.69-3.163.308-3.703 1.228-.531.905-1.024 3.223 2.468 4.909 0 0 7.727 2.455 14.811 2.455 7.109 0 14.811-2.455 14.811-2.455 3.265-1.152 2.856-4.103 2.47-4.909z" fill-rule="evenodd" clip-rule="evenodd" fill="#ADB5BC"/><ellipse cx="49.388" cy="52.951" rx="6.171" ry="6.137" fill-rule="evenodd" clip-rule="evenodd" fill="#ADB5BC"/><ellipse cx="71.604" cy="52.951" rx="6.171" ry="6.137" fill-rule="evenodd" clip-rule="evenodd" fill="#ADB5BC"/></g></svg>