<svg xmlns="http://www.w3.org/2000/svg" width="120" height="120"><filter id="b" filterUnits="userSpaceOnUse" y="8" x="-7"><feOffset dy="3" in="SourceGraphic" result="offOut"/><feGaussianBlur in="offOut" stdDeviation="2" result="blurOut"/><feBlend in="SourceGraphic" in2="blurOut"/></filter><g enable-background="new"><g><linearGradient id="a" gradientUnits="userSpaceOnUse" x1="60" y1="120" x2="60"><stop offset="0" stop-color="#51A0D1"/><stop offset="1" stop-color="#5AA5D3"/></linearGradient><path d="M108 0h-96c-6.627 0-12 5.373-12 12v96c0 6.628 5.373 12 12 12h96c6.627 0 12-5.372 12-12v-96c0-6.627-5.373-12-12-12z" fill-rule="evenodd" clip-rule="evenodd" fill="url(#a)"/></g><ellipse cx="60.5" cy="59.502" rx="33" ry="32.99" opacity=".2" filter="url(#b)"/><g><linearGradient id="c" gradientUnits="userSpaceOnUse" x1="60.5" y1="94" x2="60.5" y2="25.003"><stop offset="0" stop-color="#CBDCEB"/><stop offset="1" stop-color="#DFEFFE"/></linearGradient><ellipse cx="60.5" cy="59.501" rx="34.509" ry="34.499" fill-rule="evenodd" clip-rule="evenodd" fill="url(#c)"/></g><path d="M77.775 68.906c-.386-.805-1.556-1.994-3.703-1.228 0 0-6.48 2.455-13.577 2.455-7.097 0-13.577-2.455-13.577-2.455-2.109-.69-3.163.308-3.703 1.228-.531.905-1.024 3.223 2.469 4.909 0 0 7.727 2.455 14.811 2.455 7.109 0 14.811-2.455 14.811-2.455 3.264-1.152 2.855-4.103 2.469-4.909z" fill-rule="evenodd" clip-rule="evenodd" fill="#4185AF"/><ellipse cx="49.388" cy="52.951" rx="6.171" ry="6.137" fill-rule="evenodd" clip-rule="evenodd" fill="#4185AF"/><ellipse cx="71.604" cy="52.951" rx="6.171" ry="6.137" fill-rule="evenodd" clip-rule="evenodd" fill="#4185AF"/></g></svg>