<svg xmlns="http://www.w3.org/2000/svg" width="120" height="120"><filter id="b" filterUnits="userSpaceOnUse" y="8" x="-7"><feOffset dy="3" in="SourceGraphic" result="offOut"/><feGaussianBlur in="offOut" stdDeviation="2" result="blurOut"/><feBlend in="SourceGraphic" in2="blurOut"/></filter><g><g><linearGradient id="a" gradientUnits="userSpaceOnUse" x1="-145.5" y1="120.5" x2="-145.5" y2=".5" gradientTransform="translate(205.5 -.5)"><stop offset="0" stop-color="#8199AF"/><stop offset="1" stop-color="#879EB3"/></linearGradient><path d="M108 0h-96c-6.627 0-12 5.373-12 12v96c0 6.628 5.373 12 12 12h96c6.627 0 12-5.372 12-12v-96c0-6.627-5.373-12-12-12z" fill-rule="evenodd" clip-rule="evenodd" fill="url(#a)"/></g><circle cx="59.5" cy="60.5" r="40.5" fill-rule="evenodd" clip-rule="evenodd" fill="#5C7995"/><path d="M77.452 71.366c-.185 2.528-.463 3.586-.925 6.114-.14.782-.926 1.563-1.712 1.655-5.041.597-10.036.919-15.078.919-4.996 0-9.991-.322-14.985-.919-.786-.092-1.573-.874-1.713-1.655-.693-4.09-1.062-8.273-1.062-12.409 0-4.182.369-8.363 1.062-12.453.14-.781.927-1.516 1.713-1.653 3.052-.368 6.058-.598 9.065-.736 0 0 4.113-.138 3.928-2.39-.184-2.022-5.363-4.836-5.363-8.329 0-2.758 2.822-5.009 7.354-5.009 4.533 0 7.308 2.251 7.308 5.009 0 3.493-4.999 6.306-5.184 8.329-.185 2.252 3.75 2.39 3.75 2.39 3.052.138 6.151.368 9.204.736.786.137 1.572.873 1.712 1.653.508 2.85.786 4.239.971 7.042.046.827-.647 1.47-1.526 1.47l-.832-.045c-.878 0-2.128-.506-2.729-1.149 0 0-1.99-1.977-4.07-2.022-3.423-.091-6.06 4.17-6.06 7.434 0 3.217 2.59 7.996 6.013 7.903 2.081-.092 4.07-2.114 4.07-2.114.647-.598 1.851-1.149 2.729-1.149.277-.046.556-.046.833-.046.879-.001 1.573.642 1.527 1.424z" opacity=".2" filter="url(#b)"/><text transform="translate(36.302 81.399)" fill="#8EA5BA" font-family="SSPika" font-size="47">puzzle</text></g></svg>