<svg xmlns="http://www.w3.org/2000/svg" width="120" height="120"><filter id="b" filterUnits="userSpaceOnUse" y="8" x="-7"><feOffset dy="3" in="SourceGraphic" result="offOut"/><feGaussianBlur in="offOut" stdDeviation="2" result="blurOut"/><feBlend in="SourceGraphic" in2="blurOut"/></filter><g enable-background="new"><g><linearGradient id="a" gradientUnits="userSpaceOnUse" x1="60" y1="120" x2="60"><stop offset="0" stop-color="#E8C44C"/><stop offset="1" stop-color="#EBCD67"/></linearGradient><path d="M108 0h-96c-6.627 0-12 5.373-12 12v96c0 6.628 5.373 12 12 12h96c6.627 0 12-5.372 12-12v-96c0-6.627-5.373-12-12-12z" fill-rule="evenodd" clip-rule="evenodd" fill="url(#a)"/></g><path d="M98.497 45.977h-76.994l.06 34.547-.02 10.008c0 4.17 1.452 5.497 5.617 5.497h65.72c4.165 0 5.617-1.198 5.617-5.368l.006-10.106-.006-34.578z" opacity=".19" filter="url(#b)"/><path d="M100 44h-80l.062 35.896-.02 10.399c0 4.333 1.508 5.711 5.836 5.711h68.286c4.328 0 5.836-1.245 5.836-5.577l.006-10.501-.006-35.928z" fill-rule="evenodd" clip-rule="evenodd" fill="#F3EBCB"/><path d="M73 16h-26c-3.896 0-6 2.041-6 6v14h10v-11h18v11h10v-14c0-3.86-2.067-6-6-6z" fill-rule="evenodd" clip-rule="evenodd" fill="#B49B46"/><path d="M98.937 43.724l.02-2.882c0-3.672-1.471-4.841-5.689-4.841h-66.575c-4.22 0-5.69 1.056-5.69 4.729l-.006 2.968.006 17.74h77.994l-.06-17.714z" opacity=".24" filter="url(#b)"/><path d="M99.938 43.104l.02-3.399c0-4.332-1.508-5.711-5.836-5.711h-68.286c-4.328 0-5.836 1.245-5.836 5.577l-.006 3.502.006 20.927h80l-.062-20.896z" fill-rule="evenodd" clip-rule="evenodd" fill="#FAF6E6"/><path d="M53 55v17c0 2.948 2.958 6 6 6h2c2.979 0 6-3.052 6-6v-17h-14z" fill-rule="evenodd" clip-rule="evenodd" fill="#CFB354"/><circle cx="60" cy="71" r="3" fill-rule="evenodd" clip-rule="evenodd" fill="#F3EBCB"/></g></svg>