<svg xmlns="http://www.w3.org/2000/svg" width="120" height="120"><filter id="d" filterUnits="userSpaceOnUse" y="-4" x="-7"><feOffset dy="-2" in="SourceGraphic" result="offOut"/><feGaussianBlur in="offOut" stdDeviation="1" result="blurOut"/><feBlend in="SourceGraphic" in2="blurOut"/></filter><filter id="b" filterUnits="userSpaceOnUse" y="8" x="-7"><feOffset dy="3" in="SourceGraphic" result="offOut"/><feGaussianBlur in="offOut" stdDeviation="2" result="blurOut"/><feBlend in="SourceGraphic" in2="blurOut"/></filter><g enable-background="new"><g><linearGradient id="a" gradientUnits="userSpaceOnUse" x1="381" y1="-196" x2="381" y2="-316" gradientTransform="translate(-321 316)"><stop offset="0" stop-color="#EAC447"/><stop offset="1" stop-color="#EDCD62"/></linearGradient><path d="M108 0h-96c-6.627 0-12 5.373-12 12v96c0 6.628 5.373 12 12 12h96c6.627 0 12-5.372 12-12v-96c0-6.627-5.373-12-12-12z" fill-rule="evenodd" clip-rule="evenodd" fill="url(#a)"/></g><g><path d="M99.869 89.668c0 1.694-1.374 3.068-3.068 3.068h-72.864c-1.694 0-3.068-1.374-3.068-3.068v-60.848c0-1.694 1.374-3.068 3.068-3.068h72.864c1.694 0 3.068 1.374 3.068 3.068v60.848z" opacity=".2" filter="url(#b)"/><g><linearGradient id="c" gradientUnits="userSpaceOnUse" x1="58.022" y1="-373" x2="58.022" y2="-421.166" gradientTransform="translate(2.994 456.994)"><stop offset="0" stop-color="#D2DDE8"/><stop offset="1" stop-color="#D7E3ED"/></linearGradient><rect x="21.041" y="35.828" width="79.949" height="48.166" fill-rule="evenodd" clip-rule="evenodd" fill="url(#c)"/></g><path d="M74.95 56.102s-7.106-5.652-8.327-4.674c-2.94 2.357-2.662 3.796-6.565.938-.104-.075-5.359-.851-5.46-.932-1.396-1.123-7.692 4.568-7.692 4.568l-23.37 25.342-.019 6.002c0 4.062 1.415 5.355 5.474 5.355h64.046c4.059 0 5.474-1.168 5.474-5.23l.006-6.098-23.567-25.271z" opacity=".4" filter="url(#d)"/><g><linearGradient id="e" gradientUnits="userSpaceOnUse" x1="58.024" y1="-362.994" x2="58.024" y2="-407.151" gradientTransform="translate(2.994 456.994)"><stop offset="0" stop-color="#DCE7F1"/><stop offset="1" stop-color="#EAEFF5"/></linearGradient><path d="M75.872 54.977s-7.577-6.025-8.878-4.982c-3.135 2.514-2.838 4.047-7 1-.111-.081-5.714-.907-5.822-.994-1.489-1.197-8.201 4.871-8.201 4.871l-24.916 27.018-.02 6.4c0 4.331 1.508 5.71 5.836 5.71h68.286c4.328 0 5.836-1.245 5.836-5.577l.007-6.501-25.128-26.945z" fill-rule="evenodd" clip-rule="evenodd" fill="url(#e)"/></g><path d="M94.166 26.791h-66.302c-4.308 0-5.85 1.546-5.85 5.857l.01 2.178s32.458 26.816 35.068 28.937c2.372 1.927 6.447 1.899 8.78 0 3.798-3.091 34.375-28.707 34.14-28.694l.002-2.42c0-4.312-1.54-5.858-5.848-5.858z" opacity=".5" filter="url(#b)"/><path d="M94.998 24.994h-67.967c-4.416 0-5.996 1.584-5.996 6.004l.01 6.333s33.273 27.489 35.949 29.663c2.432 1.975 6.609 1.946 9 0 3.894-3.169 35.239-29.428 34.998-29.415l.002-6.581c0-4.42-1.58-6.004-5.996-6.004z" fill-rule="evenodd" clip-rule="evenodd" fill="#EBF2F9"/></g></g></svg>