<svg xmlns="http://www.w3.org/2000/svg" width="120" height="120"><filter id="b" filterUnits="userSpaceOnUse" y="8" x="-7"><feOffset dy="3" in="SourceGraphic" result="offOut"/><feGaussianBlur in="offOut" stdDeviation="2" result="blurOut"/><feBlend in="SourceGraphic" in2="blurOut"/></filter><g enable-background="new"><g><linearGradient id="a" gradientUnits="userSpaceOnUse" x1="60" y1="120" x2="60"><stop offset="0" stop-color="#EAC447"/><stop offset="1" stop-color="#EDCD62"/></linearGradient><path d="M108 0h-96c-6.627 0-12 5.373-12 12v96c0 6.628 5.373 12 12 12h96c6.627 0 12-5.372 12-12v-96c0-6.627-5.373-12-12-12z" fill-rule="evenodd" clip-rule="evenodd" fill="url(#a)"/></g><path d="M30.811 81.92zm62.439-44.732c-.172-.122.482.084-.884-.532-1.109-.501-2.761.332-4.613 2.259-3.274 3.41-16.278 15.781-17.249 16.904-.579.67-1.905.757-4.201-.744-2.293-1.501-9.096-5.619-10.693-6.561-1.596-.942-3.596-1.025-5.433.914-1.835 1.939-18.908 26.24-20.256 28.453-.757 1.242-.272 3.221.373 3.672l.517.367c-.103-.089-.168-.179.154-.051.812.322 2.622.906 4.34-1.309 1.719-2.215 18.953-16.853 19.256-17.158.463-.467 1.669-1.551 3.545-.282 1.877 1.268 9.55 6.321 10.248 6.88.697.559 3.727 1.759 5.498-.486 1.914-2.426 19.193-27.258 19.965-28.682s1.073-2.481-.567-3.644z" opacity=".2" filter="url(#b)"/><path d="M28.881 84.713zm65.895-49.887c-.183-.134.511.091-.939-.584-1.177-.549-2.923.383-4.873 2.527-3.451 3.795-17.157 17.567-18.18 18.816-.61.746-2.015.849-4.453-.801-2.438-1.649-9.664-6.172-11.36-7.207s-3.813-1.115-5.749 1.043c-1.935 2.158-19.888 29.165-21.304 31.623-.795 1.38-.271 3.569.414 4.065l.549.403c-.108-.099-.178-.196.164-.057.863.354 2.782.989 4.59-1.473 1.808-2.463 19.985-18.77 20.304-19.109.487-.521 1.759-1.727 3.753-.333s10.147 6.948 10.89 7.562c.741.614 3.956 1.928 5.821-.568 2.014-2.697 20.183-30.295 20.992-31.876s1.124-2.752-.619-4.031z" fill-rule="evenodd" clip-rule="evenodd" fill="#FEFDF0"/></g></svg>