<svg xmlns="http://www.w3.org/2000/svg" width="120" height="120"><filter id="b" filterUnits="userSpaceOnUse" y="8" x="-7"><feOffset dy="3" in="SourceGraphic" result="offOut"/><feGaussianBlur in="offOut" stdDeviation="2" result="blurOut"/><feBlend in="SourceGraphic" in2="blurOut"/></filter><g enable-background="new"><g><linearGradient id="a" gradientUnits="userSpaceOnUse" x1="60" y1="120" x2="60"><stop offset="0" stop-color="#EAC447"/><stop offset="1" stop-color="#EDCD62"/></linearGradient><path d="M108 0h-96c-6.627 0-12 5.373-12 12v96c0 6.628 5.373 12 12 12h96c6.627 0 12-5.372 12-12v-96c0-6.627-5.373-12-12-12z" fill-rule="evenodd" clip-rule="evenodd" fill="url(#a)"/></g><g><path d="M94.25 66.165c0 6.729-.85 13.6-2.408 20.542-.425 1.841-1.912 3.187-3.754 3.471-9.208 1.346-18.558 2.054-27.837 2.054s-18.629-.708-27.837-2.054c-1.842-.284-3.329-1.63-3.754-3.471-1.559-6.942-2.408-13.812-2.408-20.542 0-6.799.85-13.528 2.408-20.328.496-2.054 2.338-3.471 4.463-3.471h8.995v-10.057c0-2.196 1.487-4.038 3.684-4.463 4.745-.921 9.562-1.346 14.449-1.346 4.816 0 9.704.425 14.449 1.346 2.125.425 3.684 2.267 3.684 4.463v10.058h8.995c2.125 0 3.967 1.417 4.392 3.471 1.629 6.799 2.479 13.528 2.479 20.327zm-43.065-23.799h18.133v-6.445c-6.8-.779-11.333-.779-18.133 0v6.445z" opacity=".2" filter="url(#b)"/><path d="M94.25 66.165c0 6.729-.85 13.6-2.408 20.542-.425 1.841-1.912 3.187-3.754 3.471-9.208 1.346-18.558 2.054-27.837 2.054s-18.629-.708-27.837-2.054c-1.842-.284-3.329-1.63-3.754-3.471-1.559-6.942-2.408-13.812-2.408-20.542 0-6.799.85-13.528 2.408-20.328.496-2.054 2.338-3.471 4.463-3.471h8.995v-10.057c0-2.196 1.487-4.038 3.684-4.463 4.745-.921 9.562-1.346 14.449-1.346 4.816 0 9.704.425 14.449 1.346 2.125.425 3.684 2.267 3.684 4.463v10.058h8.995c2.125 0 3.967 1.417 4.392 3.471 1.629 6.799 2.479 13.528 2.479 20.327zm-43.065-23.799h18.133v-6.445c-6.8-.779-11.333-.779-18.133 0v6.445z" fill="#FEFDF0"/><path d="M60.25 79.231c-.926 0-1.852-.073-2.703-.185-1.667 1.666-4.777 4.185-8.629 4.185-.259 0-.519-.148-.63-.407-.073-.26-.036-.556.148-.741.037-.037 1.963-1.999 2.407-5.332-3.999-2.37-6.592-6.185-6.592-10.518 0-7.185 7.147-12.999 15.998-12.999 8.852 0 15.998 5.814 15.998 12.999s-7.145 12.998-15.997 12.998z" fill="#EAC447"/></g></g></svg>