<svg xmlns="http://www.w3.org/2000/svg" width="120" height="120"><filter id="c" filterUnits="userSpaceOnUse" y="2" x="-7"><feOffset in="SourceGraphic" result="offOut"/><feGaussianBlur in="offOut" stdDeviation="1" result="blurOut"/><feBlend in="SourceGraphic" in2="blurOut"/></filter><filter id="b" filterUnits="userSpaceOnUse" y="8" x="-7"><feOffset dy="3" in="SourceGraphic" result="offOut"/><feGaussianBlur in="offOut" stdDeviation="2" result="blurOut"/><feBlend in="SourceGraphic" in2="blurOut"/></filter><g enable-background="new"><g><linearGradient id="a" gradientUnits="userSpaceOnUse" x1="80.5" y1="-196" x2="80.5" y2="-316" gradientTransform="translate(-20.5 316)"><stop offset="0" stop-color="#EAC447"/><stop offset="1" stop-color="#EDCD62"/></linearGradient><path d="M108 0h-96c-6.627 0-12 5.373-12 12v96c0 6.628 5.373 12 12 12h96c6.627 0 12-5.372 12-12v-96c0-6.627-5.373-12-12-12z" fill-rule="evenodd" clip-rule="evenodd" fill="url(#a)"/></g><path d="M64.127 69.804c.501-.466 1.171-.695 1.922-.567.409.07 1.093.602 1.093.602l13.875 10.1c.684.531 1.036 1.35.888 2.22-.896 3.638-3.091 7.053-5.944 8.977-3.262 2.267-7.448 2.928-11.952 2.155-9.21-1.579-19.914-8.859-27.991-20.032-12.048-16.749-14.123-36.405-4.255-43.262 2.786-1.935 7.153-2.427 10.895-2.13.887.152 1.49.738 1.774 1.545l5.805 16.299c.137.437.216.795.137 1.264-.113.67-.559 1.214-1.113 1.602l-7.55 5.186c-.808.619-1.126 1.667-.729 2.633 1.333 3.33 3.096 6.596 5.382 9.678 2.276 3.146 4.825 5.926 7.52 8.25.797.688 1.91.741 2.787.133l7.456-4.653z" opacity=".15" filter="url(#b)"/><rect x="68.5" y="45.752" width="26" height="7.703" opacity=".1" filter="url(#c)"/><rect x="68.5" y="32.752" width="26" height="7.703" opacity=".1" filter="url(#c)"/><path d="M64.674 69.52c.508-.472 1.188-.704 1.949-.574.415.071 1.107.608 1.107.608l14.072 10.22c.692.537 1.051 1.365.9 2.246-.909 3.682-3.135 7.137-6.029 9.084-3.308 2.293-7.553 2.963-12.12 2.182-9.342-1.599-20.196-8.966-28.389-20.271-12.218-16.948-14.322-36.84-4.314-43.777 2.826-1.958 7.254-2.456 11.049-2.156.899.154 1.511.748 1.8 1.564l5.886 16.492c.139.442.22.805.139 1.279-.114.678-.565 1.229-1.129 1.62l-7.656 5.247c-.818.627-1.142 1.688-.738 2.664 1.352 3.37 3.14 6.676 5.458 9.793 2.308 3.185 4.893 5.998 7.626 8.35.808.695 1.938.75 2.826.135l7.563-4.706z" fill="#FEFDF0"/><rect x="68.036" y="45.881" width="27" height="8" fill-rule="evenodd" clip-rule="evenodd" fill="#FEFDF0"/><rect x="68.036" y="32.881" width="27" height="8" fill-rule="evenodd" clip-rule="evenodd" fill="#FEFDF0"/></g></svg>