<svg xmlns="http://www.w3.org/2000/svg" width="120" height="120"><g enable-background="new"><g><linearGradient id="a" gradientUnits="userSpaceOnUse" x1="60" y1="120" x2="60"><stop offset="0" stop-color="#439ACF"/><stop offset="1" stop-color="#4D9FD1"/></linearGradient><path d="M108 0h-96c-6.627 0-12 5.373-12 12v96c0 6.627 5.373 12 12 12h96c6.628 0 12-5.373 12-12v-96c0-6.627-5.372-12-12-12z" fill-rule="evenodd" clip-rule="evenodd" fill="url(#a)"/></g><path d="M25.72 96.902h68.679l3.41-48.908h-75.618l3.529 48.908zm65.486-73.867h-62.28l-6.734 22.934h75.617l-6.603-22.934z" fill-rule="evenodd" clip-rule="evenodd" fill="#216B9E"/><path d="M74.764 59.447c-1.609 0-3.142.335-4.532.938-1.553-2.851-4.576-4.786-8.051-4.786-2.604 0-4.952 1.089-6.621 2.834-1.869-2.423-4.802-3.983-8.101-3.983-5.648 0-10.228 4.578-10.228 10.229 0 1.42.29 2.772.813 4.001l-.113.068-.477.339-.378.269c-.172.137-.328.289-.489.438l-.341.313c-.151.155-.287.325-.428.492l-.303.355c-.131.173-.243.359-.361.542l-.259.395c-.109.19-.198.393-.294.591l-.206.422c-.092.222-.161.454-.235.685l-.135.396c-.087.321-.148.652-.199.986l-.032.174c-.05.378-.077.763-.078 1.153v.019c0 4.917 3.985 8.902 8.902 8.902.561 0 1.11-.056 1.644-.154 1.359 3.56 4.804 6.088 8.842 6.088 3.9 0 7.246-2.357 8.695-5.725 1.087.519 2.303.81 3.588.81 3.096 0 5.796-1.687 7.231-4.192.695.132 1.411.202 2.145.202 6.295 0 11.399-5.104 11.399-11.398.001-6.299-5.103-11.403-11.398-11.403z" fill-rule="evenodd" clip-rule="evenodd" fill="#3C9BD6"/></g></svg>