<svg xmlns="http://www.w3.org/2000/svg" width="120" height="120"><g enable-background="new"><g><linearGradient id="a" gradientUnits="userSpaceOnUse" x1="60" y1="120" x2="60"><stop offset="0" stop-color="#43B2B6"/><stop offset="1" stop-color="#4DB6BA"/></linearGradient><path d="M108 0h-96c-6.627 0-12 5.373-12 12v96c0 6.628 5.373 12 12 12h96c6.627 0 12-5.372 12-12v-96c0-6.627-5.373-12-12-12z" fill-rule="evenodd" clip-rule="evenodd" fill="url(#a)"/></g><g><linearGradient id="b" gradientUnits="userSpaceOnUse" x1="25.014" y1="59.503" x2="76.345" y2="59.503"><stop offset="0" stop-color="#14828A"/><stop offset="1" stop-color="#12787F"/></linearGradient><path d="M66.222 78.973c-2.623 1.053-5.479 1.601-8.417 1.601-10.515 0-19.747-10.116-19.747-21.077 0-11.097 8.803-21.063 19.747-21.063 5.457 0 10.598 1.653 14.534 5.186 2.07.023.642-.875.642-.875s1.557-3.584 3.365-10.915c-5.359-3.755-11.774-5.831-18.54-5.831-18.084 0-32.791 15.025-32.791 33.499 0 18.479 14.707 33.513 32.791 33.513 5.592 0 10.973-1.479 15.701-4.124-3.536-3.02-4.847-4.945-7.285-9.914z" fill-rule="evenodd" clip-rule="evenodd" fill="url(#b)"/></g><circle cx="84.404" cy="68.8" r="9.6" fill-rule="evenodd" clip-rule="evenodd" fill="#037479"/></g></svg>