<svg xmlns="http://www.w3.org/2000/svg" width="120" height="120"><filter id="b" filterUnits="userSpaceOnUse" y="8" x="-7"><feOffset dy="3" in="SourceGraphic" result="offOut"/><feGaussianBlur in="offOut" stdDeviation="2" result="blurOut"/><feBlend in="SourceGraphic" in2="blurOut"/></filter><g enable-background="new"><g><linearGradient id="a" gradientUnits="userSpaceOnUse" x1="60" y1="120" x2="60"><stop offset="0" stop-color="#7A70C4"/><stop offset="1" stop-color="#988CD3"/></linearGradient><path d="M108 0h-96c-6.627 0-12 5.373-12 12v96c0 6.628 5.373 12 12 12h96c6.627 0 12-5.372 12-12v-96c0-6.627-5.373-12-12-12z" fill-rule="evenodd" clip-rule="evenodd" fill="url(#a)"/></g><path d="M70.865 87.022c-4.039.482-10.369.964-19.713.964-18.748 0-25.379-1.929-25.621-1.989-.964-.302-1.567-1.266-1.326-2.291 1.206-5.666 4.341-8.68 8.621-11.393 1.145-.724 2.652-1.326 4.279-1.989 2.894-1.146 6.209-2.472 6.933-4.702.482-1.447-.121-3.437-1.748-5.968-5.064-8.078-5.968-15.071-2.713-20.677 2.532-4.34 6.872-6.933 11.574-6.933 4.762 0 9.042 2.592 11.574 6.933 3.255 5.606 2.351 12.599-2.652 20.677-1.628 2.532-2.231 4.521-1.809 5.968.724 2.23 4.039 3.556 6.993 4.702 1.567.663 3.014 1.266 4.219 1.989 4.28 2.713 7.415 5.727 8.621 11.393.241 1.025-.362 1.989-1.326 2.291-.119.001-1.867.543-5.906 1.025z" opacity=".2" filter="url(#b)"/><linearGradient id="c" gradientUnits="userSpaceOnUse" x1="51.152" y1="88.985" x2="51.152" y2="29.045"><stop offset="0" stop-color="#E2E1EC"/><stop offset="1" stop-color="#F4F3FE"/></linearGradient><path d="M72.273 87.952c-4.328.517-11.109 1.033-21.121 1.033-20.087 0-27.192-2.067-27.451-2.131-1.033-.323-1.679-1.356-1.421-2.455 1.292-6.071 4.651-9.301 9.237-12.208 1.227-.775 2.842-1.421 4.585-2.131 3.101-1.228 6.653-2.648 7.428-5.038.517-1.55-.129-3.682-1.873-6.395-5.426-8.655-6.395-16.147-2.907-22.155 2.713-4.65 7.363-7.428 12.401-7.428 5.103 0 9.688 2.777 12.401 7.428 3.488 6.007 2.519 13.5-2.842 22.155-1.744 2.713-2.39 4.844-1.938 6.395.775 2.39 4.328 3.811 7.493 5.038 1.679.71 3.229 1.356 4.521 2.131 4.586 2.907 7.945 6.136 9.237 12.208.258 1.098-.388 2.131-1.421 2.455-.128 0-2.001.581-6.329 1.098z" fill="url(#c)"/><g><linearGradient id="d" gradientUnits="userSpaceOnUse" x1="86.5" y1="63" x2="86.5" y2="55"><stop offset="0" stop-color="#E2E1EC"/><stop offset="1" stop-color="#F4F3FE"/></linearGradient><rect x="75" y="55" width="23" height="8" fill-rule="evenodd" clip-rule="evenodd" fill="url(#d)"/></g><g><linearGradient id="e" gradientUnits="userSpaceOnUse" x1="86.5" y1="50" x2="86.5" y2="42"><stop offset="0" stop-color="#E2E1EC"/><stop offset="1" stop-color="#F4F3FE"/></linearGradient><rect x="75" y="42" width="23" height="8" fill-rule="evenodd" clip-rule="evenodd" fill="url(#e)"/></g></g></svg>