<svg xmlns="http://www.w3.org/2000/svg" width="120" height="120"><filter id="b" filterUnits="userSpaceOnUse" y="8" x="-7"><feOffset dy="3" in="SourceGraphic" result="offOut"/><feGaussianBlur in="offOut" stdDeviation="2" result="blurOut"/><feBlend in="SourceGraphic" in2="blurOut"/></filter><rect x="72.667" y="22.5" width="24" height="24" fill-rule="evenodd" clip-rule="evenodd" fill="#C45256" enable-background="new"/><g enable-background="new"><g><linearGradient id="a" gradientUnits="userSpaceOnUse" x1="60" y1="120" x2="60"><stop offset="0" stop-color="#6CB654"/><stop offset="1" stop-color="#7EC168"/></linearGradient><path d="M108 0h-96c-6.627 0-12 5.373-12 12v96c0 6.628 5.373 12 12 12h96c6.628 0 12-5.372 12-12v-96c0-6.627-5.372-12-12-12z" fill-rule="evenodd" clip-rule="evenodd" fill="url(#a)"/></g><path d="M71.987 25.6h-38.965c-3.042 0-5.51 2.466-5.51 5.509v58.759c0 3.043 2.468 5.509 5.51 5.509h53.98c3.043 0 5.51-2.466 5.51-5.509v-41.65l-20.525-22.618z" opacity=".2" filter="url(#b)"/><g><linearGradient id="c" gradientUnits="userSpaceOnUse" x1="60.013" y1="96" x2="60.013" y2="22.976"><stop offset="0" stop-color="#DBECD4"/><stop offset="1" stop-color="#EDFEE7"/></linearGradient><path d="M72.544 22.976h-40.778c-3.184 0-5.766 2.581-5.766 5.766v61.493c0 3.184 2.582 5.765 5.766 5.765h56.494c3.185 0 5.766-2.581 5.766-5.766v-43.588l-21.482-23.67z" fill-rule="evenodd" clip-rule="evenodd" fill="url(#c)"/></g><polygon points="36,22 36,87 47.25,80 59,87 59,22" fill-rule="evenodd" clip-rule="evenodd" fill="#B0D9A2"/><path d="M61.804 61.451c-.001-.307-.146-.596-.391-.781l-2.133-1.607 1.338-2.31c.153-.264.174-.587.056-.87-.119-.284-.363-.495-.661-.572l-2.584-.668.351-2.646c.041-.303-.062-.609-.281-.827-.218-.216-.524-.316-.829-.274l-2.644.372-.688-2.578c-.08-.296-.294-.539-.576-.656-.285-.117-.606-.092-.872.062l-2.3 1.354-1.623-2.118c-.187-.244-.476-.386-.783-.386-.308.001-.596.147-.781.393l-1.605 2.132-2.312-1.337c-.266-.152-.587-.174-.871-.057-.282.12-.494.363-.571.661l-.668 2.583-2.646-.349c-.3-.045-.609.063-.826.282-.216.217-.318.524-.275.828l.372 2.644-2.578.688c-.297.079-.539.292-.656.577-.115.284-.092.605.063.871l1.355 2.3-2.12 1.622c-.245.187-.387.477-.386.784.002.307.146.595.392.781l2.133 1.606-1.337 2.311c-.154.265-.175.587-.056.871.118.283.362.495.659.571l2.584.669-.35 2.645c-.041.305.064.611.281.827.219.216.523.318.829.274l2.644-.37.689 2.578c.077.297.291.539.575.655s.606.093.871-.063l2.299-1.354 1.623 2.12c.168.218.417.355.687.38l.098.004c.307-.002.596-.146.78-.391l1.606-2.133 2.311 1.336c.266.154.588.174.871.056.283-.119.494-.362.571-.66l.669-2.584 2.646.351.037.004.008.001c.539.051 1.019-.345 1.069-.885.012-.123 0-.24-.03-.352l-.354-2.522 2.578-.689c.297-.079.539-.292.656-.577.115-.283.092-.605-.063-.87l-1.355-2.3 2.121-1.623c.243-.188.385-.477.383-.784z" fill-rule="evenodd" clip-rule="evenodd" fill="#5FAC45"/><circle cx="47.25" cy="61.501" r="8.056" fill-rule="evenodd" clip-rule="evenodd" fill="#B0D9A2"/><path d="M72.562 22.976v17.414c0 3.729 1.832 6.291 6.349 6.291l15.114.006-21.463-23.711z" fill-rule="evenodd" clip-rule="evenodd" fill="#C7E8BA"/></g></svg>