<svg xmlns="http://www.w3.org/2000/svg" width="120" height="120"><filter id="b" filterUnits="userSpaceOnUse" y="8" x="-7"><feOffset dy="3" in="SourceGraphic" result="offOut"/><feGaussianBlur in="offOut" stdDeviation="2" result="blurOut"/><feBlend in="SourceGraphic" in2="blurOut"/></filter><g><g><linearGradient id="a" gradientUnits="userSpaceOnUse" x1="60" y1="120" x2="60"><stop offset="0" stop-color="#8199AF"/><stop offset="1" stop-color="#879EB3"/></linearGradient><path d="M108 0h-96c-6.627 0-12 5.373-12 12v96c0 6.628 5.373 12 12 12h96c6.627 0 12-5.372 12-12v-96c0-6.627-5.373-12-12-12z" fill-rule="evenodd" clip-rule="evenodd" fill="url(#a)"/></g><circle cx="59.5" cy="60.5" r="40.5" fill-rule="evenodd" clip-rule="evenodd" fill="#5C7995"/><path d="M39.667 75.833l19.833-19.083s-.917-4.167-.5-6.417 3.083-6.167 7.167-7.583 5.25-1.917 3.083 0-5.5 3.5-4.75 6.5-.083 4.583 1.75 5.417 4.75 1.25 6.583.667 5.583-4 6.417-4.667c.917.667.417.833 0 2.75s-1.333 4.326-3.75 5.247-5.917.587-8.083.837-4.25.333-5.667 2.167-15 14.917-16.917 15.917-4.666 3.082-5.166-1.752z" opacity=".4" filter="url(#b)"/><path d="M80.69 47.011l-7.509 7.123-6.233-.699-.736-5.912 7.51-7.123c-2.095-.807-4.312-.978-6.65-.512-2.34.465-4.361 1.505-6.062 3.119s-2.789 3.522-3.264 5.726c-.475 2.205-.303 4.314.516 6.332l-19.34 18.342c-.949.963-1.423 2.064-1.423 3.306s.474 2.344 1.423 3.306c.981.9 2.151 1.35 3.509 1.35 1.357 0 2.511-.449 3.46-1.35l19.337-18.343c2.127.775 4.352.938 6.676.488 2.322-.449 4.336-1.481 6.037-3.096 1.701-1.613 2.798-3.53 3.289-5.75.492-2.218.312-4.321-.54-6.307z" fill="#8EA5BA"/></g></svg>