<svg xmlns="http://www.w3.org/2000/svg" width="120" height="120"><filter id="b" filterUnits="userSpaceOnUse" y="8" x="-7"><feOffset dy="3" in="SourceGraphic" result="offOut"/><feGaussianBlur in="offOut" stdDeviation="2" result="blurOut"/><feBlend in="SourceGraphic" in2="blurOut"/></filter><g enable-background="new"><g><linearGradient id="a" gradientUnits="userSpaceOnUse" x1="60" y1="120" x2="60"><stop offset="0" stop-color="#C55D52"/><stop offset="1" stop-color="#CD6A5E"/></linearGradient><path d="M108 0h-96c-6.627 0-12 5.373-12 12v96c0 6.628 5.373 12 12 12h96c6.628 0 12-5.372 12-12v-96c0-6.627-5.372-12-12-12z" fill-rule="evenodd" clip-rule="evenodd" fill="url(#a)"/></g><ellipse cx="59.5" cy="61.982" rx="30.146" ry="30.375" fill-rule="evenodd" clip-rule="evenodd" fill="#B04A3F"/><path d="M59.737 23.705c-21.264 0-38.5 17.273-38.5 38.58 0 11.433 5.205 21.442 12.848 28.77 1.036.993 2.211.436 2.973-.027.763-.463 10.771-10.475 11.401-11.319.631-.844.96-1.513.406-2.218l-1.626-1.641s-.889-.907-1.796.088c-.908.995-5.898 5.755-5.898 5.755s-.653.938-1.388.152c-4.004-4.286-6.669-9.757-7.444-15.848-.154-1.214.277-1.125.651-1.125h9.124c.327 0 .91-.065.91-.92v-2.57c0-.371-.354-.951-.966-.951h-9.089c-.503 0-.817-.078-.725-1.027.665-6.826 3.666-12.966 8.191-17.607.887-.909 1.279.006 1.532.291.254.285 4.805 5.02 5.161 5.413s.746.836 1.382.317c.636-.519 2.466-2.045 2.713-2.332.247-.288.28-.67-.212-1.245-.491-.574-4.448-4.809-4.967-5.418s-1.158-.79-.302-1.332c4.52-2.865 9.877-4.524 15.621-4.524 5.624 0 10.88 1.59 15.339 4.348 1.243.767.364 1.679-.061 2.021-.424.34-4.406 4.448-4.689 4.805-.283.355-.733.732-.314 1.347.418.614 2.047 2.019 2.38 2.359.333.341 1.069.594 1.503.148.433-.448 5.158-5.446 5.479-5.763.322-.317.656-1.088 1.319-.407 4.549 4.677 7.552 10.871 8.181 17.752.082.893-.416.857-.775.857h-8.724c-.542 0-.883.308-.883.841v2.854c0 .324.392.715.976.715h8.717c.521 0 .743-.213.608.914-.755 6.286-3.416 11.76-7.614 16.098-.531.549-.85.231-1.357-.293-.63-.651-5.281-4.959-6.06-5.755-.777-.796-1.104-.542-1.493-.248s-1.702 1.549-2.127 2.133c-.424.584-.418.873.282 1.45.702.578 11.058 11.609 11.765 12.195.707.585 1.327 1.273 2.691.164 8.391-6.821 13.356-17.54 13.356-29.217.001-21.307-17.236-38.58-38.499-38.58zm-15.1 28.547c-2.674-2.481-1.683 0-1.188.695.495.694 12.641 16.713 15.251 18.954 2.08 1.787 3.687 1.812 4.457 1.092 1.485-1.389 1.201-3.743-.283-5.231-1.485-1.489-16.232-13.65-18.237-15.51z" opacity=".2" filter="url(#b)"/><g><linearGradient id="c" gradientUnits="userSpaceOnUse" x1="59.737" y1="93.413" x2="59.737" y2="22.384"><stop offset="0" stop-color="#EDD0CD"/><stop offset="1" stop-color="#FFE2DF"/></linearGradient><path d="M59.737 22.384c-22.085 0-39.987 17.94-39.987 40.07 0 11.875 5.406 22.271 13.344 29.881 1.076 1.031 2.297.453 3.088-.028.792-.481 11.188-10.88 11.842-11.756.655-.877.997-1.571.422-2.304l-1.688-1.704s-.924-.942-1.866.092c-.942 1.033-6.126 5.978-6.126 5.978s-.679.975-1.441.158c-4.158-4.452-6.927-10.134-7.731-16.46-.16-1.261.288-1.169.677-1.169h9.477c.339 0 .945-.068.945-.956v-2.669c0-.386-.367-.988-1.004-.988h-9.439c-.522 0-.85-.081-.753-1.066.69-7.09 3.808-13.467 8.508-18.287.921-.944 1.329.006 1.592.302.264.296 4.99 5.214 5.36 5.622s.774.869 1.436.329c.66-.539 2.561-2.124 2.817-2.422.257-.299.291-.696-.22-1.293-.511-.596-4.62-4.994-5.159-5.627-.538-.633-1.203-.82-.313-1.384 4.694-2.976 10.259-4.698 16.225-4.698 5.842 0 11.3 1.651 15.932 4.516 1.291.797.378 1.744-.062 2.099-.44.354-4.577 4.62-4.871 4.991-.294.369-.762.76-.327 1.398.435.638 2.127 2.097 2.473 2.45.346.354 1.11.617 1.561.153.449-.465 5.357-5.656 5.69-5.985.334-.329.682-1.13 1.37-.423 4.725 4.857 7.844 11.291 8.497 18.438.085.927-.433.891-.806.891h-9.061c-.562 0-.917.319-.917.873v2.965c0 .337.406.743 1.013.743h9.054c.541 0 .772-.222.632.949-.784 6.528-3.548 12.214-7.908 16.72-.552.57-.882.24-1.409-.305-.654-.676-5.485-5.15-6.294-5.978-.808-.827-1.147-.562-1.551-.258-.404.305-1.769 1.609-2.209 2.216s-.435.906.293 1.506c.729.6 11.484 12.058 12.219 12.666.734.607 1.379 1.322 2.796.17 8.715-7.085 13.872-18.218 13.872-30.346-.005-22.13-17.909-40.07-39.993-40.07zm-15.683 29.65c-2.777-2.577-1.748 0-1.234.722.515.721 13.13 17.358 15.841 19.687 2.16 1.855 3.829 1.882 4.629 1.134 1.543-1.442 1.248-3.888-.294-5.434-1.544-1.546-16.86-14.177-18.942-16.109z" fill-rule="evenodd" clip-rule="evenodd" fill="url(#c)"/></g></g></svg>