<svg xmlns="http://www.w3.org/2000/svg" width="120" height="120"><filter id="b" filterUnits="userSpaceOnUse" y="8" x="-7"><feOffset dy="3" in="SourceGraphic" result="offOut"/><feGaussianBlur in="offOut" stdDeviation="2" result="blurOut"/><feBlend in="SourceGraphic" in2="blurOut"/></filter><g><g><linearGradient id="a" gradientUnits="userSpaceOnUse" x1="60" y1="120" x2="60"><stop offset="0" stop-color="#8199AF"/><stop offset="1" stop-color="#879EB3"/></linearGradient><path d="M108 0h-96c-6.627 0-12 5.374-12 12v96c0 6.628 5.373 12 12 12h96c6.627 0 12-5.373 12-12v-96c0-6.626-5.373-12-12-12z" fill-rule="evenodd" clip-rule="evenodd" fill="url(#a)"/></g><circle cx="59.5" cy="60.5" r="40.5" fill-rule="evenodd" clip-rule="evenodd" fill="#5C7995"/><path d="M42.664 42.261c4.776-3.849 10.555-5.774 17.336-5.774s12.559 1.925 17.336 5.774c4.775 3.85 7.164 8.575 7.164 14.177 0 2.964-.785 5.738-2.352 8.322-1.568 2.585-3.701 4.835-6.398 6.75v13.554h-5.25v-5.205c0-.505-.164-.921-.492-1.247-.328-.326-.748-.488-1.258-.488-.511 0-.93.162-1.258.488-.328.326-.492.742-.492 1.247v5.205h-5.25v-5.205c0-.505-.164-.921-.492-1.247-.328-.325-.748-.487-1.258-.487-.511 0-.93.162-1.258.488-.328.325-.492.741-.492 1.247v5.205h-5.25v-5.205c0-.505-.164-.921-.492-1.247-.328-.326-.748-.488-1.258-.488-.511 0-.93.162-1.258.488-.328.325-.492.741-.492 1.247v5.205h-5.25v-13.555c-2.699-1.915-4.831-4.165-6.398-6.75-1.568-2.583-2.352-5.358-2.352-8.322 0-5.602 2.388-10.328 7.164-14.177zm4.867 18.731c1.021 1.012 2.26 1.518 3.719 1.518 1.458 0 2.698-.505 3.719-1.518 1.021-1.011 1.531-2.241 1.531-3.687 0-1.445-.511-2.675-1.531-3.687-1.021-1.011-2.261-1.518-3.719-1.518-1.458 0-2.698.506-3.719 1.518-1.021 1.013-1.531 2.242-1.531 3.688 0 1.445.51 2.675 1.531 3.686zm17.5 0c1.02 1.012 2.26 1.518 3.719 1.518 1.458 0 2.698-.505 3.719-1.518 1.02-1.011 1.531-2.241 1.531-3.686 0-1.445-.511-2.675-1.531-3.687-1.021-1.011-2.261-1.518-3.719-1.518-1.458 0-2.699.506-3.719 1.518-1.021 1.012-1.531 2.241-1.531 3.687 0 1.445.51 2.675 1.531 3.686z" opacity=".2" filter="url(#b)"/><path d="M41.603 41.127c5.068-4.085 11.201-6.127 18.397-6.127s13.328 2.042 18.397 6.127c5.068 4.085 7.603 9.101 7.603 15.045 0 3.146-.833 6.09-2.496 8.832-1.664 2.743-3.927 5.131-6.79 7.163v14.384h-5.571v-5.523c0-.537-.174-.978-.522-1.323s-.793-.518-1.335-.518c-.542 0-.986.172-1.335.518-.348.345-.522.787-.522 1.323v5.523h-5.572v-5.523c0-.537-.174-.978-.522-1.323s-.793-.518-1.335-.518c-.542 0-.987.172-1.335.518s-.522.787-.522 1.323v5.523h-5.572v-5.523c0-.537-.174-.978-.522-1.323-.349-.345-.793-.518-1.335-.518-.542 0-.987.172-1.335.518s-.522.787-.522 1.323v5.523h-5.571v-14.384c-2.864-2.032-5.127-4.42-6.79-7.163-1.664-2.742-2.496-5.686-2.496-8.832 0-5.944 2.534-10.96 7.603-15.045zm5.165 19.878c1.083 1.074 2.398 1.611 3.946 1.611 1.547 0 2.863-.537 3.946-1.611 1.083-1.073 1.625-2.378 1.625-3.912 0-1.534-.542-2.838-1.625-3.913-1.083-1.073-2.399-1.611-3.946-1.611-1.548 0-2.864.538-3.946 1.611-1.084 1.074-1.625 2.379-1.625 3.913 0 1.534.541 2.839 1.625 3.912zm18.571 0c1.083 1.074 2.398 1.611 3.946 1.611 1.547 0 2.863-.537 3.946-1.611 1.083-1.073 1.625-2.378 1.625-3.912 0-1.534-.542-2.838-1.625-3.913-1.083-1.073-2.399-1.611-3.946-1.611-1.548 0-2.864.538-3.946 1.611-1.083 1.074-1.625 2.379-1.625 3.913 0 1.534.542 2.839 1.625 3.912z" fill="#8EA5BA"/></g></svg>