<svg xmlns="http://www.w3.org/2000/svg" width="120" height="120"><g enable-background="new"><g><linearGradient id="a" gradientUnits="userSpaceOnUse" x1="60" y1="120" x2="60"><stop offset="0" stop-color="#63A7EF"/><stop offset="1" stop-color="#6BABF0"/></linearGradient><path d="M108 0h-96c-6.627 0-12 5.373-12 12v96c0 6.628 5.373 12 12 12h96c6.627 0 12-5.372 12-12v-96c0-6.627-5.373-12-12-12z" fill-rule="evenodd" clip-rule="evenodd" fill="url(#a)"/></g><path d="M60.51 37.014l-16.659-14.025-23.838 15.697 16.453 13.278 24.044-14.95zm-.059 29.96l-23.985-14.98-16.423 13.309 23.778 15.666 16.63-13.995zm.089-.03l16.63 13.995 23.808-15.637-16.453-13.279-23.985 14.921zm40.438-28.258l-23.808-15.667-16.601 13.965 23.956 14.979 16.453-13.277zm-40.438 31.332l-16.719 13.995-7.148-4.715v5.252l23.867 14.442 23.897-14.472v-5.222l-7.178 4.685-16.719-13.965z" fill-rule="evenodd" clip-rule="evenodd" fill="#3472B5"/></g></svg>