<svg xmlns="http://www.w3.org/2000/svg" width="120" height="120"><filter id="d" filterUnits="userSpaceOnUse" y="-4" x="-7"><feOffset dy="-2" in="SourceGraphic" result="offOut"/><feGaussianBlur in="offOut" stdDeviation="1" result="blurOut"/><feBlend in="SourceGraphic" in2="blurOut"/></filter><filter id="b" filterUnits="userSpaceOnUse" y="8" x="-7"><feOffset dy="3" in="SourceGraphic" result="offOut"/><feGaussianBlur in="offOut" stdDeviation="2" result="blurOut"/><feBlend in="SourceGraphic" in2="blurOut"/></filter><g enable-background="new"><g><linearGradient id="a" gradientUnits="userSpaceOnUse" x1="60" y1="120" x2="60"><stop offset="0" stop-color="#8199AF"/><stop offset="1" stop-color="#8DA3B7"/></linearGradient><path d="M108 0h-96c-6.627 0-12 5.373-12 12v96c0 6.628 5.373 12 12 12h96c6.627 0 12-5.372 12-12v-96c0-6.627-5.373-12-12-12z" fill-rule="evenodd" clip-rule="evenodd" fill="url(#a)"/></g><path d="M98.875 89.674c0 1.694-1.374 3.068-3.068 3.068h-72.864c-1.694 0-3.068-1.374-3.068-3.068v-60.848c0-1.694 1.374-3.068 3.068-3.068h72.864c1.694 0 3.068 1.374 3.068 3.068v60.848z" opacity=".2" filter="url(#b)"/><g><linearGradient id="c" gradientUnits="userSpaceOnUse" x1="60.022" y1="84" x2="60.022" y2="35.834"><stop offset="0" stop-color="#D2DDE8"/><stop offset="1" stop-color="#D7E3ED"/></linearGradient><rect x="20.047" y="35.833" width="79.949" height="48.167" fill-rule="evenodd" clip-rule="evenodd" fill="url(#c)"/></g><path d="M73.956 56.107s-7.106-5.651-8.327-4.673c-2.94 2.358-2.662 3.796-6.565.938-.104-.076-5.359-.851-5.46-.932-1.396-1.123-7.692 4.568-7.692 4.568l-23.37 25.341-.019 6.003c0 4.062 1.415 5.355 5.474 5.355h64.046c4.059 0 5.474-1.168 5.474-5.231l.006-6.098-23.567-25.271z" opacity=".4" filter="url(#d)"/><g><linearGradient id="e" gradientUnits="userSpaceOnUse" x1="60.024" y1="94.006" x2="60.024" y2="49.85"><stop offset="0" stop-color="#DCE7F1"/><stop offset="1" stop-color="#EAEFF5"/></linearGradient><path d="M74.878 54.982s-7.577-6.025-8.878-4.982c-3.135 2.514-2.838 4.047-7 1-.111-.081-5.714-.907-5.822-.994-1.489-1.197-8.201 4.871-8.201 4.871l-24.915 27.019-.02 6.4c0 4.331 1.508 5.71 5.836 5.71h68.286c4.328 0 5.836-1.245 5.836-5.577l.006-6.501-25.128-26.946z" fill-rule="evenodd" clip-rule="evenodd" fill="url(#e)"/></g><path d="M93.172 26.797h-66.302c-4.308 0-5.85 1.545-5.85 5.857l.01 2.178s32.458 26.816 35.068 28.937c2.372 1.926 6.447 1.899 8.78 0 3.798-3.091 34.375-28.707 34.14-28.695l.002-2.419c.001-4.312-1.54-5.858-5.848-5.858z" opacity=".5" filter="url(#b)"/><path d="M94.004 25h-67.966c-4.416 0-5.996 1.584-5.996 6.004l.01 6.333s33.273 27.489 35.949 29.663c2.432 1.975 6.609 1.946 9 0 3.894-3.169 35.239-29.428 34.998-29.415l.001-6.581c0-4.42-1.58-6.004-5.996-6.004z" fill-rule="evenodd" clip-rule="evenodd" fill="#EBF2F9"/></g></svg>