<svg xmlns="http://www.w3.org/2000/svg" width="120" height="120"><g enable-background="new"><g><linearGradient id="a" gradientUnits="userSpaceOnUse" x1="60" y1="120" x2="60"><stop offset="0" stop-color="#85B65D"/><stop offset="1" stop-color="#8BBA65"/></linearGradient><path d="M108 0h-96c-6.627 0-12 5.373-12 12v96c0 6.628 5.373 12 12 12h96c6.627 0 12-5.372 12-12v-96c0-6.627-5.373-12-12-12z" fill-rule="evenodd" clip-rule="evenodd" fill="url(#a)"/></g><g><linearGradient id="b" gradientUnits="userSpaceOnUse" x1="59.903" y1="98.873" x2="59.903" y2="24.998"><stop offset="0" stop-color="#44762F"/><stop offset="1" stop-color="#497831"/></linearGradient><path d="M35.173 39.307h6.936999999999999c.397 0 .717-.323.718-.718 0-.003-.084-5.944-.084-7.597v-.021c0-1.356.285-2.54.781-3.531l.237-.445-.079.044-13.472 13.358-.051.079.713-.351c1.174-.528 2.597-.818 4.3-.818zm53.949-1.455c-.551-2.947-2.304-4.4-3.888-4.972-1.71-.618-5.177-1.258-9.533-1.771-3.504-.413-7.624-.38-10.111-.303-.299-2.046-1.733-3.914-3.338-4.562-4.277-1.721-10.885-1.305-12.582-.829-1.348.376-2.84 1.148-3.671 2.339-.557.795-.917 1.812-.92 3.235 0 .806.022 2.702.043 4.387.02 1.69.042 3.202.042 3.213-.001 1.505-1.221 2.729-2.732 2.731h-6.934c-1.479 0-2.609.249-3.473.641-.865.393-1.477.922-1.942 1.549-.926 1.243-1.087 2.777-1.083 4.343 0 0 .014 1.279.322 3.756.256 1.916 2.334 15.303 4.308 19.374.765 1.584 1.275 2.243 2.778 2.941 3.35 1.434 11.001 3.029 14.587 3.486 3.58.458 5.827 1.421 7.166-1.387.004-.007.268-.698.631-1.713 1.163-3.522 1.324-6.647 1.324-8.909 0-.23.337-.241.337 0 0 1.597-.305 7.247 3.964 8.763 1.685.598 5.181 1.131 8.732 1.547 3.211.369 5.542 1.633 5.542 9.873 0 5.013-1.053 5.7-6.557 5.7-4.462 0-6.162.115-6.162-3.43 0-2.865 2.833-2.564 4.933-2.564.938 0 .257-.698.257-2.466 0-1.758 1.1-2.774.06-2.8-7.262-.2-11.535-.009-11.535 9.073 0 8.245 3.155 9.775 13.462 9.775 8.081 0 10.929-.265 14.266-10.617.661-2.044 2.257-8.281 3.224-18.753.611-6.621-.576-26.606-1.517-31.65zm-14.087 22.089c-.999-.034-1.958.028-2.854.173.252-2.035 1.092-4.533 4.068-4.429 3.294.113 3.756 3.228 3.768 5.336-1.39-.619-3.109-1.013-4.982-1.08z" fill-rule="evenodd" clip-rule="evenodd" fill="url(#b)"/></g></g></svg>