<svg xmlns="http://www.w3.org/2000/svg" width="120" height="120"><filter id="b" filterUnits="userSpaceOnUse" y="8" x="-7"><feOffset dy="3" in="SourceGraphic" result="offOut"/><feGaussianBlur in="offOut" stdDeviation="2" result="blurOut"/><feBlend in="SourceGraphic" in2="blurOut"/></filter><g enable-background="new"><linearGradient id="a" gradientUnits="userSpaceOnUse" x1="60" y1="120" x2="60"><stop offset="0" stop-color="#439ACF"/><stop offset="1" stop-color="#4D9FD1"/></linearGradient><path d="M120 108c0 6.627-5.373 12-12 12h-96c-6.627 0-12-5.373-12-12v-96c0-6.627 5.373-12 12-12h96c6.627 0 12 5.373 12 12v96z" fill="url(#a)"/><path d="M60.939 90.173l-.121-.003c-1.564-.086-2-1.654-2.261-2.592-.511-1.841-3.297-29.184-4.474-42.649-.254-2.892-.482-5.121-.686-6.839-1.736 9.593-5.127 27.813-7.023 37.12l-.91 4.468-2.312-3.931c-2.275-3.868-10.883-4.001-14.006-3.728l-.307-3.486c1.143-.101 9.706-.72 14.754 2.745 2.801-14.125 7.258-38.573 7.414-39.803l.092-.736.701-.529c.354-.281 1.295-1.028 2.486-.513 1.389.599 2.107 1.482 3.283 14.927 1.111 12.709 3.004 31.102 3.906 38.672 2.479-7.235 8.92-27.637 9.147-28.587.406-1.73 1.103-3.718 2.888-3.72h.003c1.873 0 2.399 2.215 2.598 3.049.323 1.357.544 3.648.799 6.299.271 2.828.769 7.998 1.402 9.264.97.334 4.043.412 9.134.226.761-.028 1.364-.05 1.713-.05v3.5c-.322 0-.881.021-1.584.047-6.085.224-9.684.163-11.254-.809-1.699-1.052-2.165-4.249-2.896-11.842-.078-.816-.155-1.616-.232-2.361-2.219 7.185-8.103 25.6-9.242 28.448-.608 1.524-1.364 3.413-3.012 3.413z" opacity=".3" filter="url(#b)"/><linearGradient id="c" gradientUnits="userSpaceOnUse" x1="59" y1="93.426" x2="59" y2="26.951"><stop offset="0" stop-color="#D5E2EB"/><stop offset="1" stop-color="#EAF6FD"/></linearGradient><path d="M28.312 70.276s11.125-1 12.5.75 2.875 4.125 3.375 5.375c1.375-9.375 7.875-44.125 7.875-44.125s1.875-5.625 2.875 2.875 4.375 49.5 4.5 51.25 1.5 5.875 2.875 1.75 9.375-30.75 9.75-32.5 1.5-5.875 2.25-2 2.5 14.875 3.25 16.75 7.25 1.125 12.125 1.125" stroke="url(#c)" stroke-width="7" stroke-linecap="round" stroke-linejoin="round" stroke-miterlimit="10" fill="none"/></g></svg>