<svg xmlns="http://www.w3.org/2000/svg" width="120" height="120"><filter id="b" filterUnits="userSpaceOnUse" y="8" x="-7"><feOffset dy="3" in="SourceGraphic" result="offOut"/><feGaussianBlur in="offOut" stdDeviation="2" result="blurOut"/><feBlend in="SourceGraphic" in2="blurOut"/></filter><g enable-background="new"><g><linearGradient id="a" gradientUnits="userSpaceOnUse" x1="60" y1="120" x2="60"><stop offset="0" stop-color="#A59070"/><stop offset="1" stop-color="#BCAD8C"/></linearGradient><path d="M108 0h-96c-6.627 0-12 5.373-12 12v96c0 6.628 5.373 12 12 12h96c6.627 0 12-5.372 12-12v-96c0-6.627-5.373-12-12-12z" fill-rule="evenodd" clip-rule="evenodd" fill="url(#a)"/></g><path d="M69 26.136h-35.562c-2.996 0-5.425 2.428-5.425 5.424v57.854c0 2.996 2.429 5.424 5.425 5.424h53.151c2.996 0 5.424-2.428 5.424-5.424v-41.008l-23.013-22.27z" opacity=".2" filter="url(#b)"/><g><linearGradient id="c" gradientUnits="userSpaceOnUse" x1="60.013" y1="96" x2="60.013" y2="22.97"><stop offset="0" stop-color="#ECE4D6"/><stop offset="1" stop-color="#FFF7E7"/></linearGradient><path d="M71 22.97l-39.234.006c-3.185 0-5.766 2.581-5.766 5.766v61.493c0 3.184 2.582 5.765 5.766 5.765h56.494c3.184 0 5.766-2.581 5.766-5.766v-44.265l-23.026-22.999z" fill-rule="evenodd" clip-rule="evenodd" fill="url(#c)"/></g><rect x="38" y="73" width="44" height="9" fill-rule="evenodd" clip-rule="evenodd" fill="#D0C1AA"/><rect x="38" y="55" width="44" height="9" fill-rule="evenodd" clip-rule="evenodd" fill="#D0C1AA"/><rect x="38" y="37" width="23.833" height="9" fill-rule="evenodd" clip-rule="evenodd" fill="#D0C1AA"/><path d="M70.988 22.961l.009 16.463c0 3.578 2.659 6.572 6.291 6.572h16.743l-23.043-23.035z" fill-rule="evenodd" clip-rule="evenodd" fill="#E8DFCC"/></g></svg>