<svg xmlns="http://www.w3.org/2000/svg" width="120" height="120"><g enable-background="new"><g><linearGradient id="a" gradientUnits="userSpaceOnUse" x1="60" y1="120" x2="60"><stop offset="0" stop-color="#B8C1CA"/><stop offset="1" stop-color="#BCC4CD"/></linearGradient><path d="M108 0h-96c-6.627 0-12 5.373-12 12v96c0 6.628 5.373 12 12 12h96c6.627 0 12-5.372 12-12v-96c0-6.627-5.373-12-12-12z" fill-rule="evenodd" clip-rule="evenodd" fill="url(#a)"/></g><path d="M100.049 72.129c-2.797-2.35-8.35-4.922-10.699-6.377-1.777-1.1-5.371-3.692-3.245-5.594 2.126-1.902 6.602-6.154 6.154-12.084-.447-5.93-4.494-13.668-13.314-13.536-8.745.131-12.309 10.067-12.309 13.872 0 3.804-7.201 9.378-4.07 12.195 2.238 2.014-2.238 4.811-3.692 5.482s2.277 3.469-1.191 6.825c-3.469 3.356-2.686 8.784-2.686 8.784s0 1.342 1.566 1.342 44.939-.066 45.611-.066c.671 0 1.678-.448 1.678-1.679.001-2.853-1.006-6.814-3.803-9.164z" fill-rule="evenodd" clip-rule="evenodd" fill="#97A4AF"/><path d="M61.883 72.129c-2.797-2.35 1.65-4.922-.7-6.377-1.777-1.1-5.371-3.692-3.245-5.594 2.126-1.902-3.398-6.154-3.846-12.084s-4.494-13.543-13.314-13.41c-8.744.131-12.308 9.941-12.308 13.746 0 3.804 2.799 9.378 5.93 12.195 2.238 2.014-2.238 4.811-3.692 5.482-1.455.672-7.723 3.469-11.191 6.825-3.469 3.356-2.686 8.742-2.686 8.742s0 1.343 1.566 1.343 44.939-.067 45.61-.067c.671 0 1.679-.448 1.679-1.679.002-2.853-1.006-6.772-3.803-9.122z" fill-rule="evenodd" clip-rule="evenodd" fill="#97A4AF"/><path d="M85.836 75.285c-3.191-2.681-10.732-5.745-13.413-7.404-2.028-1.256-6.128-4.214-3.703-6.384 2.426-2.171 7.533-7.022 7.022-13.789s-5.127-15.203-15.192-15.052c-9.978.148-14.044 11.094-14.044 15.436 0 4.34 3.194 10.701 6.767 13.916 2.553 2.298-2.554 5.49-4.213 6.256-1.66.766-9.638 3.958-13.595 7.788-3.958 3.83-3.064 9.423-3.064 9.423s0 1.532 1.788 1.532c1.787 0 53.308-.011 54.074-.011s1.915-.51 1.915-1.915c-.001-3.255-1.15-7.114-4.342-9.796z" fill-rule="evenodd" clip-rule="evenodd" fill="#EBECED"/></g></svg>