<svg xmlns="http://www.w3.org/2000/svg" width="120" height="120"><filter id="b" filterUnits="userSpaceOnUse" y="8" x="-7"><feOffset dy="3" in="SourceGraphic" result="offOut"/><feGaussianBlur in="offOut" stdDeviation="2" result="blurOut"/><feBlend in="SourceGraphic" in2="blurOut"/></filter><g enable-background="new"><g><linearGradient id="a" gradientUnits="userSpaceOnUse" x1="60" y1="120" x2="60"><stop offset="0" stop-color="#5A84DD"/><stop offset="1" stop-color="#628ADF"/></linearGradient><path d="M108 0h-96c-6.627 0-12 5.373-12 12v96c0 6.628 5.373 12 12 12h96c6.627 0 12-5.372 12-12v-96c0-6.627-5.373-12-12-12z" fill-rule="evenodd" clip-rule="evenodd" fill="url(#a)"/></g><path d="M96.812 71.33c-2.63-2.209-7.85-4.627-10.059-5.996-1.671-1.033-5.049-3.469-3.05-5.259 1.998-1.787 6.206-5.785 5.786-11.359-.421-5.575-4.226-12.85-12.518-12.726-8.221.123-11.571 9.465-11.571 13.041s-6.77 8.816-3.826 11.465c2.104 1.894-2.104 4.522-3.472 5.154-1.367.632 2.141 3.261-1.119 6.416-3.261 3.155-2.525 8.258-2.525 8.258s0 1.262 1.473 1.262c1.472 0 42.248-.062 42.879-.062s1.577-.421 1.577-1.578c0-2.683-.946-6.407-3.575-8.616z" opacity=".25" filter="url(#b)"/><g><linearGradient id="c" gradientUnits="userSpaceOnUse" x1="78.387" y1="83.039" x2="78.387" y2="34.536"><stop offset="0" stop-color="#3B5791"/><stop offset="1" stop-color="#4260A1"/></linearGradient><path d="M99.049 72.129c-2.797-2.35-8.35-4.922-10.699-6.377-1.777-1.1-5.371-3.691-3.245-5.594 2.125-1.902 6.601-6.154 6.154-12.084-.448-5.93-4.494-13.668-13.315-13.536-8.744.131-12.308 10.067-12.308 13.872 0 3.804-7.201 9.378-4.07 12.195 2.238 2.014-2.238 4.811-3.692 5.482s2.277 3.469-1.191 6.825c-3.469 3.356-2.686 8.783-2.686 8.783s0 1.343 1.566 1.343 44.939-.066 45.611-.066 1.678-.448 1.678-1.679c.001-2.853-1.006-6.814-3.803-9.164z" fill-rule="evenodd" clip-rule="evenodd" fill="url(#c)"/></g><path d="M60.646 71.332c-2.63-2.209 1.552-4.627-.657-5.994-1.671-1.034-5.049-3.471-3.051-5.26 1.999-1.788-3.195-5.785-3.616-11.359-.42-5.574-4.225-12.732-12.517-12.607-8.22.123-11.57 9.346-11.57 12.923 0 3.576 2.632 8.816 5.575 11.465 2.104 1.894-2.104 4.522-3.471 5.154-1.368.632-7.26 3.261-10.521 6.416-3.261 3.155-2.525 8.218-2.525 8.218s0 1.264 1.473 1.264 42.248-.064 42.878-.064 1.578-.421 1.578-1.578c0-2.683-.947-6.369-3.576-8.578z" opacity=".2" filter="url(#b)"/><g><linearGradient id="d" gradientUnits="userSpaceOnUse" x1="40.222" y1="82.998" x2="40.222" y2="34.662"><stop offset="0" stop-color="#3B5791"/><stop offset="1" stop-color="#4260A1"/></linearGradient><path d="M60.883 72.129c-2.797-2.35 1.65-4.922-.699-6.377-1.778-1.1-5.371-3.691-3.245-5.594s-3.398-6.154-3.846-12.084c-.447-5.93-4.494-13.543-13.314-13.41-8.744.131-12.308 9.941-12.308 13.746 0 3.804 2.799 9.378 5.93 12.195 2.238 2.014-2.238 4.811-3.692 5.482s-7.723 3.469-11.191 6.825c-3.469 3.356-2.686 8.741-2.686 8.741s0 1.344 1.566 1.344 44.939-.067 45.611-.067c.671 0 1.678-.448 1.678-1.679.001-2.853-1.007-6.772-3.804-9.122z" fill-rule="evenodd" clip-rule="evenodd" fill="url(#d)"/></g><path d="M83.194 76.264c-2.979-2.502-10.015-5.361-12.517-6.91-1.893-1.172-5.719-3.933-3.456-5.958 2.264-2.026 7.03-6.554 6.554-12.868s-4.786-14.188-14.179-14.048c-9.311.139-13.106 10.353-13.106 14.407 0 4.049 2.981 9.985 6.314 12.986 2.383 2.144-2.382 5.123-3.932 5.837-1.549.716-8.994 3.693-12.687 7.269-3.694 3.575-2.86 8.794-2.86 8.794s0 1.431 1.668 1.431 49.749.284 50.464.284c.714 0 1.787-.477 1.787-1.787.001-3.038-1.072-6.935-4.05-9.437z" opacity=".2" filter="url(#b)"/><g><linearGradient id="e" gradientUnits="userSpaceOnUse" x1="60.245" y1="88.313" x2="60.245" y2="33.654"><stop offset="0" stop-color="#D2DAEC"/><stop offset="1" stop-color="#E4ECFE"/></linearGradient><path d="M84.836 76.285c-3.191-2.681-10.731-5.745-13.413-7.404-2.028-1.256-6.128-4.214-3.703-6.384 2.426-2.171 7.533-7.022 7.022-13.789s-5.127-15.203-15.192-15.052c-9.978.148-14.044 11.094-14.044 15.436 0 4.34 3.194 10.701 6.767 13.916 2.553 2.298-2.553 5.49-4.213 6.256-1.66.766-9.638 3.957-13.595 7.788-3.958 3.83-3.064 9.423-3.064 9.423s0 1.532 1.788 1.532 53.308.306 54.074.306 1.915-.511 1.915-1.915c-.001-3.255-1.15-7.431-4.342-10.113z" fill-rule="evenodd" clip-rule="evenodd" fill="url(#e)"/></g></g></svg>