<svg xmlns="http://www.w3.org/2000/svg" width="120" height="120"><filter id="b" filterUnits="userSpaceOnUse" y="8" x="-7"><feOffset dy="3" in="SourceGraphic" result="offOut"/><feGaussianBlur in="offOut" stdDeviation="2" result="blurOut"/><feBlend in="SourceGraphic" in2="blurOut"/></filter><g enable-background="new"><g><linearGradient id="a" gradientUnits="userSpaceOnUse" x1="60" y1="115" x2="60" y2=".464"><stop offset="0" stop-color="#E5764B"/><stop offset="1" stop-color="#E98A66"/></linearGradient><path d="M108 0h-96c-6.627 0-12 5.373-12 12v96c0 6.628 5.373 12 12 12h96c6.627 0 12-5.372 12-12v-96c0-6.627-5.373-12-12-12z" fill-rule="evenodd" clip-rule="evenodd" fill="url(#a)"/></g><path d="M89.783 53.183c-.589-.572-1.213-.908-1.72-1.031-.519-.114-.993-.144-1.49-.145h-53.309c-.662.007-1.277.042-2.024.301-.37.135-.797.488-1.181.871-.389.374-.652.954-.64 1.473.021.832.45 1.338.801 1.691.372.355.762.606 1.198.846l13.814 7.451c.247.086.682.715.643 1.132 0 .104-.016.189-.04.252l-5.37 23.121c-.151.416-.263.817-.268 1.309.009.412.067.948.576 1.551.492.619 1.583 1.007 2.329.969 1.413-.064 2.001-.52 2.7-.953l13.508-18.13c.11-.084.393-.182.709-.181.306-.001.571.089.683.168l14.238 18.207c.704.419 1.284.852 2.665.913l.099.002c.71 0 1.705-.351 2.192-.939.521-.597.584-1.143.59-1.548-.005-.527-.134-.951-.313-1.399l-6.037-23.212c-.026-.061-.045-.149-.045-.258-.034-.393.357-.951.582-1.03l13.747-7.424c.437-.239.829-.491 1.2-.847.349-.354.778-.859.798-1.691.012-.516-.251-1.095-.635-1.469z" opacity=".15" filter="url(#b)"/><g><linearGradient id="c" gradientUnits="userSpaceOnUse" x1="59.502" y1="96.009" x2="59.502" y2="50.998" gradientTransform="translate(.416 -1)"><stop offset="0" stop-color="#EDE3DF"/><stop offset="1" stop-color="#FFF5F1"/></linearGradient><path d="M92.711 51.289c-.646-.628-1.333-.997-1.888-1.132-.57-.125-1.091-.158-1.637-.159h-58.535c-.727.008-1.403.047-2.223.331-.406.147-.875.536-1.296.956-.427.411-.716 1.048-.703 1.617.023.913.494 1.47.88 1.856.408.391.837.666 1.315.929l15.169 8.182c.271.095.748.785.705 1.243 0 .113-.017.207-.043.276l-5.897 25.388c-.166.456-.289.897-.294 1.438.009.452.074 1.041.632 1.703.54.68 1.739 1.106 2.557 1.064 1.551-.07 2.197-.57 2.964-1.046l14.833-19.908c.121-.093.431-.2.779-.199.336-.001.627.098.75.185l15.634 19.991c.772.461 1.409.936 2.926 1.003l.11.002c.78 0 1.872-.386 2.407-1.031.572-.655.641-1.255.648-1.699-.005-.579-.147-1.044-.345-1.536l-6.629-25.488c-.029-.067-.05-.164-.05-.283-.037-.432.392-1.044.639-1.131l15.095-8.152c.48-.262.911-.539 1.318-.93.383-.389.854-.943.876-1.856.013-.568-.276-1.204-.697-1.614z" fill-rule="evenodd" clip-rule="evenodd" fill="url(#c)"/></g><circle cx="60.417" cy="32" r="9" opacity=".15" filter="url(#b)"/><g><linearGradient id="d" gradientUnits="userSpaceOnUse" x1="60" y1="43" x2="60" y2="23" gradientTransform="translate(.416 -1)"><stop offset="0" stop-color="#EDE3DF"/><stop offset="1" stop-color="#FFF5F1"/></linearGradient><circle cx="60.417" cy="32" r="10" fill-rule="evenodd" clip-rule="evenodd" fill="url(#d)"/></g></g></svg>