<svg xmlns="http://www.w3.org/2000/svg" width="120" height="120"><filter id="b" filterUnits="userSpaceOnUse" y="8" x="-7"><feOffset dy="3" in="SourceGraphic" result="offOut"/><feGaussianBlur in="offOut" stdDeviation="2" result="blurOut"/><feBlend in="SourceGraphic" in2="blurOut"/></filter><g><g><linearGradient id="a" gradientUnits="userSpaceOnUse" x1="60" y1="120" x2="60"><stop offset="0" stop-color="#5970BD"/><stop offset="1" stop-color="#6680C7"/></linearGradient><path d="M108 0h-96c-6.627 0-12 5.373-12 12v96c0 6.628 5.373 12 12 12h96c6.628 0 12-5.372 12-12v-96c0-6.627-5.372-12-12-12z" fill-rule="evenodd" clip-rule="evenodd" fill="url(#a)"/></g><path d="M57.881 85.74c-6.317 6.284-16.593 6.284-22.979 0-6.317-6.354-6.317-16.574 0-22.859l8.54-8.494c-.277 3.177.138 6.353 1.249 9.323l-4.443 4.42c-3.401 3.384-3.401 8.909 0 12.292 3.402 3.384 8.956 3.384 12.357 0l9.303-9.254c3.472-3.384 3.472-8.909 0-12.292-1.458-1.451-1.458-3.867 0-5.318 1.459-1.45 3.888-1.45 5.347 0 6.317 6.354 6.317 16.575 0 22.859l-9.374 9.323zm19.022-18.923c.277-3.177-.139-6.284-1.25-9.253l4.443-4.489c3.401-3.384 3.401-8.909 0-12.293s-8.955-3.384-12.357 0l-9.372 9.254c-3.402 3.453-3.402 8.909 0 12.362 1.527 1.45 1.527 3.798 0 5.249-1.459 1.45-3.818 1.45-5.276 0-6.317-6.354-6.317-16.575 0-22.859l9.303-9.254c6.387-6.354 16.662-6.354 22.979 0 6.387 6.284 6.387 16.505 0 22.858l-8.47 8.425z" opacity=".15" filter="url(#b)"/><linearGradient id="c" gradientUnits="userSpaceOnUse" x1="60.164" y1="90.619" x2="60.164" y2="30.603"><stop offset="0" stop-color="#D5E3F3"/><stop offset="1" stop-color="#D6E4F4"/></linearGradient><path d="M57.868 85.879c-6.353 6.319-16.685 6.319-23.106 0-6.353-6.389-6.353-16.666 0-22.985l8.587-8.542c-.279 3.194.139 6.389 1.256 9.375l-4.468 4.444c-3.42 3.403-3.42 8.958 0 12.361 3.421 3.403 9.006 3.403 12.426 0l9.354-9.305c3.491-3.403 3.491-8.958 0-12.361-1.466-1.458-1.466-3.889 0-5.347 1.467-1.458 3.909-1.458 5.376 0 6.353 6.389 6.353 16.667 0 22.986l-9.425 9.374zm19.128-19.027c.279-3.194-.14-6.319-1.257-9.305l4.468-4.514c3.421-3.403 3.421-8.958 0-12.361-3.42-3.403-9.005-3.403-12.426 0l-9.424 9.305c-3.421 3.472-3.421 8.958 0 12.43 1.535 1.458 1.535 3.819 0 5.278-1.467 1.458-3.84 1.458-5.306 0-6.353-6.389-6.353-16.667 0-22.986l9.354-9.305c6.422-6.389 16.754-6.389 23.106 0 6.423 6.319 6.423 16.597 0 22.985l-8.515 8.473z" fill="url(#c)"/></g></svg>