<svg xmlns="http://www.w3.org/2000/svg" width="120" height="120"><filter id="b" filterUnits="userSpaceOnUse" y="8" x="-7"><feOffset dy="3" in="SourceGraphic" result="offOut"/><feGaussianBlur in="offOut" stdDeviation="2" result="blurOut"/><feBlend in="SourceGraphic" in2="blurOut"/></filter><g enable-background="new"><g><linearGradient id="a" gradientUnits="userSpaceOnUse" x1="60" y1="120" x2="60"><stop offset="0" stop-color="#DBD75D"/><stop offset="1" stop-color="#DDD965"/></linearGradient><path d="M108 0h-96c-6.627 0-12 5.374-12 12v96c0 6.628 5.373 12 12 12h96c6.627 0 12-5.373 12-12v-96c0-6.626-5.373-12-12-12z" fill-rule="evenodd" clip-rule="evenodd" fill="url(#a)"/></g><path d="M91.037 27.839h-61.079c-3.016 0-5.461 2.444-5.461 5.461v55.394c0 3.017 2.445 5.461 5.461 5.461h43.875l22.664-22.196v-38.659c0-3.016-2.444-5.461-5.46-5.461z" opacity=".2" filter="url(#b)"/><path d="M92.167 26h-64.468c-3.183 0-5.764 2.58-5.764 5.764v58.466c0 3.184 2.581 5.764 5.764 5.764h48.145l22.086-21.994v-42.236c0-3.184-2.58-5.764-5.763-5.764z" fill-rule="evenodd" clip-rule="evenodd" fill="#F8F8EE"/><path d="M38.917 17h-2c-1.104 0-2 .896-2 2v15c0 1.104.896 2 2 2h2c1.104 0 2-.896 2-2v-15c0-1.104-.896-2-2-2z" fill-rule="evenodd" clip-rule="evenodd" fill="#A3A398"/><path d="M60.917 17h-2c-1.104 0-2 .896-2 2v15c0 1.104.896 2 2 2h2c1.104 0 2-.896 2-2v-15c0-1.104-.896-2-2-2z" fill-rule="evenodd" clip-rule="evenodd" fill="#A3A398"/><path d="M82.917 17h-2c-1.104 0-2 .896-2 2v15c0 1.104.896 2 2 2h2c1.104 0 2-.896 2-2v-15c0-1.104-.896-2-2-2z" fill-rule="evenodd" clip-rule="evenodd" fill="#A3A398"/><polygon points="34.917,74 34.667,80 68.083,80 68.333,74" fill-rule="evenodd" clip-rule="evenodd" fill="#DAD9C6"/><rect x="34.917" y="61" width="50" height="6" fill-rule="evenodd" clip-rule="evenodd" fill="#DAD9C6"/><rect x="34.917" y="48" width="50" height="6" fill-rule="evenodd" clip-rule="evenodd" fill="#DAD9C6"/><path d="M82.141 74c-3.729 0-6.291 1.832-6.291 6.348l-.006 15.667 22.094-22.015h-15.797z" fill-rule="evenodd" clip-rule="evenodd" fill="#E5E3CC"/></g></svg>