<svg xmlns="http://www.w3.org/2000/svg" width="120" height="120"><filter id="c" filterUnits="userSpaceOnUse" y="8" x="-7"><feOffset dy="3" in="SourceGraphic" result="offOut"/><feGaussianBlur in="offOut" stdDeviation="2" result="blurOut"/><feBlend in="SourceGraphic" in2="blurOut"/></filter><g enable-background="new"><g><linearGradient id="a" gradientUnits="userSpaceOnUse" x1="60" y1="120" x2="60"><stop offset="0" stop-color="#F1B143"/><stop offset="1" stop-color="#F3BE63"/></linearGradient><path d="M108 0h-96c-6.627 0-12 5.373-12 12v96c0 6.628 5.373 12 12 12h96c6.628 0 12-5.372 12-12v-96c0-6.627-5.372-12-12-12z" fill-rule="evenodd" clip-rule="evenodd" fill="url(#a)"/></g><g><linearGradient id="b" gradientUnits="userSpaceOnUse" x1="59.9" y1="108" x2="59.9" y2="12"><stop offset="0" stop-color="#E4920E"/><stop offset="1" stop-color="#EB9E21"/></linearGradient><path d="M101.8 12h-83.8c-3.313 0-6 2.687-6 6v84c0 3.313 2.687 6 6 6h83.8c3.313 0 6-2.687 6-6v-84c0-3.313-2.687-6-6-6z" fill-rule="evenodd" clip-rule="evenodd" fill="url(#b)"/></g><path d="M91.211 48.404c-2.504 0-4.535 2.03-4.535 4.535 0 1.023-.25 2.042.321 2.8.051.066-.078.494-.69.77-2.118.951-3.218 1.284-4.446 1.284-6.548 0-14.392-3.087-19.381-13.638-.175-.37-.353-.729-.207-.807 1.433-.762 2.41-2.271 2.41-4.008 0-2.504-2.03-4.535-4.536-4.535-2.504 0-4.534 2.031-4.534 4.535 0 1.62.789 3.223 2.102 3.923.223.118.042.297-.121.639-5.151 10.804-12.864 13.865-19.415 13.865-1.07 0-2.981-1.241-4.913-2.31-.29-.161-.692-.314-.549-.581.341-.636.31-1.165.31-1.938 0-2.504-2.03-4.535-4.535-4.535-2.504 0-4.534 2.03-4.534 4.535 0 2.505 2.03 4.535 4.534 4.535.585 0 .865-.385 1.041-.068 1.865 3.349 6.585 22.064 6.585 22.064.777 2.625 1.088 5.305 4.99 5.305 3.123 0 34.285.067 39.042 0 3.951-.056 4.273-5.305 4.273-5.305s4.139-16.762 5.754-21.837c.39-1.229.06-.203.143-.177.419.126.434.018.893.018 2.505 0 4.536-2.03 4.536-4.535-.002-2.503-2.033-4.534-4.538-4.534z" opacity=".1" filter="url(#c)"/><path d="M92.718 46.856c-2.625 0-4.753 2.128-4.753 4.753 0 1.072-.263 2.14.336 2.935.053.069-.081.518-.724.807-2.22.997-3.372 1.346-4.659 1.346-6.862 0-15.083-3.235-20.312-14.293-.184-.388-.369-.765-.217-.846 1.502-.799 2.525-2.38 2.525-4.2 0-2.625-2.128-4.753-4.753-4.753s-4.753 2.128-4.753 4.753c0 1.698.828 3.378 2.203 4.111.233.124.044.312-.127.67-5.398 11.323-13.482 14.531-20.347 14.531-1.122 0-3.125-1.301-5.148-2.421-.305-.169-.726-.329-.576-.608.357-.667.325-1.221.325-2.031 0-2.625-2.128-4.753-4.753-4.753s-4.753 2.128-4.753 4.753 2.128 4.753 4.753 4.753c.612 0 .906-.403 1.091-.071 1.954 3.51 6.9 23.124 6.9 23.124.815 2.752 1.141 5.56 5.23 5.56 3.272 0 35.932.07 40.917 0 4.141-.059 4.479-5.56 4.479-5.56s4.339-17.567 6.03-22.886c.409-1.288.063-.212.15-.186.438.133.454.019.936.019 2.625 0 4.753-2.128 4.753-4.753s-2.128-4.754-4.753-4.754z" fill-rule="evenodd" clip-rule="evenodd" fill="#FCEDD2"/></g></svg>