<svg xmlns="http://www.w3.org/2000/svg" width="120" height="120"><filter id="b" filterUnits="userSpaceOnUse" y="8" x="-7"><feOffset dy="3" in="SourceGraphic" result="offOut"/><feGaussianBlur in="offOut" stdDeviation="2" result="blurOut"/><feBlend in="SourceGraphic" in2="blurOut"/></filter><g enable-background="new"><g><linearGradient id="a" gradientUnits="userSpaceOnUse" x1="60" y1="120" x2="60"><stop offset="0" stop-color="#1AACB6"/><stop offset="1" stop-color="#26B0BA"/></linearGradient><path d="M108 0h-96c-6.627 0-12 5.373-12 12v96c0 6.628 5.373 12 12 12h96c6.628 0 12-5.372 12-12v-96c0-6.627-5.372-12-12-12z" fill-rule="evenodd" clip-rule="evenodd" fill="url(#a)"/></g><path d="M96.956 72.407c-2.605-2.171-8.517-4.65-10.705-5.995-1.656-1.015-5.004-3.41-3.023-5.166 1.981-1.758 6.15-5.686 5.733-11.164-.417-5.478-4.187-11.905-12.405-11.783-8.146.121-11.467 8.58-11.467 12.094s2.608 8.663 5.525 11.266c2.085 1.859-2.085 4.444-3.44 5.065-1.355.619-7.869 3.136-11.101 6.236-3.231 3.101-2.501 7.495-2.501 7.495s0 1.24 1.459 1.24l43.906.005c.625 0 1.564-.413 1.564-1.549 0-2.634-.939-5.573-3.545-7.744z" opacity=".2" filter="url(#b)"/><g><linearGradient id="c" gradientUnits="userSpaceOnUse" x1="77.001" y1="83.013" x2="77.001" y2="34.984"><stop offset="0" stop-color="#12787F"/><stop offset="1" stop-color="#12787F"/></linearGradient><path d="M99.082 72.729c-2.883-2.402-9.424-5.146-11.846-6.634-1.832-1.124-5.537-3.773-3.345-5.718 2.191-1.944 6.806-6.29 6.344-12.352-.461-6.062-4.633-13.175-13.727-13.04-9.015.135-12.688 9.495-12.688 13.383 0 3.889 2.886 9.586 6.113 12.467 2.308 2.058-2.307 4.917-3.807 5.604-1.499.686-8.707 3.471-12.283 6.901-3.575 3.431-2.768 8.294-2.768 8.294s0 1.373 1.614 1.373l48.584.005c.691 0 1.73-.457 1.73-1.715.002-2.915-1.037-6.166-3.921-8.568z" fill-rule="evenodd" clip-rule="evenodd" fill="url(#c)"/></g><path d="M66.25 75.846c-2.882-2.422-9.422-5.189-11.844-6.689-1.832-1.135-5.536-3.806-3.344-5.767 2.191-1.962 6.805-6.343 6.343-12.456s-4.633-13.287-13.725-13.15c-9.014.135-12.688 9.574-12.688 13.496s2.886 9.668 6.113 12.572c2.307 2.075-2.306 4.959-3.805 5.65-1.5.692-8.706 3.5-12.282 6.961-3.575 3.461-2.768 8.365-2.768 8.365s0 1.383 1.615 1.383l48.577.006c.691 0 1.73-.461 1.73-1.729-.001-2.941-1.039-6.22-3.922-8.642z" opacity=".2" filter="url(#b)"/><g><linearGradient id="d" gradientUnits="userSpaceOnUse" x1="44.171" y1="87.982" x2="44.171" y2="36.016"><stop offset="0" stop-color="#C5F8FC"/><stop offset="1" stop-color="#C5F8FC"/></linearGradient><path d="M67.859 76.855c-3.093-2.599-10.109-5.568-12.708-7.178-1.965-1.217-5.939-4.083-3.588-6.187s7.301-6.806 6.806-13.364-4.971-14.256-14.726-14.109c-9.671.145-13.612 10.272-13.612 14.48 0 4.207 3.097 10.372 6.559 13.488 2.475 2.227-2.475 5.32-4.083 6.062-1.609.743-9.341 3.756-13.178 7.469-3.836 3.713-2.97 8.975-2.97 8.975s0 1.484 1.732 1.484l52.119.006s1.856-.494 1.856-1.855c.001-3.154-1.113-6.672-4.207-9.271z" fill-rule="evenodd" clip-rule="evenodd" fill="url(#d)"/></g></g></svg>