<svg xmlns="http://www.w3.org/2000/svg" width="120" height="120"><filter id="b" filterUnits="userSpaceOnUse" y="8" x="-7"><feOffset dy="3" in="SourceGraphic" result="offOut"/><feGaussianBlur in="offOut" stdDeviation="2" result="blurOut"/><feBlend in="SourceGraphic" in2="blurOut"/></filter><g enable-background="new"><g><linearGradient id="a" gradientUnits="userSpaceOnUse" x1="60" y1="120" x2="60"><stop offset="0" stop-color="#ddd"/><stop offset="1" stop-color="#DFDFDF"/></linearGradient><path d="M108 0h-96c-6.627 0-12 5.373-12 12v96c0 6.628 5.373 12 12 12h96c6.628 0 12-5.372 12-12v-96c0-6.627-5.372-12-12-12z" fill-rule="evenodd" clip-rule="evenodd" fill="url(#a)"/></g><path d="M104.125 10h-4c-2.762 0-5 2.238-5 5v4c0 2.762 2.238 5 5 5h4c2.762 0 5-2.238 5-5v-4c0-2.762-2.238-5-5-5z" fill-rule="evenodd" clip-rule="evenodd" fill="#8C898D"/><ellipse cx="60.125" cy="57.873" rx="40.5" ry="39.627" opacity=".5" filter="url(#b)"/><circle cx="60.125" cy="59" r="42" fill-rule="evenodd" clip-rule="evenodd" fill="#F8F8F8"/><g><radialGradient id="c" cx="61" cy="59" r="29" gradientTransform="translate(-.875)" gradientUnits="userSpaceOnUse"><stop offset=".271" stop-color="#3D343E"/><stop offset=".626" stop-color="#3D343E"/><stop offset=".872" stop-color="#332E35"/><stop offset="1" stop-color="#1F1B1F"/></radialGradient><circle cx="60.125" cy="59" r="29" fill-rule="evenodd" clip-rule="evenodd" fill="url(#c)"/></g><g><radialGradient id="d" cx="61" cy="59" r="17" gradientTransform="translate(-.875)" gradientUnits="userSpaceOnUse"><stop offset=".645" stop-color="#312A33"/><stop offset=".852" stop-color="#312A33"/><stop offset="1" stop-color="#2C252E"/></radialGradient><circle cx="60.125" cy="59" r="17" fill-rule="evenodd" clip-rule="evenodd" fill="url(#d)"/></g><circle cx="60.125" cy="59" r="6.12" fill-rule="evenodd" clip-rule="evenodd" fill="#2A232B"/><path d="M60.625 35c-10.77 0-19.5 5.629-19.5 12.572 0 6.942 9.23 8.428 20 8.428s19-1.485 19-8.428c0-6.943-8.73-12.572-19.5-12.572z" fill-rule="evenodd" clip-rule="evenodd" fill="#fff" opacity=".2"/></g></svg>