<svg xmlns="http://www.w3.org/2000/svg" width="120" height="120"><filter id="b" filterUnits="userSpaceOnUse" y="8" x="-7"><feOffset dy="3" in="SourceGraphic" result="offOut"/><feGaussianBlur in="offOut" stdDeviation="2" result="blurOut"/><feBlend in="SourceGraphic" in2="blurOut"/></filter><g enable-background="new"><g><linearGradient id="a" gradientUnits="userSpaceOnUse" x1="60" y1="120" x2="60"><stop offset="0" stop-color="#4377BF"/><stop offset="1" stop-color="#5E8BC8"/></linearGradient><path d="M108 0h-96c-6.627 0-12 5.373-12 12v96c0 6.628 5.373 12 12 12h96c6.627 0 12-5.372 12-12v-96c0-6.627-5.373-12-12-12z" fill-rule="evenodd" clip-rule="evenodd" fill="url(#a)"/></g><path d="M94.65 26.281h-69.3c-2.126 0-3.85 1.724-3.85 3.85v6.737c0 2.126 1.724 3.85 3.85 3.85h69.3c2.126 0 3.85-1.724 3.85-3.85v-6.737c0-2.126-1.724-3.85-3.85-3.85z" opacity=".15" filter="url(#b)"/><g><linearGradient id="c" gradientUnits="userSpaceOnUse" x1="60" y1="41" x2="60" y2="26"><stop offset="0" stop-color="#8EB8F4"/><stop offset="1" stop-color="#9BC7FF"/></linearGradient><path d="M96 26h-72c-2.209 0-4 1.791-4 4v7c0 2.209 1.791 4 4 4h72c2.209 0 4-1.791 4-4v-7c0-2.209-1.791-4-4-4z" fill-rule="evenodd" clip-rule="evenodd" fill="url(#c)"/></g><path d="M96 52h-72c-2.209 0-4 1.791-4 4v7c0 2.21 1.791 4 4 4h72c2.209 0 4-1.79 4-4v-7c0-2.209-1.791-4-4-4z" fill-rule="evenodd" clip-rule="evenodd" fill="#3865A5"/><path d="M52.421 52.79h-26.842c-1.977 0-3.579 1.603-3.579 3.579v6.264c0 1.977 1.603 3.579 3.579 3.579h26.842c1.977 0 3.579-1.602 3.579-3.579v-6.264c0-1.977-1.603-3.579-3.579-3.579z" opacity=".15" filter="url(#b)"/><g><linearGradient id="d" gradientUnits="userSpaceOnUse" x1="39" y1="67" x2="39" y2="52"><stop offset="0" stop-color="#8EB8F4"/><stop offset="1" stop-color="#9BC7FF"/></linearGradient><path d="M54 52h-30c-2.209 0-4 1.791-4 4v7c0 2.21 1.791 4 4 4h30c2.209 0 4-1.79 4-4v-7c0-2.209-1.791-4-4-4z" fill-rule="evenodd" clip-rule="evenodd" fill="url(#d)"/></g><path d="M96 78h-72c-2.209 0-4 1.791-4 4v7c0 2.209 1.791 4 4 4h72c2.209 0 4-1.791 4-4v-7c0-2.209-1.791-4-4-4z" fill-rule="evenodd" clip-rule="evenodd" fill="#3865A5"/><path d="M70.286 78.536h-44.572c-2.051 0-3.714 1.663-3.714 3.714v6.5c0 2.051 1.663 3.714 3.714 3.714h44.571c2.051 0 3.714-1.663 3.714-3.714v-6.5c.001-2.051-1.662-3.714-3.713-3.714z" opacity=".1" filter="url(#b)"/><g><linearGradient id="e" gradientUnits="userSpaceOnUse" x1="48" y1="93" x2="48" y2="78"><stop offset="0" stop-color="#8EB8F4"/><stop offset="1" stop-color="#9BC7FF"/></linearGradient><path d="M72 78h-48c-2.209 0-4 1.791-4 4v7c0 2.209 1.791 4 4 4h48c2.209 0 4-1.791 4-4v-7c0-2.209-1.791-4-4-4z" fill-rule="evenodd" clip-rule="evenodd" fill="url(#e)"/></g></g></svg>