<svg xmlns="http://www.w3.org/2000/svg" width="120" height="120"><filter id="b" filterUnits="userSpaceOnUse" y="8" x="-7"><feOffset dy="3" in="SourceGraphic" result="offOut"/><feGaussianBlur in="offOut" stdDeviation="2" result="blurOut"/><feBlend in="SourceGraphic" in2="blurOut"/></filter><g enable-background="new"><g><linearGradient id="a" gradientUnits="userSpaceOnUse" x1="60" y1="120" x2="60"><stop offset="0" stop-color="#99B366"/><stop offset="1" stop-color="#ADC27A"/></linearGradient><path d="M108 0h-96c-6.627 0-12 5.373-12 12v96.001c0 6.627 5.373 11.999 12 11.999h96c6.627 0 12-5.372 12-11.999v-96.001c0-6.627-5.373-12-12-12z" fill-rule="evenodd" clip-rule="evenodd" fill="url(#a)"/></g><path d="M92.535 18.482h-65.32c-4.123 0-7.465 3.457-7.465 7.721v66.593c0 4.265 3.342 7.721 7.465 7.721h65.32c4.123 0 7.465-3.456 7.465-7.721v-66.592c0-4.265-3.342-7.722-7.465-7.722z" opacity=".2" filter="url(#b)"/><g><linearGradient id="c" gradientUnits="userSpaceOnUse" x1="60" y1="102" x2="60" y2="17.75"><stop offset="0" stop-color="#DBE2C9"/><stop offset=".892" stop-color="#EBF2D9"/></linearGradient><path d="M94.187 17.75h-68.373c-4.315 0-7.814 3.55-7.814 7.93v68.39c0 4.38 3.499 7.93 7.814 7.93h68.372c4.314 0 7.813-3.549 7.813-7.93v-68.39c.001-4.38-3.498-7.93-7.812-7.93z" fill-rule="evenodd" clip-rule="evenodd" fill="url(#c)"/></g><path d="M74 48.216c0-7.852-6.268-14.216-14-14.216-7.731 0-14 6.364-14 14.216 0 5.846 3.475 10.867 8.442 13.051l.116.117-3.891 22.616h18.666l-3.732-22.279s.021-.481-.029-.46c4.959-2.187 8.428-7.204 8.428-13.045z" fill-rule="evenodd" clip-rule="evenodd" fill="#67717A"/></g></svg>