<svg xmlns="http://www.w3.org/2000/svg" width="120" height="120"><filter id="b" filterUnits="userSpaceOnUse" y="8" x="-7"><feOffset dy="3" in="SourceGraphic" result="offOut"/><feGaussianBlur in="offOut" stdDeviation="2" result="blurOut"/><feBlend in="SourceGraphic" in2="blurOut"/></filter><g enable-background="new"><g><linearGradient id="a" gradientUnits="userSpaceOnUse" x1="60" y1="120" x2="60"><stop offset="0" stop-color="#49AFC9"/><stop offset="1" stop-color="#52B3CC"/></linearGradient><path d="M108 0h-96c-6.627 0-12 5.373-12 12v96c0 6.628 5.373 12 12 12h96c6.627 0 12-5.372 12-12v-96c0-6.627-5.373-12-12-12z" fill-rule="evenodd" clip-rule="evenodd" fill="url(#a)"/></g><path d="M79.21 26.401h-38.42c-9.833 0-17.29 8.033-17.29 18.25v15.369c0 10.409 7.841 18.25 16.329 18.25h6.724v13.447s.008 2.882 2.881 2.882c2.612 0 13.592-16.329 15.643-16.329h15.094c8.488 0 16.329-7.457 16.329-18.25v-15.369c0-10.985-7.073-18.25-17.29-18.25z" opacity=".2" filter="url(#b)"/><g><linearGradient id="c" gradientUnits="userSpaceOnUse" x1="60" y1="96" x2="60" y2="25"><stop offset="0" stop-color="#BEE3ED"/><stop offset="1" stop-color="#D0F4FE"/></linearGradient><path d="M80 25h-40c-10.236 0-18 8.363-18 19v16c0 10.837 8.164 19 17 19h7v14s.009 3 3 3c2.719 0 14.151-17 16.286-17h15.714c8.836 0 17-7.764 17-19v-16c0-11.437-7.363-19-18-19z" fill-rule="evenodd" clip-rule="evenodd" fill="url(#c)"/></g></g></svg>