<svg xmlns="http://www.w3.org/2000/svg" width="120" height="120"><filter id="b" filterUnits="userSpaceOnUse" y="8" x="-7"><feOffset dy="3" in="SourceGraphic" result="offOut"/><feGaussianBlur in="offOut" stdDeviation="2" result="blurOut"/><feBlend in="SourceGraphic" in2="blurOut"/></filter><g enable-background="new"><g><linearGradient id="a" gradientUnits="userSpaceOnUse" x1="60" y1="120" x2="60"><stop offset="0" stop-color="#70B970"/><stop offset="1" stop-color="#68B568"/></linearGradient><path d="M108 0h-96c-6.627 0-12 5.373-12 12v96c0 6.628 5.373 12 12 12h96c6.628 0 12-5.372 12-12v-96c0-6.627-5.372-12-12-12z" fill-rule="evenodd" clip-rule="evenodd" fill="url(#a)"/></g><path d="M94.65 25.369h-69.3c-2.126 0-3.85 1.724-3.85 3.85v62.562c0 2.126 1.724 3.85 3.85 3.85h69.3c2.126 0 3.85-1.724 3.85-3.85v-62.562c0-2.126-1.724-3.85-3.85-3.85z" opacity=".2" filter="url(#b)"/><g><linearGradient id="c" gradientUnits="userSpaceOnUse" x1="60" y1="96" x2="60" y2="23"><stop offset="0" stop-color="#C6DBD1"/><stop offset="1" stop-color="#D9EEE4"/></linearGradient><path d="M96 23h-72c-2.209 0-4 1.791-4 4v65c0 2.209 1.791 4 4 4h72c2.209 0 4-1.791 4-4v-65c0-2.209-1.791-4-4-4z" fill-rule="evenodd" clip-rule="evenodd" fill="url(#c)"/></g><rect x="33" y="72" width="54" height="9" fill-rule="evenodd" clip-rule="evenodd" fill="#52B052"/><rect x="33" y="55" width="54" height="9" fill-rule="evenodd" clip-rule="evenodd" fill="#52B052"/><rect x="51" y="38" width="36" height="9" fill-rule="evenodd" clip-rule="evenodd" fill="#52B052"/><rect x="33" y="38" width="10" height="9" fill-rule="evenodd" clip-rule="evenodd" fill="#52B052"/></g></svg>