<svg xmlns="http://www.w3.org/2000/svg" width="120" height="120"><filter id="a" filterUnits="userSpaceOnUse" y="8" x="-7"><feOffset dy="3" in="SourceGraphic" result="offOut"/><feGaussianBlur in="offOut" stdDeviation="2" result="blurOut"/><feBlend in="SourceGraphic" in2="blurOut"/></filter><g enable-background="new"><path d="M108 0h-96c-6.627 0-12 5.373-12 12v96c0 6.628 5.373 12 12 12h96c6.628 0 12-5.372 12-12v-96c0-6.627-5.372-12-12-12z" fill-rule="evenodd" clip-rule="evenodd" fill="#4FAC9C"/><path d="M93.75 25.281h-67.5c-2.071 0-3.75 1.679-3.75 3.75v60.938c0 2.071 1.679 3.75 3.75 3.75h67.5c2.071 0 3.75-1.679 3.75-3.75v-60.938c0-2.071-1.679-3.75-3.75-3.75z" opacity=".2" filter="url(#a)"/><path d="M96 23h-72c-2.209 0-4 1.791-4 4v65c0 2.209 1.791 4 4 4h72c2.209 0 4-1.791 4-4v-65c0-2.209-1.791-4-4-4z" fill-rule="evenodd" clip-rule="evenodd" fill="#D7ECE9"/><rect x="47" y="37" width="40" height="9" fill-rule="evenodd" clip-rule="evenodd" fill="#6CB6A9"/><rect x="47" y="55" width="40" height="9" fill-rule="evenodd" clip-rule="evenodd" fill="#6CB6A9"/><rect x="47" y="73" width="40" height="9" fill-rule="evenodd" clip-rule="evenodd" fill="#6CB6A9"/><circle cx="36.339" cy="41.583" r="4.583" fill-rule="evenodd" clip-rule="evenodd" fill="#3A9A89"/><circle cx="36.339" cy="59.583" r="4.583" fill-rule="evenodd" clip-rule="evenodd" fill="#3A9A89"/><circle cx="36.339" cy="77.583" r="4.583" fill-rule="evenodd" clip-rule="evenodd" fill="#3A9A89"/></g></svg>