<svg xmlns="http://www.w3.org/2000/svg" width="120" height="120"><filter id="b" filterUnits="userSpaceOnUse" y="8" x="-7"><feOffset dy="3" in="SourceGraphic" result="offOut"/><feGaussianBlur in="offOut" stdDeviation="2" result="blurOut"/><feBlend in="SourceGraphic" in2="blurOut"/></filter><g enable-background="new"><g><linearGradient id="a" gradientUnits="userSpaceOnUse" x1="60" y1="120" x2="60"><stop offset="0" stop-color="#DD6894"/><stop offset="1" stop-color="#E277A4"/></linearGradient><path d="M108 0h-96c-6.627 0-12 5.373-12 12v96c0 6.628 5.373 12 12 12h96c6.628 0 12-5.372 12-12v-96c0-6.627-5.372-12-12-12z" fill-rule="evenodd" clip-rule="evenodd" fill="url(#a)"/></g><path d="M71.18 71.256c-1.77.223-3.393.845-4.791 1.761l-15.715-8.386c.64-1.42.999-2.995.999-4.653 0-1.66-.359-3.233-1-4.654l15.45-8.516c1.378.969 2.993 1.647 4.77 1.925 6.191.967 11.992-3.268 12.957-9.458.967-6.188-3.267-11.989-9.457-12.956-6.188-.967-11.989 3.268-12.956 9.456-.234 1.5-.16 2.976.17 4.367l-16.623 9.491c-1.421-.639-2.994-.999-4.652-.999-6.265 0-11.344 5.078-11.344 11.343s5.079 11.343 11.344 11.343c1.658 0 3.232-.359 4.652-1l16.673 9.208c-.379 1.393-.5 2.88-.308 4.4.785 6.215 6.459 10.617 12.674 9.832 6.216-.786 10.617-6.46 9.832-12.675-.786-6.213-6.459-10.615-12.675-9.829z" opacity=".15" filter="url(#b)"/><g><linearGradient id="c" gradientUnits="userSpaceOnUse" x1="56.487" y1="94.952" x2="56.487" y2="25.083"><stop offset="0" stop-color="#EBE3E5"/><stop offset="1" stop-color="#FFFBFE"/></linearGradient><path d="M71.657 71.621c-1.827.23-3.503.872-4.946 1.818l-16.226-8.658c.66-1.466 1.031-3.092 1.031-4.804 0-1.714-.371-3.339-1.032-4.806l15.952-8.793c1.423 1.001 3.09 1.701 4.925 1.987 6.392.998 12.381-3.374 13.378-9.765.998-6.39-3.373-12.379-9.765-13.377-6.39-.998-12.379 3.374-13.377 9.764-.242 1.549-.166 3.072.175 4.509l-17.163 9.8c-1.467-.66-3.091-1.031-4.804-1.031-6.468 0-11.712 5.243-11.712 11.712 0 6.468 5.244 11.711 11.712 11.711 1.713 0 3.338-.371 4.804-1.032l17.215 9.508c-.392 1.438-.516 2.974-.317 4.543.811 6.417 6.669 10.962 13.086 10.151 6.418-.812 10.962-6.67 10.151-13.087s-6.669-10.961-13.087-10.15z" fill-rule="evenodd" clip-rule="evenodd" fill="url(#c)"/></g><circle cx="73" cy="83" r="6" fill-rule="evenodd" clip-rule="evenodd" fill="#E68DB1"/><circle cx="40" cy="60" r="6" fill-rule="evenodd" clip-rule="evenodd" fill="#E68DB1"/><circle cx="73" cy="37" r="6" fill-rule="evenodd" clip-rule="evenodd" fill="#E68DB1"/></g></svg>