<svg xmlns="http://www.w3.org/2000/svg" width="120" height="120"><filter id="b" filterUnits="userSpaceOnUse" y="8" x="-7"><feOffset dy="3" in="SourceGraphic" result="offOut"/><feGaussianBlur in="offOut" stdDeviation="2" result="blurOut"/><feBlend in="SourceGraphic" in2="blurOut"/></filter><g enable-background="new"><g><linearGradient id="a" gradientUnits="userSpaceOnUse" x1="60" y1="120" x2="60"><stop offset="0" stop-color="#32AF5C"/><stop offset="1" stop-color="#50BB74"/></linearGradient><path d="M108 0h-96c-6.627 0-12 5.373-12 12v96c0 6.628 5.373 12 12 12h96c6.628 0 12-5.372 12-12v-96c0-6.627-5.372-12-12-12z" fill-rule="evenodd" clip-rule="evenodd" fill="url(#a)"/></g><path d="M91.248 42.62l-6.366-6.42c-.999-1.009-2.63-1.003-3.624.008l-28.478 28.99c-.994 1.012-2.623 1.014-3.62.003l-10.39-10.53c-.997-1.011-2.627-1.011-3.623.002l-6.398 6.499c-.995 1.011-.997 2.668-.004 3.68l16.263 16.595c.994 1.012 2.958 3.648 4.365 3.648h2.983c1.408 0 3.374-2.634 4.368-3.646l34.533-35.157c.994-1.012.99-2.665-.009-3.672z" opacity=".15" filter="url(#b)"/><g><linearGradient id="c" gradientUnits="userSpaceOnUse" x1="60.5" y1="85.535" x2="60.5" y2="33.005" gradientTransform="translate(-.5)"><stop offset="0" stop-color="#C7ECD4"/><stop offset=".877" stop-color="#D7FCE4"/></linearGradient><path d="M93.061 40.596l-6.735-6.793c-1.057-1.067-2.782-1.062-3.834.009l-30.13 30.673c-1.052 1.07-2.775 1.072-3.83.003l-10.994-11.141c-1.055-1.069-2.779-1.069-3.833.002l-6.77 6.876c-1.054 1.069-1.056 2.823-.005 3.894l17.206 17.558c1.052 1.07 3.13 3.859 4.619 3.859h3.156c1.49 0 3.569-2.787 4.621-3.857l36.538-37.198c1.052-1.071 1.048-2.819-.009-3.885z" fill-rule="evenodd" clip-rule="evenodd" fill="url(#c)"/></g></g></svg>