<svg xmlns="http://www.w3.org/2000/svg" width="120" height="120"><filter id="b" filterUnits="userSpaceOnUse" y="8" x="-7"><feOffset dy="3" in="SourceGraphic" result="offOut"/><feGaussianBlur in="offOut" stdDeviation="2" result="blurOut"/><feBlend in="SourceGraphic" in2="blurOut"/></filter><g enable-background="new"><g><linearGradient id="a" gradientUnits="userSpaceOnUse" x1="60" y1="120" x2="60"><stop offset="0" stop-color="#B8C1CA"/><stop offset="1" stop-color="#BCC4CD"/></linearGradient><path d="M108 0h-96c-6.627 0-12 5.373-12 12v96c0 6.628 5.373 12 12 12h96c6.628 0 12-5.372 12-12v-96c0-6.627-5.372-12-12-12z" fill-rule="evenodd" clip-rule="evenodd" fill="url(#a)"/></g><path d="M22 41v51c0 2.209 1.791 4 4 4h68c2.209 0 4-1.791 4-4v-51h-76z" fill-rule="evenodd" clip-rule="evenodd" fill="#EBECED"/><path d="M49.178 17.171c-5.302-2.815-11.494-1.533-13.83 2.865s.068 10.247 5.37 13.063c5.302 2.815 22.992 2 22.992 2s-9.231-15.113-14.532-17.928z" fill-rule="evenodd" clip-rule="evenodd" fill="#97A4AF"/><path d="M84.652 20.036c-2.336-4.398-8.528-5.681-13.83-2.865l-14.531 17.929s17.689.815 22.991-2c5.302-2.817 7.706-8.665 5.37-13.064z" fill-rule="evenodd" clip-rule="evenodd" fill="#97A4AF"/><rect x="53" y="59" width="14" height="37" fill-rule="evenodd" clip-rule="evenodd" fill="#97A4AF"/><path d="M94.2 36.088h-68.4c-2.099 0-3.8 1.305-3.8 2.914v16.023h76v-16.023c0-1.609-1.701-2.914-3.8-2.914z" opacity=".4" filter="url(#b)"/><path d="M96 33h-72c-2.209 0-4 1.791-4 4v22h80v-22c0-2.209-1.791-4-4-4z" fill-rule="evenodd" clip-rule="evenodd" fill="#EBECED"/><rect x="53" y="33" width="14" height="26" fill-rule="evenodd" clip-rule="evenodd" fill="#97A4AF"/></g></svg>