<svg xmlns="http://www.w3.org/2000/svg" width="120" height="120"><filter id="b" filterUnits="userSpaceOnUse" y="8" x="-7"><feOffset dy="3" in="SourceGraphic" result="offOut"/><feGaussianBlur in="offOut" stdDeviation="2" result="blurOut"/><feBlend in="SourceGraphic" in2="blurOut"/></filter><g enable-background="new"><g><linearGradient id="a" gradientUnits="userSpaceOnUse" x1="60" y1="120" x2="60"><stop offset="0" stop-color="#CD575C"/><stop offset="1" stop-color="#D06064"/></linearGradient><path d="M108 0h-96c-6.627 0-12 5.373-12 12v96c0 6.628 5.373 12 12 12h96c6.628 0 12-5.372 12-12v-96c0-6.627-5.372-12-12-12z" fill-rule="evenodd" clip-rule="evenodd" fill="url(#a)"/></g><path d="M24 43.447v48.316c0 2.093 1.696 3.79 3.789 3.79h64.422c2.092 0 3.789-1.697 3.789-3.79v-48.316h-72z" opacity=".2" filter="url(#b)"/><path d="M22 41v51c0 2.209 1.791 4 4 4h68c2.209 0 4-1.791 4-4v-51h-76z" fill-rule="evenodd" clip-rule="evenodd" fill="#EFC6C6"/><path d="M49.178 17.171c-5.302-2.816-11.494-1.533-13.83 2.865s.068 10.247 5.37 13.063c5.302 2.815 22.992 2 22.992 2s-9.231-15.112-14.532-17.928z" fill-rule="evenodd" clip-rule="evenodd" fill="#A03C41"/><path d="M84.652 20.036c-2.336-4.398-8.528-5.682-13.83-2.865l-14.531 17.929s17.689.815 22.991-2c5.302-2.817 7.706-8.665 5.37-13.064z" fill-rule="evenodd" clip-rule="evenodd" fill="#9F3B40"/><rect x="53" y="59" width="14" height="37" fill-rule="evenodd" clip-rule="evenodd" fill="#AD4449"/><path d="M95.983 33.812h-72.3c-2.219 0-4.017 1.679-4.017 3.75v20.625h80.334v-20.625c0-2.07-1.798-3.75-4.017-3.75z" opacity=".1" filter="url(#b)"/><path d="M96 33h-72c-2.209 0-4 1.791-4 4v22h80v-22c0-2.209-1.791-4-4-4z" fill-rule="evenodd" clip-rule="evenodd" fill="#F1D4D4"/><rect x="53" y="33" width="14" height="26" fill-rule="evenodd" clip-rule="evenodd" fill="#C45256"/></g></svg>