<svg xmlns="http://www.w3.org/2000/svg" width="120" height="120"><filter id="b" filterUnits="userSpaceOnUse" y="8" x="-7"><feOffset dy="3" in="SourceGraphic" result="offOut"/><feGaussianBlur in="offOut" stdDeviation="2" result="blurOut"/><feBlend in="SourceGraphic" in2="blurOut"/></filter><g enable-background="new"><g><linearGradient id="a" gradientUnits="userSpaceOnUse" x1="60" y1="120" x2="60"><stop offset="0" stop-color="#656CD4"/><stop offset="1" stop-color="#7982DD"/></linearGradient><path d="M108 0h-96c-6.627 0-12 5.373-12 12v96c0 6.627 5.373 12 12 12h96c6.627 0 12-5.373 12-12v-96c0-6.627-5.373-12-12-12z" fill-rule="evenodd" clip-rule="evenodd" fill="url(#a)"/></g><path d="M20.949 44.371l47.424 18.596-.951 3.033-65.422-26 18.949 4.371z" fill-rule="evenodd" clip-rule="evenodd" filter="url(#b)"/><path d="M20.949 44.371l47.424 18.596-.951 3.033-47.422-18.596.949-3.033z" fill-rule="evenodd" clip-rule="evenodd" fill="#4A509D"/><path d="M85.5 42.167l-7.166-7.167-25.166 25.334 31.832 32.666 7-7.166-25-25.5 18.5-18.167z" fill-rule="evenodd" clip-rule="evenodd" filter="url(#b)"/><path d="M85.5 42.167l-7.166-7.167-25.166 25.334 31.832 32.666 7-7.166-25-25.5 18.5-18.167z" fill-rule="evenodd" clip-rule="evenodd" fill="#fff"/></g></svg>