<!DOCTYPE svg PUBLIC "-//W3C//DTD SVG 20010904//EN"
        "http://www.w3.org/TR/2001/REC-SVG-20010904/DTD/svg10.dtd">
<svg version="1.0" xmlns="http://www.w3.org/2000/svg"
     width="120.000000pt" height="120.000000pt" viewBox="0 0 120.000000 120.000000"
     preserveAspectRatio="xMidYMid meet">
    <metadata>
        Created by potrace 1.13, written by Peter Selinger 2001-2015
    </metadata>
    <g transform="translate(0.000000,120.000000) scale(0.100000,-0.100000)"
       fill="#005b99" stroke="none">
        <path d="M75 1191 c-11 -5 -31 -21 -45 -36 l-25 -27 0 -529 0 -529 33 -32 32
-33 530 0 530 0 32 33 33 32 0 530 0 530 -33 32 -32 33 -518 2 c-284 1 -526
-2 -537 -6z m847 -206 c115 -76 100 -259 -26 -316 -55 -25 -104 -24 -156 4
l-44 23 -83 -45 c-110 -61 -110 -73 0 -127 l82 -40 45 24 c120 63 260 -24 260
-161 0 -88 -62 -164 -147 -182 -96 -20 -213 75 -213 173 0 25 -8 32 -88 71
l-89 44 -28 -19 c-42 -28 -129 -25 -178 5 -101 62 -117 212 -31 293 59 55 141
64 212 23 l44 -25 79 41 c71 37 79 44 79 70 0 66 55 141 122 166 46 17 115 8
160 -22z"/>
        <path d="M772 933 c-39 -19 -62 -59 -62 -109 0 -51 53 -104 104 -104 73 0 121
47 119 116 -1 45 -27 82 -68 100 -43 18 -52 17 -93 -3z"/>
        <path d="M274 676 c-29 -29 -34 -41 -34 -79 0 -54 26 -91 75 -107 75 -25 145
27 145 107 0 38 -5 50 -34 79 -28 28 -42 34 -76 34 -34 0 -48 -6 -76 -34z"/>
        <path d="M744 426 c-40 -40 -46 -92 -14 -143 55 -91 200 -47 203 61 2 69 -46
116 -119 116 -28 0 -44 -8 -70 -34z"/>
    </g>
</svg>