<?xml version="1.0" encoding="iso-8859-1"?>
<!-- Generator: Adobe Illustrator 16.0.0, SVG Export Plug-In . SVG Version: 6.00 Build 0)  -->
<!DOCTYPE svg PUBLIC "-//W3C//DTD SVG 1.1//EN" "http://www.w3.org/Graphics/SVG/1.1/DTD/svg11.dtd">
<svg version="1.1" xmlns="http://www.w3.org/2000/svg" xmlns:xlink="http://www.w3.org/1999/xlink" x="0px" y="0px" width="120px"
	 height="120px" viewBox="0 0 120 120" style="enable-background:new 0 0 120 120;" xml:space="preserve">
<filter  y="8" x="-7" filterUnits="userSpaceOnUse" id="f1">
	<feOffset  in="SourceGraphic" result="offOut" dx="0" dy="3"></feOffset>
	<feGaussianBlur  stdDeviation="2" in="offOut" result="blurOut"></feGaussianBlur>
	<feBlend  mode="normal" in2="blurOut" in="SourceGraphic"></feBlend>
</filter>
<g id="_x2D_background" style="display:none;">
	<rect x="-118" y="-353" style="display:inline;fill:#2C3E4F;" width="1400" height="2680"/>
	<rect x="-88" y="-322.312" style="display:inline;fill:#344A5F;" width="1340" height="759.076"/>
</g>
<g id="Empty" style="enable-background:new    ;">
</g>
<g id="Thanks_-_loading" style="enable-background:new    ;">
</g>
<g id="Group_-_loading" style="enable-background:new    ;">
</g>
<g id="Avatar_-_loading" style="enable-background:new    ;">
</g>
<g id="People" style="enable-background:new    ;">
</g>
<g id="Groups" style="enable-background:new    ;">
</g>
<g id="Avatar" style="enable-background:new    ;">
</g>
<g id="Feed" style="enable-background:new    ;">
</g>
<g id="Today" style="enable-background:new    ;">
</g>
<g id="Apps" style="enable-background:new    ;">
</g>
<g id="Related_List" style="enable-background:new    ;">
</g>
<g id="Chatterbox" style="enable-background:new    ;">
</g>
<g id="Dropbox" style="enable-background:new    ;">
</g>
<g id="Concur" style="enable-background:new    ;">
</g>
<g id="Evernote" style="enable-background:new    ;">
</g>
<g id="Photo" style="enable-background:new    ;">
</g>
<g id="Log_a_Call" style="enable-background:new    ;">
</g>
<g id="Change_Status" style="enable-background:new    ;">
</g>
<g id="Email_and_Note" style="enable-background:new    ;">
</g>
<g id="Share" style="enable-background:new    ;">
</g>
<g id="Link">
</g>
<g id="Thanks" style="enable-background:new    ;">
</g>
<g id="Poll" style="enable-background:new    ;">
</g>
<g id="File" style="enable-background:new    ;">
	<g id="shape_copy_46_" style="enable-background:new    ;">
	</g>
</g>
<g id="Post" style="enable-background:new    ;">
</g>
<g id="Custom__x28_bbq_x29_" style="display:none;">
</g>
<g id="Custom">
</g>
<g id="Default">
</g>
<g id="Record" style="enable-background:new    ;">
</g>
<g id="Dashboard" style="enable-background:new    ;">
</g>
<g id="Contract" style="enable-background:new    ;">
</g>
<g id="Portal" style="enable-background:new    ;">
</g>
<g id="Contact" style="enable-background:new    ;">
</g>
<g id="Case" style="enable-background:new    ;">
	<g>
		<g id="shape_copy_27_">
			<g>
				<linearGradient id="SVGID_1_" gradientUnits="userSpaceOnUse" x1="60" y1="120" x2="60" y2="0">
					<stop  offset="0" style="stop-color:#E8C44C"/>
					<stop  offset="1" style="stop-color:#EBCD67"/>
				</linearGradient>
				<path style="fill-rule:evenodd;clip-rule:evenodd;fill:url(#SVGID_1_);" d="M108,0H12C5.373,0,0,5.373,0,12v96
					c0,6.628,5.373,12,12,12h96c6.627,0,12-5.372,12-12V12C120,5.373,114.627,0,108,0z"/>
			</g>
		</g>
		<g id="shape_copy_37_2_" style="opacity:0.19;filter:url(#f1);">
			<path d="M98.497,45.977H21.503l0.06,34.547l-0.02,10.008c0,4.17,1.452,5.497,5.617,5.497h65.72c4.165,0,5.617-1.198,5.617-5.368
				l0.006-10.106L98.497,45.977z"/>
		</g>
		<g id="shape_copy_37">
			<g>
				<path style="fill-rule:evenodd;clip-rule:evenodd;fill:#F3EBCB;" d="M100,44H20l0.062,35.896l-0.02,10.399
					c0,4.333,1.508,5.711,5.836,5.711h68.286c4.328,0,5.836-1.245,5.836-5.577l0.006-10.501L100,44z"/>
			</g>
		</g>
		<g id="handle_copy_3">
			<g>
				<path style="fill-rule:evenodd;clip-rule:evenodd;fill:#B49B46;" d="M73,16H47c-3.896,0-6,2.041-6,6v14h10V25h18v11h10V22
					C79,18.14,76.933,16,73,16z"/>
			</g>
		</g>
		<g id="Top_2_" style="opacity:0.24;filter:url(#f1);">
			<path d="M98.937,43.724l0.02-2.882c0-3.672-1.471-4.841-5.689-4.841H26.693c-4.22,0-5.69,1.056-5.69,4.729l-0.006,2.968
				l0.006,17.74h77.994L98.937,43.724z"/>
		</g>
		<g id="Top">
			<g>
				<path style="fill-rule:evenodd;clip-rule:evenodd;fill:#FAF6E6;" d="M99.938,43.104l0.02-3.399c0-4.332-1.508-5.711-5.836-5.711
					H25.836c-4.328,0-5.836,1.245-5.836,5.577l-0.006,3.502L20,64h80L99.938,43.104z"/>
			</g>
		</g>
		<g id="Rounded_Rectangle_38_copy_2">
			<g>
				<path style="fill-rule:evenodd;clip-rule:evenodd;fill:#CFB354;" d="M53,55v17c0,2.948,2.958,6,6,6h2c2.979,0,6-3.052,6-6V55H53
					z"/>
			</g>
		</g>
		<g id="Ellipse_9">
			<g>
				<circle style="fill-rule:evenodd;clip-rule:evenodd;fill:#F3EBCB;" cx="60" cy="71" r="3"/>
			</g>
		</g>
	</g>
</g>
<g id="Account" style="enable-background:new    ;">
</g>
<g id="Opportunity" style="enable-background:new    ;">
</g>
<g id="Task" style="enable-background:new    ;">
</g>
<g id="Event">
</g>
<g id="Campaign" style="enable-background:new    ;">
</g>
<g id="Lead" style="enable-background:new    ;">
</g>
<g id="_x2D_content">
	<g>
	</g>
</g>
<g id="_x2D_nyt_x5F_exporter_x5F_info" style="display:none;">
</g>
<g id="nyt_x5F_exporter_x5F_info" style="display:none;">
</g>
</svg>
