<?xml version="1.0" encoding="iso-8859-1"?>
<!-- Generator: Adobe Illustrator 16.0.0, SVG Export Plug-In . SVG Version: 6.00 Build 0)  -->
<!DOCTYPE svg PUBLIC "-//W3C//DTD SVG 1.1//EN" "http://www.w3.org/Graphics/SVG/1.1/DTD/svg11.dtd">
<svg version="1.1" xmlns="http://www.w3.org/2000/svg" xmlns:xlink="http://www.w3.org/1999/xlink" x="0px" y="0px" width="120px"
	 height="120px" viewBox="0 0 120 120" style="enable-background:new 0 0 120 120;" xml:space="preserve">
<filter  y="2" x="-7" filterUnits="userSpaceOnUse" id="f3">
	<feOffset  in="SourceGraphic" result="offOut" dx="0" dy="0"></feOffset>
	<feGaussianBlur  stdDeviation="1" in="offOut" result="blurOut"></feGaussianBlur>
	<feBlend  mode="normal" in2="blurOut" in="SourceGraphic"></feBlend>
</filter>
<filter  y="8" x="-7" filterUnits="userSpaceOnUse" id="f1">
	<feOffset  in="SourceGraphic" result="offOut" dx="0" dy="3"></feOffset>
	<feGaussianBlur  stdDeviation="2" in="offOut" result="blurOut"></feGaussianBlur>
	<feBlend  mode="normal" in2="blurOut" in="SourceGraphic"></feBlend>
</filter>
<g id="_x2D_background" style="display:none;">
	<rect x="-746" y="-1171" style="display:inline;fill:#2C3E4F;" width="1400" height="2680"/>
	<rect x="-716" y="-351" style="display:inline;fill:#344A5F;" width="1340" height="852"/>
</g>
<g id="Empty" style="enable-background:new    ;">
</g>
<g id="Thanks_-_loading" style="enable-background:new    ;">
</g>
<g id="Group_-_loading" style="enable-background:new    ;">
</g>
<g id="Avatar_-_loading" style="enable-background:new    ;">
</g>
<g id="People" style="enable-background:new    ;">
</g>
<g id="Groups" style="enable-background:new    ;">
</g>
<g id="Avatar" style="enable-background:new    ;">
</g>
<g id="Feed" style="enable-background:new    ;">
</g>
<g id="Today" style="enable-background:new    ;">
</g>
<g id="Apps" style="enable-background:new    ;">
</g>
<g id="Related_List" style="enable-background:new    ;">
</g>
<g id="Chatterbox" style="enable-background:new    ;">
</g>
<g id="Dropbox" style="enable-background:new    ;">
</g>
<g id="Concur" style="enable-background:new    ;">
</g>
<g id="Evernote" style="enable-background:new    ;">
</g>
<g id="Photo" style="enable-background:new    ;">
</g>
<g id="Log_a_Call" style="enable-background:new    ;">
	<g>
		<g id="shape_copy_14_">
			<g>
				<linearGradient id="SVGID_1_" gradientUnits="userSpaceOnUse" x1="60" y1="120" x2="60" y2="0">
					<stop  offset="0" style="stop-color:#35ACB5"/>
					<stop  offset="1" style="stop-color:#3DB8C0"/>
				</linearGradient>
				<path style="fill-rule:evenodd;clip-rule:evenodd;fill:url(#SVGID_1_);" d="M108,0H12C5.373,0,0,5.373,0,12v96
					c0,6.628,5.373,12,12,12h96c6.628,0,12-5.372,12-12V12C120,5.373,114.628,0,108,0z"/>
			</g>
		</g>
		<g style="opacity:0.15;filter:url(#f1);">
			<path d="M63.716,71.013c0.501-0.465,1.171-0.695,1.922-0.567c0.409,0.07,1.093,0.601,1.093,0.601l13.875,10.099
				c0.684,0.531,1.036,1.35,0.888,2.22c-0.896,3.638-3.091,7.053-5.944,8.977c-3.262,2.267-7.448,2.928-11.952,2.156
				c-9.21-1.58-19.914-8.859-27.991-20.033c-12.048-16.749-14.123-36.405-4.255-43.262c2.786-1.935,7.153-2.427,10.895-2.13
				c0.887,0.152,1.49,0.738,1.774,1.546l5.805,16.298c0.137,0.437,0.216,0.795,0.137,1.264c-0.113,0.669-0.559,1.214-1.113,1.601
				l-7.55,5.186c-0.808,0.62-1.126,1.667-0.729,2.633c1.333,3.33,3.096,6.597,5.382,9.678c2.276,3.147,4.825,5.927,7.52,8.25
				c0.797,0.688,1.91,0.741,2.787,0.133L63.716,71.013z"/>
		</g>
		<g>
			<linearGradient id="SVGID_2_" gradientUnits="userSpaceOnUse" x1="54.082" y1="94.7163" x2="54.082" y2="28.1187">
				<stop  offset="0" style="stop-color:#D5E9EB"/>
				<stop  offset="1" style="stop-color:#E7FDFE"/>
			</linearGradient>
			<path style="fill:url(#SVGID_2_);" d="M64.638,70.638c0.508-0.471,1.188-0.704,1.949-0.574c0.415,0.071,1.107,0.608,1.107,0.608
				l14.072,10.219c0.692,0.538,1.051,1.366,0.9,2.247c-0.909,3.681-3.135,7.137-6.029,9.083c-3.308,2.294-7.553,2.963-12.12,2.182
				c-9.342-1.598-20.196-8.965-28.389-20.271c-12.218-16.948-14.322-36.839-4.314-43.777c2.826-1.958,7.254-2.456,11.049-2.156
				c0.899,0.154,1.511,0.747,1.8,1.564l5.886,16.492c0.139,0.442,0.22,0.805,0.139,1.279c-0.114,0.678-0.565,1.229-1.129,1.62
				l-7.656,5.247c-0.818,0.627-1.142,1.688-0.738,2.665c1.352,3.37,3.14,6.675,5.458,9.792c2.308,3.185,4.893,5.998,7.626,8.349
				c0.808,0.696,1.938,0.75,2.826,0.135L64.638,70.638z"/>
		</g>
		<g id="Rectangle_7_copy_15_3_" style="opacity:0.1;filter:url(#f3);">
			<rect x="68.5" y="47.148" width="26" height="7.704"/>
		</g>
		<g id="Rectangle_7_copy_15">
			<g>
				<linearGradient id="SVGID_3_" gradientUnits="userSpaceOnUse" x1="81.5" y1="55" x2="81.5" y2="47">
					<stop  offset="0" style="stop-color:#D5E9EB"/>
					<stop  offset="1" style="stop-color:#E7FDFE"/>
				</linearGradient>
				<rect x="68" y="47" style="fill-rule:evenodd;clip-rule:evenodd;fill:url(#SVGID_3_);" width="27" height="8"/>
			</g>
		</g>
		<g id="Rectangle_7_copy_16_3_" style="opacity:0.1;filter:url(#f3);">
			<rect x="68.5" y="34.148" width="26" height="7.704"/>
		</g>
		<g id="Rectangle_7_copy_16">
			<g>
				<linearGradient id="SVGID_4_" gradientUnits="userSpaceOnUse" x1="81.5" y1="42" x2="81.5" y2="34">
					<stop  offset="0" style="stop-color:#D5E9EB"/>
					<stop  offset="1" style="stop-color:#E7FDFE"/>
				</linearGradient>
				<rect x="68" y="34" style="fill-rule:evenodd;clip-rule:evenodd;fill:url(#SVGID_4_);" width="27" height="8"/>
			</g>
		</g>
	</g>
</g>
<g id="Change_Status" style="enable-background:new    ;">
</g>
<g id="Email_and_Note" style="enable-background:new    ;">
</g>
<g id="Share" style="enable-background:new    ;">
</g>
<g id="Link">
</g>
<g id="Thanks" style="enable-background:new    ;">
</g>
<g id="Poll" style="enable-background:new    ;">
</g>
<g id="File" style="enable-background:new    ;">
	<g id="shape_copy_46_" style="enable-background:new    ;">
	</g>
</g>
<g id="Post" style="enable-background:new    ;">
</g>
<g id="Custom__x28_bbq_x29_" style="display:none;">
</g>
<g id="Custom">
</g>
<g id="Default">
</g>
<g id="Record" style="enable-background:new    ;">
</g>
<g id="Dashboard" style="enable-background:new    ;">
</g>
<g id="Contract" style="enable-background:new    ;">
</g>
<g id="Portal" style="enable-background:new    ;">
</g>
<g id="Contact" style="enable-background:new    ;">
</g>
<g id="Case" style="enable-background:new    ;">
</g>
<g id="Account" style="enable-background:new    ;">
</g>
<g id="Opportunity" style="enable-background:new    ;">
</g>
<g id="Task" style="enable-background:new    ;">
</g>
<g id="Event">
</g>
<g id="Campaign" style="enable-background:new    ;">
</g>
<g id="Lead" style="enable-background:new    ;">
</g>
<g id="_x2D_content">
	<g>
	</g>
</g>
<g id="_x2D_nyt_x5F_exporter_x5F_info" style="display:none;">
</g>
<g id="nyt_x5F_exporter_x5F_info" style="display:none;">
</g>
</svg>
