<svg xmlns="http://www.w3.org/2000/svg" xmlns:xlink="http://www.w3.org/1999/xlink">

	<symbol viewBox="0 0 16 16" id="trend-positive">
	    <path aria-hidden="true" class="slds-icon-trend__arrow" d="M.75 8H11M8 4.5L11.5 8 8 11.5" stroke-width=".95px" fill="transparent" stroke="#028048"> </path>
	    <circle aria-hidden="true" class="slds-icon-trend__circle" cx="8" cy="8" r="7.375"  stroke-width=".95px" fill="transparent" stroke="#028048" transform="rotate(-28 8 8) scale(-1 1) translate(-16 0)"> </circle>
    </symbol>

	<symbol viewBox="0 0 16 16" id="trend-neutral">
	    <path aria-hidden="true" class="slds-icon-trend__arrow" d="M.75 8H11M8 4.5L11.5 8 8 11.5" stroke-width=".95px" fill="transparent" stroke="#979797"> </path>
	    <circle aria-hidden="true" class="slds-icon-trend__circle" cx="8" cy="8" r="7.375"  stroke-width=".95px" fill="transparent" stroke="#979797" transform="rotate(-28 8 8) scale(-1 1) translate(-16 0)"> </circle>
    </symbol>
    
	<symbol viewBox="0 0 16 16" id="trend-negative">
	    <path aria-hidden="true" class="slds-icon-trend__arrow" d="M.75 8H11M8 4.5L11.5 8 8 11.5" stroke-width=".95px" fill="transparent" stroke="#c23934"> </path>
	    <circle aria-hidden="true" class="slds-icon-trend__circle" cx="8" cy="8" r="7.375"  stroke-width=".95px" fill="transparent" stroke="#c23934" transform="rotate(-28 8 8) scale(-1 1) translate(-16 0)"> </circle>
    </symbol>


    <view id="trend-positive" viewBox="0 0 16 16"/>
    <view id="trend-neutral" viewBox="0 16 16 16"/>
    <view id="trend-negative" viewBox="0 32 16 16"/>

    <use xlink:href="#trend-positive" width="16" height="16" x="0" y="0"/>
    <use xlink:href="#trend-neutral" width="16" height="16" x="0" y="16"/>
    <use xlink:href="#trend-negative" width="16" height="16" x="0" y="32"/>
</svg>